<svg xmlns="http://www.w3.org/2000/svg" viewBox="0 0 508.9 177.42"><defs><style>.cls-1,.cls-11{fill:#223e78;}.cls-10,.cls-2,.cls-9{fill:#fff;}.cls-3{fill:#d59c7a;}.cls-4{fill:#e0a881;}.cls-5{fill:#eabf95;}.cls-6{fill:#f2c8a2;}.cls-7{fill:#eae9ec;}.cls-8{fill:#eab48a;}.cls-9{opacity:0.3;}.cls-10{opacity:0.2;}.cls-11{fill-rule:evenodd;}.cls-12{fill:#ed7333;}</style></defs><g id="Warstwa_2" data-name="Warstwa 2"><g id="Layer_1" data-name="Layer 1"><rect class="cls-1" y="95.72" width="102.09" height="32.87" rx="11.34"/><path class="cls-2" d="M24.21,116.42l3.69-4.8c.35-.44.69-.82,1.06-1.26v0H24.55v-1.19h6.21v.92l-3.64,4.74c-.34.45-.68.86-1.05,1.28v0h4.77v1.18H24.21Z"/><path class="cls-2" d="M36.86,117.28l-.12-1h-.05a3,3,0,0,1-2.49,1.22,2.34,2.34,0,0,1-2.5-2.35c0-2,1.76-3,4.91-3v-.17A1.68,1.68,0,0,0,34.75,110a4.07,4.07,0,0,0-2.12.6l-.34-1a5.06,5.06,0,0,1,2.68-.73c2.49,0,3.1,1.7,3.1,3.34v3a11.44,11.44,0,0,0,.14,2Zm-.22-4.16c-1.62,0-3.45.25-3.45,1.84a1.31,1.31,0,0,0,1.39,1.41,2,2,0,0,0,2-1.36,1.55,1.55,0,0,0,.08-.47Z"/><path class="cls-2" d="M47.28,115.06c0,.84,0,1.58.07,2.22H46L46,116h0a3.07,3.07,0,0,1-2.7,1.52c-1.28,0-2.81-.71-2.81-3.57v-4.77h1.48v4.51c0,1.55.47,2.6,1.82,2.6a2.14,2.14,0,0,0,2-1.35,2.28,2.28,0,0,0,.13-.76v-5h1.48Z"/><path class="cls-2" d="M49.89,117.28v-7H48.75v-1.13h1.14v-.39a3.81,3.81,0,0,1,1-2.85,2.8,2.8,0,0,1,2-.75,3.43,3.43,0,0,1,1.27.23l-.21,1.15a2.18,2.18,0,0,0-.94-.19c-1.26,0-1.58,1.11-1.58,2.36v.44h2v1.13h-2v7Z"/><path class="cls-2" d="M59.17,117.28l-.12-1h0a3,3,0,0,1-2.49,1.22A2.33,2.33,0,0,1,54,115.12c0-2,1.75-3,4.9-3v-.17A1.68,1.68,0,0,0,57.07,110a4.1,4.1,0,0,0-2.13.6l-.33-1a5,5,0,0,1,2.68-.73c2.49,0,3.1,1.7,3.1,3.34v3a11.51,11.51,0,0,0,.13,2ZM59,113.12c-1.61,0-3.45.25-3.45,1.84a1.31,1.31,0,0,0,1.4,1.41,2,2,0,0,0,2-1.36,1.55,1.55,0,0,0,.08-.47Z"/><path class="cls-2" d="M62.78,111.33c0-.84,0-1.53-.07-2.2H64l.09,1.35h0a3,3,0,0,1,2.69-1.54c1.13,0,2.89.68,2.89,3.47v4.87H68.23v-4.7c0-1.31-.49-2.41-1.88-2.41a2.1,2.1,0,0,0-2,1.52,2,2,0,0,0-.1.69v4.9H62.78Z"/><path class="cls-2" d="M73.77,106.84a.87.87,0,0,1-.94.91.88.88,0,0,1-.89-.91.9.9,0,0,1,.92-.93A.88.88,0,0,1,73.77,106.84Zm-1.65,10.44v-8.15H73.6v8.15Z"/><path class="cls-2" d="M76.89,113.47a2.6,2.6,0,0,0,2.79,2.83,5.26,5.26,0,0,0,2.26-.42l.25,1.06a6.49,6.49,0,0,1-2.71.51,3.79,3.79,0,0,1-4-4.11c0-2.46,1.45-4.4,3.83-4.4,2.66,0,3.37,2.34,3.37,3.84,0,.31,0,.54,0,.69Zm4.34-1.06a2.11,2.11,0,0,0-2-2.41,2.46,2.46,0,0,0-2.28,2.41Z"/><rect class="cls-1" x="393.87" y="96.72" width="115.02" height="32.87" rx="12.04"/><path class="cls-2" d="M412.79,108.44l1.08,4.14c.23.91.45,1.76.6,2.6h0c.19-.83.46-1.7.73-2.58l1.33-4.16h1.24l1.27,4.08c.3,1,.54,1.83.72,2.66h.05a25.62,25.62,0,0,1,.63-2.65l1.16-4.09h1.46l-2.62,8.15h-1.35l-1.25-3.89a25.71,25.71,0,0,1-.72-2.68h0a23.08,23.08,0,0,1-.74,2.7l-1.31,3.87h-1.35l-2.46-8.15Z"/><path class="cls-2" d="M424.29,115.08a3.94,3.94,0,0,0,1.95.59c1.08,0,1.59-.54,1.59-1.22s-.42-1.09-1.52-1.49c-1.46-.53-2.16-1.34-2.16-2.31a2.52,2.52,0,0,1,2.82-2.4,4,4,0,0,1,2,.51l-.37,1.08a3.2,3.2,0,0,0-1.67-.47c-.87,0-1.36.5-1.36,1.11s.49,1,1.55,1.38c1.41.54,2.14,1.25,2.14,2.46,0,1.43-1.11,2.44-3.05,2.44a4.72,4.72,0,0,1-2.29-.55Z"/><path class="cls-2" d="M431.16,111.1c0-1,0-1.89-.07-2.66h1.33l.07,1.4h0a3.21,3.21,0,0,1,2.9-1.59c2,0,3.46,1.67,3.46,4.15,0,2.93-1.79,4.38-3.71,4.38a2.86,2.86,0,0,1-2.51-1.28h0v4.43h-1.47Zm1.47,2.18a3.69,3.69,0,0,0,.06.6,2.3,2.3,0,0,0,2.23,1.74c1.56,0,2.47-1.28,2.47-3.15,0-1.64-.86-3-2.42-3a2.37,2.37,0,0,0-2.24,1.84,2.43,2.43,0,0,0-.1.61Z"/><path class="cls-2" d="M448.12,112.45a4,4,0,0,1-4.06,4.33,3.88,3.88,0,0,1-3.91-4.2,4,4,0,0,1,4.05-4.33A3.86,3.86,0,0,1,448.12,112.45Zm-6.47.08c0,1.79,1,3.14,2.48,3.14s2.47-1.33,2.47-3.17c0-1.38-.69-3.13-2.44-3.13S441.65,111,441.65,112.53Zm4.7-7.61-2.05,2.41h-1.06l1.48-2.41Z"/><path class="cls-2" d="M450.06,116.59v-4.85l-1.15,1v-1.16l1.15-1v-5.93h1.48v4.8l1.19-1v1.18l-1.19,1v6Z"/><path class="cls-2" d="M454.06,111.1c0-1,0-1.89-.06-2.66h1.33l.06,1.4h0a3.19,3.19,0,0,1,2.9-1.59c2,0,3.45,1.67,3.45,4.15,0,2.93-1.79,4.38-3.71,4.38a2.86,2.86,0,0,1-2.51-1.28h0v4.43h-1.47Zm1.47,2.18a2.82,2.82,0,0,0,.07.6,2.29,2.29,0,0,0,2.22,1.74c1.57,0,2.48-1.28,2.48-3.15,0-1.64-.86-3-2.43-3a2.37,2.37,0,0,0-2.24,1.84,2.43,2.43,0,0,0-.1.61Z"/><path class="cls-2" d="M463.65,111c0-1,0-1.78-.07-2.54h1.3l.05,1.6H465a2.46,2.46,0,0,1,2.26-1.79,1.33,1.33,0,0,1,.42.06v1.39a2.41,2.41,0,0,0-.5,0,2.08,2.08,0,0,0-2,1.91,3.58,3.58,0,0,0-.07.69v4.34h-1.46Z"/><path class="cls-2" d="M473.58,116.59l-.11-1h-.06a3,3,0,0,1-2.49,1.21,2.32,2.32,0,0,1-2.49-2.34c0-2,1.75-3,4.9-3v-.17a1.68,1.68,0,0,0-1.85-1.89,4.11,4.11,0,0,0-2.13.61l-.33-1a5,5,0,0,1,2.68-.73c2.49,0,3.1,1.71,3.1,3.34v3a11.51,11.51,0,0,0,.13,2Zm-.22-4.16c-1.61,0-3.45.26-3.45,1.84a1.31,1.31,0,0,0,1.4,1.41,2,2,0,0,0,2-1.36,1.55,1.55,0,0,0,.08-.47Z"/><path class="cls-2" d="M483,116.29a5.52,5.52,0,0,1-2.34.47,3.87,3.87,0,0,1-4.06-4.16,4.14,4.14,0,0,1,4.38-4.33,5,5,0,0,1,2,.42l-.34,1.15a3.44,3.44,0,0,0-1.71-.39,3.07,3.07,0,0,0-.05,6.13,4.25,4.25,0,0,0,1.81-.4Z"/><path class="cls-2" d="M489.25,116.59l-.12-1h-.05a3,3,0,0,1-2.5,1.21,2.32,2.32,0,0,1-2.49-2.34c0-2,1.75-3,4.9-3v-.17a1.68,1.68,0,0,0-1.85-1.89A4,4,0,0,0,485,110l-.34-1a5,5,0,0,1,2.68-.73c2.49,0,3.1,1.71,3.1,3.34v3a11.51,11.51,0,0,0,.13,2Zm-.22-4.16c-1.62,0-3.46.26-3.46,1.84a1.31,1.31,0,0,0,1.4,1.41,2,2,0,0,0,2-1.36,1.56,1.56,0,0,0,.09-.47Z"/><rect class="cls-1" x="175.52" width="161.71" height="32.87" rx="14.27"/><path class="cls-2" d="M202.43,12.72l1.08,4.15c.24.91.46,1.75.61,2.59h0c.19-.83.45-1.7.72-2.58l1.34-4.16h1.24l1.27,4.08c.3,1,.53,1.83.72,2.66h0a23,23,0,0,1,.62-2.64l1.17-4.1h1.46l-2.63,8.15h-1.34L207.54,17a27.68,27.68,0,0,1-.73-2.68h0A23.08,23.08,0,0,1,206,17l-1.31,3.87h-1.35l-2.46-8.15Z"/><path class="cls-2" d="M213.94,19.36a3.84,3.84,0,0,0,1.95.59c1.08,0,1.59-.54,1.59-1.21s-.43-1.1-1.52-1.5c-1.47-.53-2.16-1.33-2.16-2.31,0-1.32,1.06-2.39,2.82-2.39a4,4,0,0,1,2,.5l-.37,1.08a3.2,3.2,0,0,0-1.67-.47c-.87,0-1.36.5-1.36,1.11s.49,1,1.55,1.38c1.41.54,2.14,1.25,2.14,2.46,0,1.43-1.12,2.44-3,2.44a4.69,4.69,0,0,1-2.29-.55Z"/><path class="cls-2" d="M220.81,15.38c0-1,0-1.88-.07-2.66h1.33l.07,1.4h0a3.22,3.22,0,0,1,2.9-1.58c2,0,3.45,1.66,3.45,4.14,0,2.93-1.78,4.38-3.7,4.38a2.86,2.86,0,0,1-2.51-1.28h0v4.43h-1.46Zm1.46,2.18a3.53,3.53,0,0,0,.07.6,2.29,2.29,0,0,0,2.22,1.74c1.57,0,2.48-1.28,2.48-3.15,0-1.64-.86-3-2.42-3a2.37,2.37,0,0,0-2.25,1.83,2.51,2.51,0,0,0-.1.61Z"/><path class="cls-2" d="M237.77,16.73a4,4,0,0,1-4.06,4.33,3.88,3.88,0,0,1-3.91-4.19,4,4,0,0,1,4-4.33A3.86,3.86,0,0,1,237.77,16.73Zm-6.47.09c0,1.78,1,3.13,2.48,3.13s2.47-1.33,2.47-3.17c0-1.38-.69-3.13-2.44-3.13S231.3,15.27,231.3,16.82ZM236,9.2l-2.06,2.41h-1.06l1.49-2.41Z"/><path class="cls-2" d="M239.7,20.87V16l-1.14,1V15.84l1.14-1V8.91h1.49v4.81l1.19-1v1.18l-1.19,1v6Z"/><path class="cls-2" d="M243.71,14.93c0-.84,0-1.53-.07-2.21H245l.08,1.35h0a3,3,0,0,1,2.69-1.53c1.13,0,2.88.67,2.88,3.47v4.86h-1.48v-4.7c0-1.31-.49-2.4-1.89-2.4a2.12,2.12,0,0,0-2,1.51,2.39,2.39,0,0,0-.1.69v4.9h-1.48Z"/><path class="cls-2" d="M253.38,12.72l1.78,4.82c.19.54.39,1.18.53,1.67h0c.15-.49.32-1.11.52-1.7l1.62-4.79h1.57l-2.23,5.81c-1.06,2.8-1.78,4.23-2.79,5.11a4.08,4.08,0,0,1-1.82,1l-.37-1.25a4,4,0,0,0,1.29-.72A4.53,4.53,0,0,0,254.76,21a1.06,1.06,0,0,0,.12-.36,1.67,1.67,0,0,0-.1-.39l-3-7.51Z"/><path class="cls-2" d="M264.14,19.36a3.84,3.84,0,0,0,1.95.59c1.08,0,1.59-.54,1.59-1.21s-.42-1.1-1.52-1.5c-1.46-.53-2.16-1.33-2.16-2.31,0-1.32,1.07-2.39,2.82-2.39a4,4,0,0,1,2,.5l-.37,1.08a3.2,3.2,0,0,0-1.67-.47c-.87,0-1.36.5-1.36,1.11s.49,1,1.55,1.38c1.41.54,2.14,1.25,2.14,2.46C269.11,20,268,21,266.06,21a4.72,4.72,0,0,1-2.29-.55Z"/><path class="cls-2" d="M277.83,18.65c0,.84,0,1.58.07,2.22h-1.31l-.09-1.33h0a3.07,3.07,0,0,1-2.7,1.52c-1.28,0-2.81-.71-2.81-3.57V12.72h1.48v4.52c0,1.55.47,2.59,1.82,2.59a2.14,2.14,0,0,0,2-1.35,2.28,2.28,0,0,0,.13-.76v-5h1.48Z"/><path class="cls-2" d="M281.76,16.46h0c.2-.29.49-.64.72-.92l2.4-2.82h1.78l-3.15,3.35,3.59,4.8h-1.8L282.51,17l-.75.84v3.06h-1.47v-12h1.47Z"/><path class="cls-2" d="M294,20.57a5.52,5.52,0,0,1-2.34.47,3.87,3.87,0,0,1-4.06-4.16A4.14,4.14,0,0,1,292,12.55a5,5,0,0,1,2,.42l-.33,1.15a3.48,3.48,0,0,0-1.72-.39,2.82,2.82,0,0,0-2.88,3.09,2.79,2.79,0,0,0,2.83,3,4.16,4.16,0,0,0,1.82-.4Z"/><path class="cls-2" d="M296.46,17.07a2.61,2.61,0,0,0,2.79,2.83,5.42,5.42,0,0,0,2.26-.42l.25,1.06a6.69,6.69,0,0,1-2.71.5,3.79,3.79,0,0,1-4-4.11c0-2.46,1.45-4.39,3.83-4.39,2.66,0,3.37,2.34,3.37,3.84,0,.3,0,.54-.05.69ZM300.8,16a2.1,2.1,0,0,0-2.05-2.41A2.45,2.45,0,0,0,296.48,16Z"/><path class="cls-2" d="M303.87,19.36a3.84,3.84,0,0,0,1.95.59c1.08,0,1.58-.54,1.58-1.21s-.42-1.1-1.51-1.5c-1.47-.53-2.16-1.33-2.16-2.31,0-1.32,1.06-2.39,2.82-2.39a4,4,0,0,1,2,.5l-.37,1.08a3.2,3.2,0,0,0-1.67-.47c-.87,0-1.36.5-1.36,1.11s.49,1,1.55,1.38c1.41.54,2.14,1.25,2.14,2.46,0,1.43-1.11,2.44-3,2.44a4.69,4.69,0,0,1-2.29-.55Z"/><polygon class="cls-3" points="288.13 113.17 302.17 144.53 288.38 150.43 274.34 119.08 288.13 113.17"/><path class="cls-4" d="M289.83,151.33l-12.74-28.46a3.88,3.88,0,0,0-4.84-2.07l-4.91,2.1.12.28-54.45,23a4.19,4.19,0,0,0-2.23,5.56,5.55,5.55,0,0,0,4.38,3.13l24.73-10.6.52,1.16-21,9.66c-2.08,1-2.73,4.1-1.79,6.19a5.64,5.64,0,0,0,3.9,3.07l22.87-10.46.52,1.16L228.78,162c-2.18.93-2.87,4.11-1.92,6.25a5.66,5.66,0,0,0,4.1,3.1l17.82-7.6.52,1.16-9,3.85c-1.72,1.2-2.2,4-1.34,5.93a4.37,4.37,0,0,0,5.69,2.18l42-17.93C289.65,157.57,291.31,154.63,289.83,151.33Z"/><polygon class="cls-5" points="207.78 110.08 193.74 141.43 207.52 147.34 221.56 115.98 207.78 110.08"/><path class="cls-6" d="M251.35,129.64c-2.62-.59-12.15-4.59-12.15-4.59-5.62,10.08-16.7,14.28-27.18,10.1l8.49-18.81c4.71-10.5,15.34-3.89,15.34-3.89l18.83,8.07,7.43,3.18C259.79,127.6,255.12,130.49,251.35,129.64Z"/><polygon class="cls-2" points="286.94 110.08 280.71 112.75 289.23 131.78 295.47 129.11 286.94 110.08"/><polygon class="cls-7" points="289.23 131.78 297.75 150.81 303.99 148.14 295.47 129.11 289.23 131.78"/><polygon class="cls-2" points="208.96 106.98 215.2 109.66 206.67 128.68 200.44 126.01 208.96 106.98"/><polygon class="cls-7" points="206.67 128.68 198.15 147.72 191.91 145.04 200.44 126.01 206.67 128.68"/><path class="cls-6" d="M206.07,148.23l12.74-28.45a3.9,3.9,0,0,1,4.84-2.08l4.92,2.11-.12.27,54.45,23a4.18,4.18,0,0,1,2.22,5.56,5.56,5.56,0,0,1-4.38,3.12L256,141.18l-.52,1.16,29.67,12.71c2.09,1,2.74,4.09,1.8,6.19a5.63,5.63,0,0,1-3.9,3.06l-31.53-13.5L251,152l27.19,11.72c2.18.93,2.87,4.11,1.92,6.25A5.66,5.66,0,0,1,276,173l-28.9-12.38-.52,1.16,14.28,6.11c1.72,1.2,2.2,4,1.34,5.93a4.36,4.36,0,0,1-5.69,2.18l-47.2-20.19C206.25,154.48,204.59,151.54,206.07,148.23Z"/><path class="cls-8" d="M244.29,132.19c2.62-.6,12.15-4.6,12.15-4.6,5.62,10.08,16.7,14.28,27.18,10.1l-8.49-18.81c-4.7-10.5-15.34-3.89-15.34-3.89L241,123.06l-7.42,3.18C235.85,130.14,240.53,133,244.29,132.19Z"/><path class="cls-9" d="M234.54,125.88c1.92,3.27,7.8-.16,7.8-.16l-1.63-2.48Z"/><path class="cls-4" d="M209.29,157.44a4.66,4.66,0,0,0,6.48-.19l5.21-5.42a4.41,4.41,0,0,0-.2-6.34h0a4.66,4.66,0,0,0-6.48.19l-5.21,5.42a4.41,4.41,0,0,0,.2,6.34Z"/><path class="cls-4" d="M218,163.15a4.67,4.67,0,0,0,6.49-.19l6-6.22a4.42,4.42,0,0,0-.2-6.34h0a4.67,4.67,0,0,0-6.49.19l-6,6.22a4.42,4.42,0,0,0,.19,6.34Z"/><path class="cls-4" d="M227.86,170.3a4.66,4.66,0,0,0,6.48-.19l5.21-5.42a4.42,4.42,0,0,0-.2-6.34h0a4.66,4.66,0,0,0-6.48.19L227.66,164a4.41,4.41,0,0,0,.2,6.34Z"/><path class="cls-4" d="M239.55,176.2A4.66,4.66,0,0,0,246,176l4.21-4.38a4.42,4.42,0,0,0-.2-6.35h0a4.67,4.67,0,0,0-6.48.2l-4.22,4.39a4.43,4.43,0,0,0,.2,6.34Z"/><path class="cls-9" d="M285.51,161.06c1.25-2.44-.27-3.71-2.61-4.57a2.75,2.75,0,0,0-3.71,1.31c-.67,1.55.38,2.63,1.69,3.61S284.35,163.29,285.51,161.06Z"/><path class="cls-9" d="M260.55,173.64c1.26-2.44-.27-3.71-2.6-4.57a2.76,2.76,0,0,0-3.72,1.31c-.67,1.55.38,2.63,1.69,3.6S259.4,175.87,260.55,173.64Z"/><path class="cls-9" d="M283.18,148.78c1.26-2.44-.27-3.7-2.6-4.56a2.76,2.76,0,0,0-3.72,1.31c-.67,1.54.38,2.63,1.69,3.6S282,151,283.18,148.78Z"/><path class="cls-9" d="M278.53,169.7c1.26-2.44-.26-3.71-2.6-4.57a2.75,2.75,0,0,0-3.71,1.31c-.68,1.55.38,2.63,1.68,3.61S277.38,171.93,278.53,169.7Z"/><path class="cls-10" d="M238.6,159.72c-2.08-1.82-3.73-.72-5.19,1.26a2.64,2.64,0,0,0,.32,3.85c1.35,1,2.7.33,4-.65S240.5,161.39,238.6,159.72Z"/><path class="cls-10" d="M229.3,151.54c-2.08-1.83-3.73-.72-5.19,1.26a2.64,2.64,0,0,0,.33,3.85c1.35,1,2.69.33,4-.65S231.2,153.21,229.3,151.54Z"/><path class="cls-10" d="M220,146.69c-2.08-1.83-3.72-.72-5.19,1.26a2.64,2.64,0,0,0,.33,3.85c1.35,1,2.69.33,4-.65S221.91,148.36,220,146.69Z"/><path class="cls-10" d="M249.45,166.39c-2.09-1.82-3.73-.72-5.19,1.26a2.64,2.64,0,0,0,.32,3.85c1.35,1,2.7.33,4-.65S251.35,168.06,249.45,166.39Z"/><polygon class="cls-11" points="168.75 84.73 168.75 136.2 192.95 146.38 211.85 103.42 168.75 84.73"/><polygon class="cls-11" points="329.68 89.73 285.57 107.51 304.47 150.47 329.68 139.86 329.68 89.73"/><path class="cls-12" d="M361.44,108.06h19.41a3.06,3.06,0,0,1,3.06,3.06v4.08a3.06,3.06,0,0,1-3.06,3.06H361.47v4.26a3,3,0,0,1-.9,2.16,3.06,3.06,0,0,1-4.32,0l-9.36-9.35a3.07,3.07,0,0,1,0-4.33l9.34-9.33a3.05,3.05,0,0,1,5.22,2.17v4.22Z"/><path class="cls-12" d="M261.05,62.11l-.18-19.41a3.05,3.05,0,0,0-3.09-3l-4.07,0a3.06,3.06,0,0,0-3,3.08l.18,19.38-4.25,0a3.06,3.06,0,0,0-2.12,5.24l9.44,9.27a3.06,3.06,0,0,0,4.32,0l9.25-9.42a3.05,3.05,0,0,0-2.22-5.2l-4.22,0Z"/><path class="cls-12" d="M133,108.06H113.59a3.06,3.06,0,0,0-3.06,3.06v4.08a3.06,3.06,0,0,0,3.06,3.06H133v4.26a3.06,3.06,0,0,0,5.22,2.16l9.35-9.35a3.05,3.05,0,0,0,0-4.33l-9.33-9.33a3.06,3.06,0,0,0-5.23,2.17l0,4.22Z"/></g></g></svg>