<svg xmlns="http://www.w3.org/2000/svg" viewBox="0 0 510.61 467.37"><defs><style>.cls-1{fill:#7193cc;}.cls-2{fill:#fff;}</style></defs><g id="Warstwa_2" data-name="Warstwa 2"><g id="Layer_1" data-name="Layer 1"><path class="cls-1" d="M478.07,243.14l-27.48-24.86L425,238.08a106.46,106.46,0,0,0-33-12.45l-6.77-29.34-37,1.85L344.49,227a106.19,106.19,0,0,0-35,16.24l-23.08-14.42-24.86,27.47,16.65,21.53a106.41,106.41,0,0,0-12.9,37.93l-25.74,6,1.85,37L269,362.26a106.19,106.19,0,0,0,18,34.33l-14.95,23.93,27.47,24.86,24.35-18.83a106.13,106.13,0,0,0,34,10.19L365,467.37l37-1.85,4.32-33.82a106,106,0,0,0,28.48-15l29,18.11,24.87-27.47L466.68,379a106.34,106.34,0,0,0,9.8-29.14l34.13-7.88-1.84-37-34.87-4.45a106,106,0,0,0-13.51-29.05ZM423,375.2a64.64,64.64,0,1,1-4.56-91.3A64.64,64.64,0,0,1,423,375.2Z"/><path class="cls-1" d="M258.74,206.5l-16-32.81-30.67,8.71a104.7,104.7,0,0,0-25.61-23.5L191,129.59l-34.5-11.89-14,25a104.59,104.59,0,0,0-38,2L88.8,123.08,56,139.07l7.32,25.79A104.56,104.56,0,0,0,37.6,194.8l-25.71-4L0,225.28l24,13.38a104.49,104.49,0,0,0,3.85,38L5.38,293l16,32.8,29.16-8.27a104.94,104.94,0,0,0,27.32,21.78l-4.77,30.59,34.5,11.9,16.36-29.33a104.76,104.76,0,0,0,31.53-3.25l19.86,27.19,32.8-16-9.64-34a105,105,0,0,0,19.65-23l34.09,5.33,11.89-34.51-30.23-16.86a104.62,104.62,0,0,0-1.68-31.51ZM160,307a63.66,63.66,0,1,1,29.34-85.12A63.67,63.67,0,0,1,160,307Z"/><path class="cls-1" d="M346.14,36.15,328.24,18l-18.41,12.6a73.21,73.21,0,0,0-22.22-9.88L284.13.21,258.59,0,254.9,19.72a73.23,73.23,0,0,0-24.74,9.77l-15.3-10.84-18.21,17.9L207.25,52A73.11,73.11,0,0,0,196.86,77.6l-18,3.06-.21,25.53,18.89,3.54a72.92,72.92,0,0,0,11,24.34l-11.24,15.86,17.9,18.2,17.51-12a73.43,73.43,0,0,0,23,8.36l3.63,21.36,25.54.21,4.32-23.1a72.83,72.83,0,0,0,20.19-9.17l19.22,13.62,18.21-17.9-14-20.41a73.15,73.15,0,0,0,7.91-19.65l23.8-4.06.21-25.53L341,75.43a73,73,0,0,0-8.13-20.52ZM303,124.8a44.54,44.54,0,1,1,.52-63A44.55,44.55,0,0,1,303,124.8Z"/><circle class="cls-1" cx="373.68" cy="333.22" r="72.08"/><circle class="cls-1" cx="132.06" cy="247.09" r="69.22"/><circle class="cls-1" cx="271.75" cy="93.04" r="45.33"/><path class="cls-2" d="M223.7,68.65c-.1-1.75-.21-3.86-.19-5.42h-.06c-.42,1.47-.95,3-1.58,4.77l-2.22,6.1h-1.23l-2-6c-.6-1.77-1.1-3.39-1.46-4.88h0c0,1.56-.14,3.67-.25,5.55l-.33,5.39h-1.55l.88-12.57h2.07l2.14,6.08c.52,1.55.95,2.93,1.27,4.24h.05c.32-1.27.77-2.65,1.33-4.24l2.24-6.08h2.07l.78,12.57H224Z"/><path class="cls-2" d="M236.31,69.59a4.41,4.41,0,0,1-4.49,4.79,4.3,4.3,0,0,1-4.33-4.65c0-3,2-4.79,4.48-4.79S236.31,66.83,236.31,69.59Zm-7.16.09c0,2,1.14,3.47,2.75,3.47s2.74-1.48,2.74-3.51c0-1.53-.77-3.47-2.71-3.47S229.15,68,229.15,69.68Z"/><path class="cls-2" d="M246.18,60.93V71.84c0,.8,0,1.72.07,2.33h-1.47l-.08-1.56h0a3.34,3.34,0,0,1-3.07,1.77c-2.18,0-3.86-1.85-3.86-4.59,0-3,1.84-4.85,4-4.85a3,3,0,0,1,2.73,1.38h0V60.93Zm-1.65,7.89a2.74,2.74,0,0,0-.07-.69,2.42,2.42,0,0,0-2.37-1.9c-1.7,0-2.7,1.49-2.7,3.49,0,1.82.89,3.33,2.66,3.33a2.47,2.47,0,0,0,2.41-2,2.72,2.72,0,0,0,.07-.71Z"/><path class="cls-2" d="M249.81,70a2.88,2.88,0,0,0,3.09,3.13,5.76,5.76,0,0,0,2.5-.47l.28,1.18a7.34,7.34,0,0,1-3,.56,4.19,4.19,0,0,1-4.44-4.55c0-2.72,1.6-4.87,4.23-4.87,2.95,0,3.73,2.59,3.73,4.25a6.24,6.24,0,0,1-.05.77Zm4.81-1.18a2.33,2.33,0,0,0-2.28-2.66,2.71,2.71,0,0,0-2.51,2.66Z"/><path class="cls-2" d="M258.23,68c0-1.06,0-2-.07-2.81h1.43l.06,1.77h.07a2.72,2.72,0,0,1,2.5-2,1.68,1.68,0,0,1,.47.06v1.55a2.34,2.34,0,0,0-.56-.06,2.3,2.3,0,0,0-2.2,2.11,4.22,4.22,0,0,0-.08.76v4.81h-1.62Z"/><path class="cls-2" d="M264.4,67.59c0-.93,0-1.7-.07-2.44h1.45l.09,1.49h0a3.32,3.32,0,0,1,3-1.7c1.25,0,3.18.75,3.18,3.84v5.39h-1.64V69c0-1.45-.54-2.67-2.09-2.67a2.34,2.34,0,0,0-2.2,1.68,2.55,2.55,0,0,0-.11.77v5.42H264.4Z"/><path class="cls-2" d="M276.57,62.61a1,1,0,0,1-1,1,1,1,0,0,1-1-1,1,1,0,0,1,1-1A1,1,0,0,1,276.57,62.61Zm-1.82,11.56v-9h1.64v9Z"/><path class="cls-2" d="M278.08,73.22l4.09-5.31c.39-.49.76-.92,1.17-1.4v0h-4.88V65.15h6.88l0,1-4,5.24c-.37.51-.75,1-1.16,1.42v0h5.28v1.3h-7.33Z"/><path class="cls-2" d="M292.08,74.17,292,73h-.05a3.38,3.38,0,0,1-2.76,1.35,2.57,2.57,0,0,1-2.76-2.59c0-2.19,1.94-3.38,5.42-3.36v-.19a1.86,1.86,0,0,0-2.05-2.09,4.52,4.52,0,0,0-2.35.68L287,65.74a5.66,5.66,0,0,1,3-.8c2.76,0,3.44,1.89,3.44,3.69V72a12.91,12.91,0,0,0,.14,2.16Zm-.24-4.6c-1.79,0-3.82.28-3.82,2a1.46,1.46,0,0,0,1.55,1.57,2.25,2.25,0,0,0,2.18-1.52,1.83,1.83,0,0,0,.09-.52Z"/><path class="cls-2" d="M302.5,73.84a6.11,6.11,0,0,1-2.59.52,4.29,4.29,0,0,1-4.49-4.61A4.58,4.58,0,0,1,300.27,65a5.36,5.36,0,0,1,2.27.47l-.37,1.26a3.86,3.86,0,0,0-1.9-.42,3.12,3.12,0,0,0-3.19,3.41,3.09,3.09,0,0,0,3.13,3.37,4.72,4.72,0,0,0,2-.44Z"/><path class="cls-2" d="M302.22,76.78a2.61,2.61,0,0,0,1.79-.69c.45-.52.62-1.23.62-3.39V65.15h1.64v8.18c0,1.76-.28,2.89-1.08,3.71a4.18,4.18,0,0,1-2.8,1Zm4.23-14.17a1,1,0,0,1-1,1,1,1,0,0,1-1-1,1,1,0,0,1,1-1A1,1,0,0,1,306.45,62.61Z"/><path class="cls-2" d="M314,74.17,313.82,73h-.06A3.35,3.35,0,0,1,311,74.38a2.57,2.57,0,0,1-2.76-2.59c0-2.19,1.94-3.38,5.43-3.36v-.19a1.87,1.87,0,0,0-2.05-2.09,4.49,4.49,0,0,0-2.35.68l-.38-1.09a5.67,5.67,0,0,1,3-.8c2.76,0,3.43,1.89,3.43,3.69V72a12.84,12.84,0,0,0,.15,2.16Zm-.25-4.6c-1.79,0-3.82.28-3.82,2a1.46,1.46,0,0,0,1.55,1.57,2.25,2.25,0,0,0,2.18-1.52,1.54,1.54,0,0,0,.09-.52Z"/><path class="cls-2" d="M212.83,94.86a4.25,4.25,0,0,0,2.16.65c1.19,0,1.75-.59,1.75-1.34s-.46-1.21-1.68-1.66c-1.62-.58-2.38-1.47-2.38-2.55,0-1.46,1.17-2.65,3.11-2.65a4.49,4.49,0,0,1,2.22.56l-.41,1.19a3.58,3.58,0,0,0-1.85-.52c-1,0-1.51.56-1.51,1.23s.54,1.08,1.72,1.53c1.56.6,2.37,1.38,2.37,2.72,0,1.59-1.23,2.71-3.38,2.71a5.14,5.14,0,0,1-2.53-.62Z"/><path class="cls-2" d="M221,87.51l2,5.34c.21.59.43,1.3.58,1.84h0c.17-.54.35-1.23.58-1.88l1.79-5.3h1.73L225.26,94c-1.17,3.09-2,4.68-3.1,5.65a4.36,4.36,0,0,1-2,1.06l-.41-1.38a4.39,4.39,0,0,0,1.44-.8,5.2,5.2,0,0,0,1.38-1.83,1.33,1.33,0,0,0,.13-.39,1.41,1.41,0,0,0-.12-.43l-3.33-8.32Z"/><path class="cls-2" d="M228.87,94.86a4.32,4.32,0,0,0,2.17.65c1.19,0,1.75-.59,1.75-1.34s-.47-1.21-1.68-1.66c-1.62-.58-2.38-1.47-2.38-2.55,0-1.46,1.17-2.65,3.11-2.65a4.52,4.52,0,0,1,2.22.56l-.41,1.19a3.58,3.58,0,0,0-1.85-.52c-1,0-1.51.56-1.51,1.23s.54,1.08,1.72,1.53c1.56.6,2.37,1.38,2.37,2.72,0,1.59-1.24,2.71-3.38,2.71a5.21,5.21,0,0,1-2.54-.62Z"/><path class="cls-2" d="M238.46,84.92v2.59h2.35v1.25h-2.35v4.87c0,1.12.31,1.75,1.23,1.75a3.51,3.51,0,0,0,.95-.11l.07,1.23a4,4,0,0,1-1.45.23,2.29,2.29,0,0,1-1.77-.69,3.34,3.34,0,0,1-.64-2.35V88.76h-1.4V87.51h1.4V85.35Z"/><path class="cls-2" d="M243.45,92.33a2.9,2.9,0,0,0,3.1,3.13,6,6,0,0,0,2.5-.47l.27,1.18a7.27,7.27,0,0,1-3,.56,4.19,4.19,0,0,1-4.44-4.55c0-2.73,1.61-4.87,4.24-4.87,2.94,0,3.73,2.59,3.73,4.25a5.85,5.85,0,0,1-.06.77Zm4.81-1.18A2.34,2.34,0,0,0,246,88.48a2.72,2.72,0,0,0-2.52,2.67Z"/><path class="cls-2" d="M251.88,90c0-.93,0-1.7-.08-2.45h1.44l.07,1.46h.06a3.1,3.1,0,0,1,2.83-1.66,2.69,2.69,0,0,1,2.56,1.81h0a3.72,3.72,0,0,1,1-1.18,3.09,3.09,0,0,1,2-.63c1.19,0,3,.78,3,3.92v5.31h-1.6V91.43c0-1.73-.64-2.78-2-2.78a2.13,2.13,0,0,0-1.94,1.49,2.94,2.94,0,0,0-.13.82v5.58h-1.6V91.13c0-1.43-.64-2.48-1.89-2.48a2.24,2.24,0,0,0-2,1.64,2.4,2.4,0,0,0-.13.8v5.45h-1.6Z"/><path class="cls-2" d="M275.59,92a4.41,4.41,0,0,1-4.49,4.79,4.29,4.29,0,0,1-4.33-4.64c0-3,2-4.79,4.47-4.79S275.59,89.19,275.59,92Zm-7.16.1c0,2,1.14,3.46,2.74,3.46s2.74-1.47,2.74-3.5c0-1.53-.76-3.47-2.7-3.47S268.43,90.33,268.43,92.05Zm5.2-8.43-2.27,2.66h-1.18l1.64-2.66Z"/><path class="cls-2" d="M278.18,87.51l1.19,4.59c.26,1,.5,1.94.67,2.87h.06c.2-.91.5-1.88.8-2.85l1.47-4.61h1.38l1.4,4.52c.34,1.08.6,2,.8,2.94H286a26.88,26.88,0,0,1,.69-2.92L288,87.51h1.62l-2.91,9h-1.49l-1.38-4.31a28,28,0,0,1-.8-3h0a27.47,27.47,0,0,1-.82,3l-1.46,4.29h-1.49l-2.72-9Z"/><path class="cls-2" d="M219.48,118.57a6,6,0,0,1-2.59.52,4.28,4.28,0,0,1-4.49-4.6,4.58,4.58,0,0,1,4.84-4.79,5.6,5.6,0,0,1,2.28.46l-.37,1.27a3.86,3.86,0,0,0-1.91-.43,3.4,3.4,0,0,0-.05,6.79,4.55,4.55,0,0,0,2-.45Z"/><path class="cls-2" d="M223.23,107.35a1,1,0,0,1-2,0,1,1,0,0,1,1-1A1,1,0,0,1,223.23,107.35Zm-1.83,11.56v-9H223v9Z"/><path class="cls-2" d="M226.68,114.69a2.89,2.89,0,0,0,3.09,3.14,6,6,0,0,0,2.5-.47l.28,1.17a7.18,7.18,0,0,1-3,.56,4.19,4.19,0,0,1-4.44-4.55c0-2.72,1.6-4.86,4.23-4.86,2.95,0,3.73,2.59,3.73,4.25,0,.33,0,.6,0,.76Zm4.81-1.17c0-1-.43-2.67-2.28-2.67a2.72,2.72,0,0,0-2.52,2.67Z"/><path class="cls-2" d="M235.1,112.83c0-1.16,0-2.09-.07-3h1.47l.07,1.55h0a3.54,3.54,0,0,1,3.21-1.75c2.18,0,3.82,1.84,3.82,4.58,0,3.25-2,4.85-4.1,4.85a3.16,3.16,0,0,1-2.78-1.41h0v4.9H235.1Zm1.62,2.4a3.52,3.52,0,0,0,.08.68,2.53,2.53,0,0,0,2.46,1.92c1.73,0,2.74-1.42,2.74-3.49,0-1.81-.95-3.36-2.69-3.36a2.63,2.63,0,0,0-2.48,2,2.84,2.84,0,0,0-.11.67Z"/><path class="cls-2" d="M245.78,118.91v-5.37l-1.27,1.08v-1.29l1.27-1.1v-6.56h1.64V111l1.33-1.13v1.3l-1.33,1.14v6.62Z"/><path class="cls-2" d="M258.38,114.32a4.41,4.41,0,0,1-4.49,4.79,4.29,4.29,0,0,1-4.33-4.64c0-3,2-4.79,4.48-4.79S258.38,111.56,258.38,114.32Zm-7.16.09c0,2,1.14,3.47,2.74,3.47s2.75-1.47,2.75-3.5c0-1.53-.77-3.47-2.71-3.47S251.22,112.7,251.22,114.41Z"/><path class="cls-2" d="M261,109.88l1.2,4.59c.26,1,.5,1.94.67,2.87h.05c.21-.91.51-1.88.81-2.85l1.47-4.61h1.38l1.4,4.52c.33,1.08.59,2,.8,2.94h.05c.15-.91.4-1.86.69-2.93l1.29-4.53h1.62l-2.91,9H268l-1.38-4.31c-.31-1-.58-1.9-.8-3h0a25.37,25.37,0,0,1-.82,3l-1.45,4.29H262l-2.73-9Z"/><path class="cls-2" d="M274,112.33c0-.94,0-1.7-.08-2.45h1.46l.09,1.49h0a3.33,3.33,0,0,1,3-1.69c1.25,0,3.19.74,3.19,3.84v5.39h-1.64v-5.2c0-1.46-.54-2.67-2.09-2.67a2.33,2.33,0,0,0-2.2,1.68,2.44,2.44,0,0,0-.11.76v5.43H274Z"/><path class="cls-2" d="M286.21,107.35a1,1,0,0,1-2,0,1,1,0,0,1,1-1A1,1,0,0,1,286.21,107.35Zm-1.83,11.56v-9H286v9Z"/><path class="cls-2" d="M295.18,118.57a6,6,0,0,1-2.59.52,4.28,4.28,0,0,1-4.5-4.6,4.58,4.58,0,0,1,4.85-4.79,5.6,5.6,0,0,1,2.28.46l-.38,1.27a3.82,3.82,0,0,0-1.9-.43,3.4,3.4,0,0,0-.05,6.79,4.59,4.59,0,0,0,2-.45Z"/><path class="cls-2" d="M296.07,118l4.08-5.32,1.18-1.4v0h-4.89v-1.33h6.88v1l-4,5.24c-.37.5-.75.95-1.16,1.42v0h5.28v1.31h-7.33Z"/><path class="cls-2" d="M306.12,109.88l2,5.34c.21.59.43,1.3.58,1.84h0c.17-.54.35-1.23.58-1.88l1.79-5.3h1.73l-2.46,6.44c-1.18,3.09-2,4.68-3.1,5.65a4.57,4.57,0,0,1-2,1.06l-.41-1.38a4.39,4.39,0,0,0,1.44-.8,5.2,5.2,0,0,0,1.38-1.83,1.33,1.33,0,0,0,.13-.39,1.28,1.28,0,0,0-.12-.43l-3.33-8.32Z"/><path class="cls-2" d="M320.55,118.57a6,6,0,0,1-2.6.52,4.28,4.28,0,0,1-4.49-4.6,4.58,4.58,0,0,1,4.85-4.79,5.5,5.5,0,0,1,2.27.46l-.37,1.27a3.85,3.85,0,0,0-1.9-.43,3.4,3.4,0,0,0-.06,6.79,4.6,4.6,0,0,0,2-.45Z"/><path class="cls-2" d="M322.46,105.67h1.65v5.63h0a3,3,0,0,1,1.18-1.16,3.35,3.35,0,0,1,1.68-.46c1.21,0,3.15.74,3.15,3.86v5.37h-1.64v-5.19c0-1.45-.54-2.68-2.09-2.68a2.34,2.34,0,0,0-2.2,1.64,1.87,1.87,0,0,0-.11.78v5.45h-1.65Z"/><path class="cls-2" d="M62.1,223.13a15.71,15.71,0,0,1,3-.26,5.21,5.21,0,0,1,3.46.92,2.63,2.63,0,0,1,1,2.22,3,3,0,0,1-2.13,2.76v0A3.25,3.25,0,0,1,70,232,3.39,3.39,0,0,1,69,234.49c-.87.8-2.29,1.17-4.35,1.17a18.06,18.06,0,0,1-2.52-.15Zm1.63,5.16H65.2c1.72,0,2.73-.9,2.73-2.11,0-1.48-1.12-2.06-2.77-2.06a7.44,7.44,0,0,0-1.43.11Zm0,6a8.21,8.21,0,0,0,1.36.07c1.68,0,3.23-.61,3.23-2.44s-1.48-2.43-3.25-2.43H63.73Z"/><path class="cls-2" d="M79.73,233.09c0,.93,0,1.75.08,2.46H78.35l-.09-1.47h0a3.42,3.42,0,0,1-3,1.68c-1.42,0-3.12-.79-3.12-4v-5.29h1.65v5c0,1.72.52,2.87,2,2.87a2.38,2.38,0,0,0,2.17-1.49,2.46,2.46,0,0,0,.15-.84v-5.55h1.64Z"/><path class="cls-2" d="M90.27,222.29v10.93c0,.8,0,1.72.07,2.33H88.87L88.79,234h0a3.33,3.33,0,0,1-3.08,1.78c-2.18,0-3.86-1.85-3.86-4.6,0-3,1.84-4.85,4-4.85a3,3,0,0,1,2.73,1.38h0v-5.4Zm-1.65,7.9a3.3,3.3,0,0,0-.07-.69,2.41,2.41,0,0,0-2.37-1.9c-1.7,0-2.71,1.49-2.71,3.49,0,1.83.89,3.34,2.67,3.34a2.48,2.48,0,0,0,2.41-2,3.17,3.17,0,0,0,.07-.71Z"/><path class="cls-2" d="M101.17,231a4.42,4.42,0,0,1-4.5,4.8,4.3,4.3,0,0,1-4.33-4.65c0-3,2-4.8,4.48-4.8S101.17,228.19,101.17,231Zm-7.17.09c0,2,1.14,3.47,2.75,3.47s2.74-1.47,2.74-3.51c0-1.53-.76-3.47-2.71-3.47S94,229.33,94,231.05Z"/><path class="cls-2" d="M103.77,226.51l1.2,4.6c.26,1,.5,1.94.67,2.87h.06c.2-.91.5-1.88.8-2.85l1.47-4.62h1.39l1.4,4.52c.33,1.09.59,2,.8,2.95h.06a25.33,25.33,0,0,1,.69-2.93l1.28-4.54h1.63l-2.91,9h-1.5l-1.38-4.31a28.8,28.8,0,0,1-.8-3h0a26.09,26.09,0,0,1-.82,3l-1.46,4.29h-1.49l-2.73-9Z"/><path class="cls-2" d="M121.8,235.55l-.14-1.14h0a3.39,3.39,0,0,1-2.77,1.35,2.57,2.57,0,0,1-2.76-2.6c0-2.18,1.94-3.38,5.43-3.36v-.19a1.86,1.86,0,0,0-2.05-2.09,4.49,4.49,0,0,0-2.35.67l-.38-1.08a5.58,5.58,0,0,1,3-.8c2.77,0,3.44,1.88,3.44,3.7v3.37a12.89,12.89,0,0,0,.15,2.17Zm-.25-4.61c-1.79,0-3.83.28-3.83,2a1.45,1.45,0,0,0,1.55,1.57,2.24,2.24,0,0,0,2.19-1.51,2,2,0,0,0,.09-.52Z"/><path class="cls-2" d="M129.75,229c0-.93,0-1.7-.07-2.45h1.45l.1,1.5h0a3.33,3.33,0,0,1,3-1.7c1.25,0,3.2.74,3.2,3.84v5.4H135.8v-5.21c0-1.46-.54-2.67-2.09-2.67a2.34,2.34,0,0,0-2.2,1.68,2.27,2.27,0,0,0-.11.77v5.43h-1.65Z"/><path class="cls-2" d="M148.3,231a4.42,4.42,0,0,1-4.5,4.8,4.3,4.3,0,0,1-4.33-4.65c0-3,2-4.8,4.48-4.8S148.3,228.19,148.3,231Zm-7.17.09c0,2,1.14,3.47,2.74,3.47s2.75-1.47,2.75-3.51c0-1.53-.77-3.47-2.71-3.47S141.13,229.33,141.13,231.05Z"/><path class="cls-2" d="M150.9,226.51l1.19,4.6c.26,1,.51,1.94.67,2.87h.06c.2-.91.5-1.88.8-2.85l1.48-4.62h1.38l1.4,4.52c.34,1.09.6,2,.8,2.95h.06a27.58,27.58,0,0,1,.69-2.93l1.29-4.54h1.62l-2.91,9h-1.49l-1.39-4.31c-.31-1-.57-1.91-.8-3h0a26.09,26.09,0,0,1-.82,3l-1.45,4.29h-1.5l-2.72-9Z"/><path class="cls-2" d="M164.81,226.51l2,5.34c.21.6.43,1.31.58,1.85h0c.16-.54.35-1.23.58-1.88l1.79-5.31h1.74L169.05,233c-1.18,3.1-2,4.68-3.1,5.65a4.53,4.53,0,0,1-2,1.07l-.41-1.38a4.44,4.44,0,0,0,1.44-.81,4.89,4.89,0,0,0,1.38-1.83,1,1,0,0,0,.13-.39,1.31,1.31,0,0,0-.11-.43L163,226.51Z"/><path class="cls-2" d="M179.27,235.21a5.94,5.94,0,0,1-2.6.53,4.29,4.29,0,0,1-4.5-4.61,4.59,4.59,0,0,1,4.86-4.8,5.5,5.5,0,0,1,2.27.46l-.37,1.27a3.85,3.85,0,0,0-1.9-.43,3.41,3.41,0,0,0-.06,6.8,4.64,4.64,0,0,0,2-.45Z"/><path class="cls-2" d="M181.19,222.29h1.65v5.64h0a3.06,3.06,0,0,1,1.18-1.16,3.35,3.35,0,0,1,1.68-.46c1.21,0,3.16.74,3.16,3.86v5.38h-1.65v-5.19c0-1.46-.54-2.69-2.09-2.69a2.37,2.37,0,0,0-2.2,1.64,1.91,1.91,0,0,0-.11.79v5.45h-1.65Z"/><path class="cls-2" d="M61,257l4.09-5.32c.39-.49.76-.92,1.17-1.4v0H61.39v-1.32h6.89l0,1-4,5.25c-.37.51-.75.95-1.16,1.42v0h5.29V258H61Zm6.33-12-2.28,2.67H63.89L65.54,245Z"/><path class="cls-2" d="M70,251.75c0-1.07,0-2-.08-2.82H71.4l.06,1.77h.07a2.72,2.72,0,0,1,2.51-2,1.65,1.65,0,0,1,.46.06v1.55a2.25,2.25,0,0,0-2.76,2,4.34,4.34,0,0,0-.08.77V258H70Z"/><path class="cls-2" d="M84.14,253.37a4.42,4.42,0,0,1-4.5,4.8,4.29,4.29,0,0,1-4.33-4.65c0-3,2-4.8,4.48-4.8S84.14,250.61,84.14,253.37Zm-7.17.09c0,2,1.14,3.48,2.74,3.48s2.75-1.48,2.75-3.51c0-1.53-.77-3.48-2.71-3.48S77,251.75,77,253.46ZM82.18,245l-2.28,2.67H78.72L80.37,245Z"/><path class="cls-2" d="M94,244.7v10.93c0,.8,0,1.72.08,2.33H92.62l-.07-1.56h0a3.37,3.37,0,0,1-3.08,1.77c-2.19,0-3.87-1.85-3.87-4.59,0-3,1.85-4.86,4-4.86a3,3,0,0,1,2.73,1.38h0v-5.4Zm-1.64,7.9a2.76,2.76,0,0,0-.08-.69,2.42,2.42,0,0,0-2.37-1.9c-1.7,0-2.71,1.49-2.71,3.49,0,1.83.9,3.34,2.67,3.34a2.47,2.47,0,0,0,2.41-2,2.62,2.62,0,0,0,.08-.71Z"/><path class="cls-2" d="M97.66,253.74a2.9,2.9,0,0,0,3.1,3.14,6,6,0,0,0,2.51-.46l.28,1.17a7.36,7.36,0,0,1-3,.56,4.2,4.2,0,0,1-4.45-4.56c0-2.72,1.61-4.87,4.24-4.87,3,0,3.74,2.6,3.74,4.26a5.66,5.66,0,0,1-.06.76Zm4.82-1.17a2.34,2.34,0,0,0-2.28-2.67,2.72,2.72,0,0,0-2.52,2.67Z"/><path class="cls-2" d="M106.18,258v-5.37l-1.27,1.08v-1.29l1.27-1.1V244.7h1.64V250l1.33-1.14v1.31l-1.33,1.14V258Z"/><path class="cls-2" d="M116.21,253.07h0c.22-.32.54-.71.8-1l2.65-3.12h2l-3.49,3.71,4,5.32h-2l-3.12-4.33-.84.94V258h-1.63V244.7h1.63Z"/><path class="cls-2" d="M131.53,253.37a4.42,4.42,0,0,1-4.51,4.8,4.3,4.3,0,0,1-4.33-4.65c0-3,2-4.8,4.48-4.8S131.53,250.61,131.53,253.37Zm-7.18.09c0,2,1.14,3.48,2.75,3.48s2.74-1.48,2.74-3.51c0-1.53-.76-3.48-2.7-3.48S124.35,251.75,124.35,253.46Z"/><path class="cls-2" d="M141.39,248.93c0,.65-.08,1.38-.08,2.48v5.25c0,2.07-.41,3.34-1.29,4.13a4.77,4.77,0,0,1-3.28,1.08,5.79,5.79,0,0,1-3-.75l.41-1.25a5.13,5.13,0,0,0,2.65.71c1.68,0,2.92-.88,2.92-3.16v-1h0a3.24,3.24,0,0,1-2.88,1.51c-2.24,0-3.84-1.91-3.84-4.41,0-3.06,2-4.8,4.07-4.8a3,3,0,0,1,2.82,1.57h0l.08-1.36Zm-1.7,3.56a2.14,2.14,0,0,0-.1-.74A2.35,2.35,0,0,0,137.3,250c-1.57,0-2.69,1.33-2.69,3.42,0,1.77.89,3.25,2.67,3.25a2.41,2.41,0,0,0,2.28-1.68,3,3,0,0,0,.13-.88Z"/><path class="cls-2" d="M145,253.74a2.89,2.89,0,0,0,3.1,3.14,6,6,0,0,0,2.5-.46l.28,1.17a7.36,7.36,0,0,1-3,.56,4.2,4.2,0,0,1-4.44-4.56c0-2.72,1.6-4.87,4.24-4.87,3,0,3.73,2.6,3.73,4.26a5.66,5.66,0,0,1-.06.76Zm4.81-1.17a2.34,2.34,0,0,0-2.27-2.67,2.72,2.72,0,0,0-2.53,2.67Z"/><path class="cls-2" d="M153.4,251.37c0-.93,0-1.7-.08-2.44h1.46l.09,1.49h0a3.32,3.32,0,0,1,3-1.7c1.25,0,3.19.75,3.19,3.85V258h-1.64v-5.21c0-1.45-.54-2.67-2.09-2.67a2.34,2.34,0,0,0-2.21,1.68,2.55,2.55,0,0,0-.11.77V258H153.4Z"/><path class="cls-2" d="M164.68,253.74a2.9,2.9,0,0,0,3.1,3.14,5.93,5.93,0,0,0,2.5-.46l.28,1.17a7.36,7.36,0,0,1-3,.56,4.2,4.2,0,0,1-4.44-4.56c0-2.72,1.61-4.87,4.24-4.87,3,0,3.73,2.6,3.73,4.26a6,6,0,0,1-.05.76Zm4.82-1.17a2.34,2.34,0,0,0-2.28-2.67,2.72,2.72,0,0,0-2.52,2.67Z"/><path class="cls-2" d="M173.12,251.75c0-1.07,0-2-.07-2.82h1.43l.06,1.77h.07a2.74,2.74,0,0,1,2.51-2,1.6,1.6,0,0,1,.46.06v1.55a2.23,2.23,0,0,0-.56-.06,2.31,2.31,0,0,0-2.2,2.11,4.4,4.4,0,0,0-.07.77V258h-1.63Z"/><path class="cls-2" d="M184.14,258l-.13-1.13H184a3.35,3.35,0,0,1-2.76,1.34,2.57,2.57,0,0,1-2.76-2.6c0-2.18,1.94-3.38,5.43-3.36V252a1.86,1.86,0,0,0-2.05-2.1,4.56,4.56,0,0,0-2.36.68l-.37-1.09a5.67,5.67,0,0,1,3-.8c2.76,0,3.44,1.89,3.44,3.7v3.38a12.91,12.91,0,0,0,.14,2.16Zm-.24-4.61c-1.8,0-3.83.28-3.83,2a1.46,1.46,0,0,0,1.55,1.57,2.24,2.24,0,0,0,2.18-1.52,1.55,1.55,0,0,0,.1-.52Z"/><path class="cls-2" d="M194.58,257.63a6.11,6.11,0,0,1-2.59.52,4.3,4.3,0,0,1-4.51-4.61,4.6,4.6,0,0,1,4.86-4.8,5.41,5.41,0,0,1,2.28.47l-.37,1.27a3.78,3.78,0,0,0-1.91-.43,3.12,3.12,0,0,0-3.19,3.41,3.09,3.09,0,0,0,3.13,3.38,4.77,4.77,0,0,0,2-.44Z"/><path class="cls-2" d="M194.3,260.58a2.66,2.66,0,0,0,1.79-.69c.45-.52.62-1.23.62-3.4v-7.56h1.64v8.2c0,1.75-.28,2.89-1.08,3.71a4.16,4.16,0,0,1-2.8,1Zm4.24-14.19a1,1,0,0,1-1,1,1,1,0,0,1-1-1,1,1,0,0,1,1-1A1,1,0,0,1,198.54,246.39Z"/><path class="cls-2" d="M202.87,246.39a1,1,0,0,1-2,0,1,1,0,0,1,1-1A1,1,0,0,1,202.87,246.39ZM201,258v-9h1.65v9Z"/><path class="cls-2" d="M291.37,296.91a17.61,17.61,0,0,1,3.16-.27,5.56,5.56,0,0,1,3.69,1,2.84,2.84,0,0,1,1.11,2.37,3.19,3.19,0,0,1-2.27,2.95v0a3.46,3.46,0,0,1,2.77,3.36,3.61,3.61,0,0,1-1.14,2.69c-.93.86-2.45,1.26-4.64,1.26a20,20,0,0,1-2.68-.16Zm1.73,5.5h1.57c1.83,0,2.91-1,2.91-2.25,0-1.57-1.2-2.19-2.95-2.19a7.34,7.34,0,0,0-1.53.12Zm0,6.43a9.16,9.16,0,0,0,1.45.08c1.79,0,3.45-.66,3.45-2.61s-1.58-2.59-3.47-2.59H293.1Z"/><path class="cls-2" d="M310.17,307.53c0,1,0,1.87.07,2.63h-1.55l-.1-1.58h0a3.62,3.62,0,0,1-3.18,1.8c-1.52,0-3.33-.84-3.33-4.23v-5.63h1.75v5.34c0,1.83.56,3.06,2.15,3.06a2.51,2.51,0,0,0,2.31-1.59,2.57,2.57,0,0,0,.16-.9v-5.91h1.76Z"/><path class="cls-2" d="M321.4,296v11.65c0,.85,0,1.83.08,2.49h-1.57l-.08-1.68h0a3.58,3.58,0,0,1-3.29,1.9c-2.33,0-4.12-2-4.12-4.9,0-3.21,2-5.18,4.32-5.18a3.25,3.25,0,0,1,2.91,1.47h0V296Zm-1.75,8.42a3.11,3.11,0,0,0-.08-.74,2.59,2.59,0,0,0-2.53-2c-1.81,0-2.89,1.6-2.89,3.73,0,2,1,3.56,2.85,3.56a2.64,2.64,0,0,0,2.57-2.09,3.06,3.06,0,0,0,.08-.76Z"/><path class="cls-2" d="M333,305.26a4.72,4.72,0,0,1-4.8,5.12c-2.61,0-4.62-1.92-4.62-5,0-3.23,2.11-5.12,4.78-5.12S333,302.31,333,305.26Zm-7.65.1c0,2.11,1.22,3.7,2.93,3.7s2.93-1.57,2.93-3.74c0-1.64-.82-3.71-2.89-3.71S325.38,303.53,325.38,305.36Z"/><path class="cls-2" d="M335.8,300.52l1.27,4.9c.28,1.07.54,2.07.72,3.06h.06c.22-1,.54-2,.86-3l1.57-4.92h1.47l1.5,4.82c.36,1.15.64,2.17.85,3.14h.06a28.82,28.82,0,0,1,.74-3.12l1.38-4.84H348l-3.11,9.64h-1.59l-1.48-4.6c-.33-1.08-.61-2-.85-3.17h0a28.46,28.46,0,0,1-.88,3.19l-1.55,4.58h-1.59L334,300.52Z"/><path class="cls-2" d="M355,310.16l-.14-1.22h-.06a3.59,3.59,0,0,1-2.95,1.44,2.74,2.74,0,0,1-2.94-2.77c0-2.33,2.07-3.61,5.79-3.59v-.2a2,2,0,0,0-2.19-2.23,4.81,4.81,0,0,0-2.51.72l-.4-1.15a6,6,0,0,1,3.17-.86c2.95,0,3.66,2,3.66,3.94v3.61a13.58,13.58,0,0,0,.16,2.31Zm-.26-4.92c-1.91,0-4.08.3-4.08,2.17a1.55,1.55,0,0,0,1.65,1.67,2.4,2.4,0,0,0,2.33-1.61,1.84,1.84,0,0,0,.1-.56Z"/><path class="cls-2" d="M364.2,300.52l1.28,4.9c.28,1.07.54,2.07.71,3.06h.06c.22-1,.54-2,.86-3l1.57-4.92h1.48l1.49,4.82c.36,1.15.64,2.17.86,3.14h.06a28.64,28.64,0,0,1,.73-3.12l1.38-4.84h1.73l-3.11,9.64h-1.59l-1.47-4.6a32.06,32.06,0,0,1-.86-3.17h0a28.46,28.46,0,0,1-.88,3.19l-1.55,4.58h-1.59l-2.91-9.64Z"/><path class="cls-2" d="M379,300.52l2.11,5.69c.22.64.46,1.4.62,2h0c.18-.57.38-1.31.62-2l1.91-5.65h1.85l-2.63,6.87c-1.25,3.3-2.11,5-3.3,6a4.8,4.8,0,0,1-2.15,1.14l-.44-1.48a4.57,4.57,0,0,0,1.53-.85,5.26,5.26,0,0,0,1.47-2,1.26,1.26,0,0,0,.14-.42,1.53,1.53,0,0,0-.12-.46l-3.56-8.88Z"/><path class="cls-2" d="M387.43,308.36a4.54,4.54,0,0,0,2.31.7c1.27,0,1.87-.64,1.87-1.43s-.5-1.3-1.79-1.77c-1.74-.62-2.55-1.58-2.55-2.73,0-1.56,1.25-2.83,3.32-2.83a4.79,4.79,0,0,1,2.37.6l-.44,1.27a3.7,3.7,0,0,0-2-.56c-1,0-1.61.6-1.61,1.32s.58,1.15,1.83,1.63c1.67.64,2.53,1.47,2.53,2.91,0,1.69-1.31,2.89-3.6,2.89a5.48,5.48,0,0,1-2.71-.66Z"/><path class="cls-2" d="M395.55,303.67c0-1.24,0-2.24-.08-3.15h1.58l.07,1.65h0a3.81,3.81,0,0,1,3.43-1.87c2.33,0,4.08,2,4.08,4.9,0,3.46-2.11,5.18-4.38,5.18a3.39,3.39,0,0,1-3-1.52h0v5.24h-1.73Zm1.73,2.56a4,4,0,0,0,.08.72A2.7,2.7,0,0,0,400,309c1.85,0,2.93-1.51,2.93-3.72,0-1.93-1-3.59-2.87-3.59a2.81,2.81,0,0,0-2.65,2.17,2.85,2.85,0,0,0-.12.72Z"/><path class="cls-2" d="M415.61,305.26a4.72,4.72,0,0,1-4.8,5.12c-2.61,0-4.62-1.92-4.62-5,0-3.23,2.11-5.12,4.78-5.12S415.61,302.31,415.61,305.26Zm-7.65.1c0,2.11,1.21,3.7,2.93,3.7s2.92-1.57,2.92-3.74c0-1.64-.81-3.71-2.88-3.71S408,303.53,408,305.36Z"/><path class="cls-2" d="M418.38,300.52l1.27,4.9c.28,1.07.54,2.07.72,3.06h.06c.22-1,.54-2,.85-3l1.58-4.92h1.47l1.49,4.82c.36,1.15.64,2.17.86,3.14h.06a28.82,28.82,0,0,1,.74-3.12l1.37-4.84h1.73l-3.1,9.64h-1.6l-1.47-4.6a29.5,29.5,0,0,1-.85-3.17h0a28.46,28.46,0,0,1-.88,3.19l-1.55,4.58h-1.6l-2.9-9.64Z"/><path class="cls-2" d="M433.22,300.52l2.11,5.69c.22.64.45,1.4.61,2h0c.18-.57.38-1.31.62-2l1.91-5.65h1.85l-2.62,6.87c-1.26,3.3-2.12,5-3.31,6a4.75,4.75,0,0,1-2.15,1.14l-.44-1.48a4.48,4.48,0,0,0,1.53-.85,5.38,5.38,0,0,0,1.48-2,1.26,1.26,0,0,0,.14-.42,1.53,1.53,0,0,0-.12-.46l-3.57-8.88Z"/><path class="cls-2" d="M448.63,309.8a6.43,6.43,0,0,1-2.77.56,4.58,4.58,0,0,1-4.8-4.92,4.9,4.9,0,0,1,5.18-5.12,5.83,5.83,0,0,1,2.43.5l-.4,1.35a4,4,0,0,0-2-.46,3.34,3.34,0,0,0-3.4,3.65,3.3,3.3,0,0,0,3.34,3.6,5,5,0,0,0,2.15-.48Z"/><path class="cls-2" d="M450.68,296h1.76v6h0a3.15,3.15,0,0,1,1.25-1.23,3.58,3.58,0,0,1,1.79-.5c1.3,0,3.37.8,3.37,4.12v5.74h-1.76v-5.54c0-1.55-.57-2.87-2.23-2.87a2.53,2.53,0,0,0-2.35,1.76,2.06,2.06,0,0,0-.11.83v5.82h-1.76Z"/><path class="cls-2" d="M291.07,332.26a4.54,4.54,0,0,0,2.31.7c1.27,0,1.87-.64,1.87-1.43s-.5-1.3-1.79-1.77c-1.74-.62-2.55-1.58-2.55-2.73,0-1.56,1.25-2.83,3.32-2.83a4.76,4.76,0,0,1,2.37.6l-.44,1.27a3.7,3.7,0,0,0-2-.56c-1,0-1.61.6-1.61,1.32s.58,1.15,1.83,1.63c1.67.64,2.53,1.47,2.53,2.91,0,1.69-1.31,2.89-3.6,2.89a5.48,5.48,0,0,1-2.71-.66Z"/><path class="cls-2" d="M299.83,324.42l2.11,5.69c.22.64.46,1.4.62,2h0c.18-.58.38-1.32.61-2l1.92-5.65H307l-2.63,6.87c-1.25,3.3-2.11,5-3.31,6a4.7,4.7,0,0,1-2.15,1.14l-.43-1.48a4.67,4.67,0,0,0,1.53-.85,5.37,5.37,0,0,0,1.47-1.95,1.26,1.26,0,0,0,.14-.42,1.53,1.53,0,0,0-.12-.46l-3.56-8.88Z"/><path class="cls-2" d="M308.22,332.26a4.54,4.54,0,0,0,2.31.7c1.27,0,1.87-.64,1.87-1.43s-.5-1.3-1.79-1.77c-1.74-.62-2.55-1.58-2.55-2.73,0-1.56,1.25-2.83,3.32-2.83a4.79,4.79,0,0,1,2.37.6l-.44,1.27a3.73,3.73,0,0,0-2-.56c-1,0-1.61.6-1.61,1.32s.58,1.15,1.83,1.63c1.67.64,2.53,1.47,2.53,2.91,0,1.69-1.31,2.89-3.6,2.89a5.45,5.45,0,0,1-2.71-.66Z"/><path class="cls-2" d="M318.45,321.65v2.77H321v1.33h-2.51V331c0,1.19.34,1.87,1.32,1.87a3.89,3.89,0,0,0,1-.12l.08,1.32a4.25,4.25,0,0,1-1.55.24,2.4,2.4,0,0,1-1.89-.74,3.57,3.57,0,0,1-.68-2.51v-5.26h-1.49v-1.33h1.49v-2.31Z"/><path class="cls-2" d="M323.79,329.56a3.08,3.08,0,0,0,3.3,3.34,6.28,6.28,0,0,0,2.67-.5l.3,1.26a7.73,7.73,0,0,1-3.2.6c-3,0-4.74-2-4.74-4.86s1.71-5.2,4.52-5.2c3.14,0,4,2.77,4,4.54a6.64,6.64,0,0,1-.06.82Zm5.14-1.26c0-1.11-.46-2.85-2.43-2.85-1.77,0-2.55,1.64-2.69,2.85Z"/><path class="cls-2" d="M332.79,327c0-1,0-1.81-.08-2.61h1.54l.08,1.55h.06a3.31,3.31,0,0,1,3-1.77,2.85,2.85,0,0,1,2.73,1.93h0a3.94,3.94,0,0,1,1.08-1.25,3.26,3.26,0,0,1,2.13-.68c1.27,0,3.16.84,3.16,4.18v5.68h-1.71V328.6c0-1.85-.68-3-2.09-3a2.27,2.27,0,0,0-2.07,1.6,2.83,2.83,0,0,0-.14.87v6h-1.71v-5.78c0-1.53-.68-2.65-2-2.65a2.4,2.4,0,0,0-2.17,1.76,2.33,2.33,0,0,0-.14.85v5.82h-1.71Z"/><path class="cls-2" d="M358.13,329.16a4.72,4.72,0,0,1-4.8,5.12c-2.61,0-4.62-1.92-4.62-5,0-3.23,2.11-5.12,4.78-5.12S358.13,326.21,358.13,329.16Zm-7.65.1c0,2.11,1.21,3.7,2.93,3.7s2.92-1.57,2.92-3.74c0-1.63-.81-3.71-2.88-3.71S350.48,327.43,350.48,329.26Zm5.55-9-2.42,2.84h-1.26l1.75-2.84Z"/><path class="cls-2" d="M360.9,324.42l1.27,4.9c.28,1.07.54,2.07.72,3.06H363c.22-1,.54-2,.85-3l1.58-4.92h1.47l1.49,4.82c.36,1.15.64,2.17.86,3.14h.06a28.82,28.82,0,0,1,.74-3.12l1.37-4.84h1.73l-3.1,9.64h-1.6l-1.47-4.6a32.06,32.06,0,0,1-.86-3.17h0a28.47,28.47,0,0,1-.87,3.19l-1.56,4.58H362l-2.91-9.64Z"/><path class="cls-2" d="M298.18,357.6a6.47,6.47,0,0,1-2.77.56,4.58,4.58,0,0,1-4.8-4.92,4.9,4.9,0,0,1,5.18-5.12,5.87,5.87,0,0,1,2.43.5l-.4,1.35a4.07,4.07,0,0,0-2-.46,3.34,3.34,0,0,0-3.41,3.65,3.31,3.31,0,0,0,3.35,3.6,5.16,5.16,0,0,0,2.15-.47Z"/><path class="cls-2" d="M302.18,345.61a1.09,1.09,0,0,1-2.17,0,1.07,1.07,0,0,1,1.1-1.09A1,1,0,0,1,302.18,345.61ZM300.23,358v-9.64H302V358Z"/><path class="cls-2" d="M305.86,353.46a3.09,3.09,0,0,0,3.31,3.34,6.53,6.53,0,0,0,2.67-.49l.3,1.25a7.82,7.82,0,0,1-3.21.6c-3,0-4.74-2-4.74-4.86s1.71-5.2,4.52-5.2c3.15,0,4,2.77,4,4.54a4.87,4.87,0,0,1-.07.82ZM311,352.2c0-1.11-.46-2.84-2.43-2.84-1.77,0-2.55,1.63-2.69,2.84Z"/><path class="cls-2" d="M314.87,351.47c0-1.24,0-2.23-.08-3.15h1.57l.08,1.65h0a3.8,3.8,0,0,1,3.43-1.87c2.33,0,4.08,2,4.08,4.9,0,3.46-2.11,5.18-4.38,5.18a3.38,3.38,0,0,1-3-1.52h0v5.24h-1.73ZM316.6,354a4,4,0,0,0,.08.71,2.7,2.7,0,0,0,2.63,2.05c1.85,0,2.93-1.51,2.93-3.72,0-1.93-1-3.58-2.87-3.58a2.79,2.79,0,0,0-2.65,2.17,2.7,2.7,0,0,0-.12.71Z"/><path class="cls-2" d="M326.28,358v-5.74l-1.35,1.16V352l1.35-1.17v-7H328v5.68l1.42-1.22v1.39L328,350.89V358Z"/><path class="cls-2" d="M339.74,353.06a4.72,4.72,0,0,1-4.8,5.12c-2.61,0-4.62-1.91-4.62-5,0-3.23,2.11-5.12,4.78-5.12S339.74,350.11,339.74,353.06Zm-7.64.1c0,2.11,1.21,3.7,2.92,3.7s2.93-1.57,2.93-3.74c0-1.63-.82-3.7-2.89-3.7S332.1,351.33,332.1,353.16Z"/><path class="cls-2" d="M342.51,348.32l1.28,4.9c.28,1.07.53,2.07.71,3.07h.06c.22-1,.54-2,.86-3.05l1.57-4.92h1.48l1.49,4.82c.36,1.15.64,2.17.86,3.15h.05a28.42,28.42,0,0,1,.74-3.13l1.38-4.84h1.73L351.61,358H350l-1.47-4.6a32.06,32.06,0,0,1-.86-3.17h0a28.46,28.46,0,0,1-.88,3.19L345.22,358h-1.59l-2.91-9.64Z"/><path class="cls-2" d="M356.47,350.93c0-1,0-1.81-.08-2.61H358l.1,1.59h0a3.55,3.55,0,0,1,3.18-1.81c1.34,0,3.41.8,3.41,4.1V358h-1.75V352.4c0-1.55-.58-2.85-2.23-2.85a2.58,2.58,0,0,0-2.47,2.61V358h-1.76Z"/><path class="cls-2" d="M369.48,345.61a1.09,1.09,0,0,1-2.17,0,1.07,1.07,0,0,1,1.09-1.09A1,1,0,0,1,369.48,345.61Zm-2,12.35v-9.64h1.75V358Z"/><path class="cls-2" d="M379.06,357.6a6.47,6.47,0,0,1-2.77.56,4.58,4.58,0,0,1-4.8-4.92,4.9,4.9,0,0,1,5.18-5.12,5.87,5.87,0,0,1,2.43.5l-.4,1.35a4.07,4.07,0,0,0-2-.46,3.34,3.34,0,0,0-3.41,3.65,3.31,3.31,0,0,0,3.35,3.6,5.16,5.16,0,0,0,2.15-.47Z"/><path class="cls-2" d="M380,356.94l4.36-5.67c.41-.52.81-1,1.25-1.5v0h-5.22v-1.41h7.35l0,1.1-4.3,5.59c-.4.54-.8,1-1.23,1.51v0h5.63V358H380Z"/><path class="cls-2" d="M390.75,348.32l2.11,5.7c.22.63.46,1.39.62,2h0c.18-.58.38-1.32.62-2l1.91-5.66h1.85l-2.63,6.87c-1.25,3.31-2.11,5-3.3,6a4.8,4.8,0,0,1-2.15,1.14l-.44-1.48a4.4,4.4,0,0,0,1.53-.85,5.26,5.26,0,0,0,1.47-1.95,1.26,1.26,0,0,0,.14-.42,1.53,1.53,0,0,0-.12-.46l-3.56-8.88Z"/><path class="cls-2" d="M406.16,357.6a6.37,6.37,0,0,1-2.76.56,4.58,4.58,0,0,1-4.8-4.92,4.9,4.9,0,0,1,5.18-5.12,5.78,5.78,0,0,1,2.42.5l-.39,1.35a4.07,4.07,0,0,0-2-.46,3.34,3.34,0,0,0-3.41,3.65,3.3,3.3,0,0,0,3.35,3.6,5.16,5.16,0,0,0,2.15-.47Z"/><path class="cls-2" d="M408.22,343.82H410v6h0a3.36,3.36,0,0,1,1.25-1.23,3.62,3.62,0,0,1,1.8-.5c1.29,0,3.36.8,3.36,4.12V358h-1.75v-5.54c0-1.55-.58-2.87-2.23-2.87a2.52,2.52,0,0,0-2.35,1.76,2.08,2.08,0,0,0-.12.83V358h-1.75Z"/></g></g></svg>