<svg xmlns="http://www.w3.org/2000/svg" viewBox="0 0 510.7 163.81"><defs><style>.cls-1{fill:none;stroke:#223e78;stroke-miterlimit:10;stroke-width:3px;}.cls-2{fill:#ed7333;}.cls-3{fill:#223e78;}.cls-4{fill:#fff;}</style></defs><g id="Warstwa_2" data-name="Warstwa 2"><g id="Layer_1" data-name="Layer 1"><ellipse class="cls-1" cx="255.92" cy="83.56" rx="101.05" ry="78.75"/><rect class="cls-2" x="127.38" width="257.62" height="38.25" rx="14.17"/><rect class="cls-3" x="14.09" y="55.22" width="219.33" height="37.27" rx="12.91"/><path class="cls-4" d="M149.92,19.57h-4.53v4.2h5.05V25h-6.55V13.38h6.29v1.26h-4.79v3.69h4.53Z"/><path class="cls-4" d="M152.49,25V17.83h-1.17V16.67h1.17v-.4a3.92,3.92,0,0,1,1-2.92,2.88,2.88,0,0,1,2-.78,3.58,3.58,0,0,1,1.3.24L156.59,14a2.21,2.21,0,0,0-1-.19c-1.3,0-1.62,1.14-1.62,2.42v.45h2v1.16h-2V25Z"/><path class="cls-4" d="M158,21.13a2.68,2.68,0,0,0,2.87,2.9,5.55,5.55,0,0,0,2.32-.43l.26,1.09a6.81,6.81,0,0,1-2.78.52A3.89,3.89,0,0,1,156.55,21c0-2.52,1.49-4.51,3.93-4.51,2.73,0,3.45,2.4,3.45,3.94a5.41,5.41,0,0,1-.05.71ZM162.46,20a2.16,2.16,0,0,0-2.1-2.47A2.52,2.52,0,0,0,158,20Z"/><path class="cls-4" d="M167.32,20.51h0c.21-.3.51-.66.75-1l2.45-2.88h1.84l-3.24,3.44L172.83,25H171l-2.88-4-.78.87V25h-1.5V12.76h1.5Z"/><path class="cls-4" d="M175.75,14.26v2.41h2.18v1.16h-2.18v4.51c0,1,.3,1.62,1.14,1.62a3.56,3.56,0,0,0,.89-.1l.07,1.14a3.8,3.8,0,0,1-1.35.21,2.15,2.15,0,0,1-1.65-.64,3.13,3.13,0,0,1-.58-2.18V17.83H173V16.67h1.3v-2Z"/><path class="cls-4" d="M180.35,16.67l1.83,4.94c.19.56.4,1.21.54,1.71h0c.16-.5.33-1.14.54-1.74L185,16.67h1.61l-2.29,6c-1.09,2.87-1.83,4.34-2.87,5.24a4.09,4.09,0,0,1-1.86,1l-.38-1.28a4,4,0,0,0,1.33-.75,4.69,4.69,0,0,0,1.28-1.69,1.13,1.13,0,0,0,.12-.36,1.35,1.35,0,0,0-.11-.4l-3.09-7.71Z"/><path class="cls-4" d="M188.75,16.67l1.1,4.25c.25.93.47,1.8.63,2.66h.05c.19-.84.47-1.74.74-2.64l1.37-4.27h1.28l1.29,4.18c.32,1,.56,1.89.75,2.73h0a24.8,24.8,0,0,1,.64-2.71l1.19-4.2h1.51L196.65,25h-1.38L194,21a26.41,26.41,0,0,1-.75-2.75h0a25.89,25.89,0,0,1-.76,2.77l-1.35,4h-1.38l-2.53-8.37Z"/><path class="cls-4" d="M200.86,18.93c0-.86,0-1.57-.07-2.26h1.35l.09,1.38h0A3.1,3.1,0,0,1,205,16.48c1.16,0,3,.69,3,3.56v5h-1.53V20.21c0-1.35-.5-2.47-1.93-2.47A2.26,2.26,0,0,0,202.38,20v5h-1.52Z"/><path class="cls-4" d="M210.78,16.67l1.84,4.94c.18.56.39,1.21.53,1.71h0c.15-.5.32-1.14.53-1.74l1.66-4.91H217l-2.28,6c-1.09,2.87-1.84,4.34-2.87,5.24a4.16,4.16,0,0,1-1.87,1l-.38-1.28a4,4,0,0,0,1.33-.75,4.58,4.58,0,0,0,1.28-1.69,1.13,1.13,0,0,0,.12-.36,1.25,1.25,0,0,0-.1-.4l-3.1-7.71Z"/><path class="cls-4" d="M221.83,23.48a4,4,0,0,0,2,.6c1.11,0,1.63-.55,1.63-1.24s-.44-1.12-1.56-1.54c-1.5-.54-2.21-1.36-2.21-2.37,0-1.35,1.09-2.45,2.88-2.45a4.15,4.15,0,0,1,2.06.52l-.38,1.1a3.32,3.32,0,0,0-1.71-.48c-.9,0-1.4.52-1.4,1.14s.5,1,1.59,1.42c1.45.55,2.2,1.28,2.2,2.52,0,1.47-1.15,2.51-3.13,2.51a4.87,4.87,0,0,1-2.36-.57Z"/><path class="cls-4" d="M229.43,16.67l1.83,4.94c.19.56.4,1.21.54,1.71h0c.16-.5.33-1.14.54-1.74L234,16.67h1.61l-2.29,6c-1.09,2.87-1.83,4.34-2.87,5.24a4.09,4.09,0,0,1-1.86,1l-.38-1.28a4,4,0,0,0,1.33-.75,4.69,4.69,0,0,0,1.28-1.69,1.13,1.13,0,0,0,.12-.36,1.35,1.35,0,0,0-.11-.4l-3.09-7.71Z"/><path class="cls-4" d="M236.7,23.48a4,4,0,0,0,2,.6c1.11,0,1.63-.55,1.63-1.24s-.44-1.12-1.56-1.54c-1.5-.54-2.21-1.36-2.21-2.37,0-1.35,1.09-2.45,2.88-2.45a4.15,4.15,0,0,1,2.06.52l-.38,1.1a3.32,3.32,0,0,0-1.71-.48c-.9,0-1.4.52-1.4,1.14s.5,1,1.59,1.42c1.45.55,2.19,1.28,2.19,2.52,0,1.47-1.14,2.51-3.12,2.51a4.87,4.87,0,0,1-2.36-.57Z"/><path class="cls-4" d="M245.59,14.26v2.41h2.18v1.16h-2.18v4.51c0,1,.29,1.62,1.14,1.62a3.47,3.47,0,0,0,.88-.1l.07,1.14a3.72,3.72,0,0,1-1.35.21,2.11,2.11,0,0,1-1.64-.64,3.12,3.12,0,0,1-.59-2.18V17.83h-1.29V16.67h1.29v-2Z"/><path class="cls-4" d="M250.22,21.13a2.67,2.67,0,0,0,2.87,2.9,5.55,5.55,0,0,0,2.32-.43l.26,1.09a6.87,6.87,0,0,1-2.79.52A3.89,3.89,0,0,1,248.77,21c0-2.52,1.48-4.51,3.92-4.51,2.73,0,3.46,2.4,3.46,3.94a5.41,5.41,0,0,1,0,.71ZM254.68,20a2.16,2.16,0,0,0-2.11-2.47A2.51,2.51,0,0,0,250.24,20Z"/><path class="cls-4" d="M258,18.93c0-.86,0-1.57-.07-2.26h1.33l.07,1.35h.05A2.89,2.89,0,0,1,262,16.48a2.47,2.47,0,0,1,2.37,1.67h0a3.35,3.35,0,0,1,.94-1.08,2.79,2.79,0,0,1,1.85-.59c1.1,0,2.75.72,2.75,3.63V25h-1.49V20.3c0-1.61-.59-2.58-1.81-2.58a2,2,0,0,0-1.8,1.39,2.42,2.42,0,0,0-.12.76V25h-1.49V20c0-1.33-.59-2.3-1.75-2.3a2.26,2.26,0,0,0-2,2.27V25H258Z"/><path class="cls-4" d="M277,21.13a2.68,2.68,0,0,0,2.87,2.9,5.55,5.55,0,0,0,2.32-.43l.26,1.09a6.81,6.81,0,0,1-2.78.52A3.89,3.89,0,0,1,275.5,21c0-2.52,1.49-4.51,3.93-4.51,2.73,0,3.45,2.4,3.45,3.94a5.41,5.41,0,0,1-.05.71ZM281.41,20a2.16,2.16,0,0,0-2.11-2.47A2.52,2.52,0,0,0,277,20Z"/><path class="cls-4" d="M284.76,18.93c0-.86,0-1.57-.06-2.26H286l.09,1.38h0a3.07,3.07,0,0,1,2.76-1.57c1.16,0,3,.69,3,3.56v5h-1.52V20.21c0-1.35-.5-2.47-1.94-2.47A2.22,2.22,0,0,0,286.29,20v5h-1.53Z"/><path class="cls-4" d="M295.2,21.13a2.68,2.68,0,0,0,2.87,2.9,5.55,5.55,0,0,0,2.32-.43l.26,1.09a6.81,6.81,0,0,1-2.78.52A3.89,3.89,0,0,1,293.75,21c0-2.52,1.49-4.51,3.93-4.51,2.73,0,3.45,2.4,3.45,3.94a5.41,5.41,0,0,1-.05.71ZM299.66,20a2.16,2.16,0,0,0-2.11-2.47A2.52,2.52,0,0,0,295.22,20Z"/><path class="cls-4" d="M303,19.28c0-1,0-1.83-.06-2.61h1.33l.05,1.64h.07a2.51,2.51,0,0,1,2.32-1.83,1.88,1.88,0,0,1,.43.05V18a2.62,2.62,0,0,0-.52-.05,2.14,2.14,0,0,0-2,2,3.71,3.71,0,0,0-.07.71V25H303Z"/><path class="cls-4" d="M315.74,16.67c0,.6-.07,1.28-.07,2.3v4.86c0,1.91-.38,3.09-1.2,3.82a4.42,4.42,0,0,1-3,1,5.38,5.38,0,0,1-2.78-.69L309,26.8a4.76,4.76,0,0,0,2.45.66c1.56,0,2.7-.82,2.7-2.93V23.6h0a3,3,0,0,1-2.67,1.4c-2.07,0-3.56-1.76-3.56-4.08,0-2.84,1.85-4.44,3.77-4.44a2.78,2.78,0,0,1,2.61,1.45h0l.07-1.26ZM314.16,20a2.15,2.15,0,0,0-.08-.69A2.2,2.2,0,0,0,312,17.67c-1.45,0-2.49,1.23-2.49,3.16,0,1.65.83,3,2.47,3A2.23,2.23,0,0,0,314,22.29a2.59,2.59,0,0,0,.12-.82Z"/><path class="cls-4" d="M319,21.13a2.67,2.67,0,0,0,2.87,2.9,5.53,5.53,0,0,0,2.31-.43l.26,1.09a6.81,6.81,0,0,1-2.78.52A3.89,3.89,0,0,1,317.58,21c0-2.52,1.49-4.51,3.93-4.51,2.73,0,3.46,2.4,3.46,3.94a5.08,5.08,0,0,1-.06.71ZM323.5,20a2.17,2.17,0,0,0-2.11-2.47A2.52,2.52,0,0,0,319.05,20Z"/><path class="cls-4" d="M328.68,14.26v2.41h2.18v1.16h-2.18v4.51c0,1,.29,1.62,1.14,1.62a3.47,3.47,0,0,0,.88-.1l.07,1.14a3.72,3.72,0,0,1-1.35.21,2.11,2.11,0,0,1-1.64-.64,3.12,3.12,0,0,1-.59-2.18V17.83H325.9V16.67h1.29v-2Z"/><path class="cls-4" d="M333.27,16.67l1.84,4.94c.19.56.4,1.21.53,1.71h0c.15-.5.33-1.14.53-1.74l1.66-4.91h1.61l-2.28,6c-1.09,2.87-1.83,4.34-2.87,5.24a4.11,4.11,0,0,1-1.87,1l-.38-1.28a4,4,0,0,0,1.33-.75,4.48,4.48,0,0,0,1.28-1.69,1.13,1.13,0,0,0,.12-.36,1.25,1.25,0,0,0-.1-.4l-3.1-7.71Z"/><path class="cls-4" d="M346.65,24.72a5.52,5.52,0,0,1-2.4.49,4,4,0,0,1-4.17-4.27,4.25,4.25,0,0,1,4.5-4.44,5.07,5.07,0,0,1,2.11.43l-.35,1.17a3.6,3.6,0,0,0-1.76-.39,2.89,2.89,0,0,0-3,3.16A2.88,2.88,0,0,0,344.53,24a4.29,4.29,0,0,0,1.86-.42Z"/><path class="cls-4" d="M347.48,24.15l3.79-4.92c.36-.45.7-.85,1.08-1.3v0h-4.52V16.67h6.37v.95l-3.74,4.86c-.34.46-.69.88-1.07,1.31v0h4.89V25h-6.79Z"/><path class="cls-4" d="M355.83,18.93c0-.86,0-1.57-.07-2.26h1.35l.08,1.38h0A3.07,3.07,0,0,1,360,16.48c1.16,0,3,.69,3,3.56v5h-1.52V20.21c0-1.35-.5-2.47-1.94-2.47A2.22,2.22,0,0,0,357.35,20v5h-1.52Z"/><path class="cls-4" d="M365.75,16.67l1.83,4.94c.19.56.4,1.21.53,1.71h0c.15-.5.33-1.14.53-1.74l1.67-4.91H372l-2.28,6c-1.09,2.87-1.83,4.34-2.87,5.24a4.11,4.11,0,0,1-1.87,1l-.38-1.28a4,4,0,0,0,1.33-.75,4.48,4.48,0,0,0,1.28-1.69,1.13,1.13,0,0,0,.12-.36,1.25,1.25,0,0,0-.1-.4l-3.09-7.71Z"/><path class="cls-4" d="M46.34,74.26c-.08-1.58-.18-3.48-.17-4.9h-.05c-.38,1.33-.86,2.75-1.43,4.31l-2,5.51H41.57l-1.83-5.4c-.54-1.61-1-3.07-1.32-4.42h0c0,1.42-.12,3.32-.22,5l-.3,4.87h-1.4l.79-11.35h1.87l1.94,5.49c.47,1.4.86,2.64,1.15,3.82h.05c.28-1.14.69-2.39,1.19-3.82l2-5.49h1.87l.71,11.35H46.63Z"/><path class="cls-4" d="M52.12,68.81a.92.92,0,0,1-1.84,0,.9.9,0,0,1,.93-.93A.88.88,0,0,1,52.12,68.81ZM50.47,79.25V71.1H52v8.15Z"/><path class="cls-4" d="M54.41,73.3c0-.84,0-1.53-.07-2.2h1.31l.09,1.34h0a3,3,0,0,1,2.7-1.53c1.12,0,2.88.67,2.88,3.47v4.87H59.86v-4.7c0-1.31-.48-2.41-1.88-2.41a2.1,2.1,0,0,0-2,1.52,2,2,0,0,0-.1.69v4.9H54.41Z"/><path class="cls-4" d="M63.4,78.37a1,1,0,0,1,1-1.06,1.07,1.07,0,0,1,0,2.13A1,1,0,0,1,63.4,78.37Z"/><path class="cls-4" d="M76.87,69.55H72.7l-.43,2.81a6.45,6.45,0,0,1,.9-.07,4.7,4.7,0,0,1,2.36.59,3.14,3.14,0,0,1,1.56,2.82A3.8,3.8,0,0,1,73,79.44a5.31,5.31,0,0,1-2.73-.68l.37-1.13a4.85,4.85,0,0,0,2.34.61,2.41,2.41,0,0,0,2.59-2.38c0-1.41-1-2.42-3.15-2.42a11.25,11.25,0,0,0-1.51.12l.7-5.26h5.24Z"/><path class="cls-4" d="M86.25,73.66c0,3.72-1.38,5.78-3.8,5.78-2.14,0-3.59-2-3.63-5.63s1.59-5.69,3.81-5.69S86.25,70.17,86.25,73.66Zm-5.94.17c0,2.84.87,4.46,2.22,4.46,1.52,0,2.24-1.77,2.24-4.57s-.69-4.46-2.22-4.46C81.25,69.26,80.31,70.84,80.31,73.83Z"/><path class="cls-4" d="M92.55,71.38c0,2.31-1.21,3.46-2.63,3.46s-2.54-1.1-2.56-3.3,1.2-3.42,2.65-3.42S92.55,69.29,92.55,71.38Zm-4,.1c0,1.4.49,2.46,1.42,2.46s1.41-1,1.41-2.49S91,69,90,69,88.54,70.1,88.54,71.48Zm1.28,8,6.44-11.32h.94L90.77,79.44Zm9.86-3.53c0,2.31-1.22,3.46-2.61,3.46s-2.55-1.1-2.56-3.29,1.19-3.43,2.64-3.43S99.68,73.83,99.68,75.91Zm-4,.11c0,1.39.52,2.45,1.43,2.45s1.41-1,1.41-2.49-.38-2.44-1.41-2.44S95.67,74.63,95.67,76Z"/><path class="cls-4" d="M105,73.3c0-.84,0-1.53-.07-2.2h1.29l.07,1.31h0a2.83,2.83,0,0,1,2.56-1.5,2.41,2.41,0,0,1,2.31,1.63h0a3.7,3.7,0,0,1,.91-1.06,2.8,2.8,0,0,1,1.81-.57c1.08,0,2.68.71,2.68,3.54v4.8h-1.45V74.63c0-1.56-.58-2.51-1.77-2.51a1.92,1.92,0,0,0-1.75,1.35,2.34,2.34,0,0,0-.12.74v5H110.1V74.37c0-1.3-.57-2.25-1.7-2.25a2,2,0,0,0-1.84,1.49,2.13,2.13,0,0,0-.12.72v4.92H105Z"/><path class="cls-4" d="M120.69,68.81a.87.87,0,0,1-.94.9.88.88,0,0,1-.89-.9.9.9,0,0,1,.92-.93A.88.88,0,0,1,120.69,68.81ZM119,79.25V71.1h1.48v8.15Z"/><path class="cls-4" d="M123.67,71.1l1.16,1.75c.31.45.56.87.83,1.33h0c.27-.49.54-.91.81-1.35l1.14-1.73h1.6L126.48,75l2.87,4.21h-1.69l-1.19-1.84c-.32-.47-.59-.92-.88-1.41h0c-.27.49-.56.93-.86,1.41l-1.18,1.84h-1.63l2.89-4.16-2.76-4Z"/><path class="cls-4" d="M134.94,71.1,136,75.24c.23.91.45,1.75.6,2.59h0c.19-.82.46-1.7.73-2.57l1.33-4.16H140l1.27,4.07c.3,1,.54,1.84.72,2.66h0a26.1,26.1,0,0,1,.63-2.64l1.16-4.09h1.46l-2.62,8.15h-1.35L140,75.36c-.28-.91-.52-1.72-.72-2.68h0a22.39,22.39,0,0,1-.74,2.69l-1.31,3.88h-1.35l-2.46-8.15Z"/><path class="cls-4" d="M147.53,71.1l1.08,4.14c.24.91.46,1.75.61,2.59h.05c.19-.82.45-1.7.72-2.57l1.34-4.16h1.24l1.27,4.07c.3,1,.53,1.84.72,2.66h.05a23.48,23.48,0,0,1,.62-2.64l1.17-4.09h1.46l-2.63,8.15h-1.34l-1.25-3.89c-.29-.91-.52-1.72-.73-2.68h0a22.39,22.39,0,0,1-.74,2.69l-1.31,3.88h-1.35L146,71.1Z"/><path class="cls-4" d="M158.33,78.37a1,1,0,1,1,1,1.07A1,1,0,0,1,158.33,78.37Z"/><path class="cls-4" d="M164.81,78.39l3.69-4.8c.36-.44.69-.83,1.06-1.26v0h-4.41V71.1h6.22l0,.92-3.64,4.74c-.34.45-.67.86-1,1.28v0h4.76v1.18h-6.62Zm5.71-10.81L168.47,70h-1.06l1.48-2.4Z"/><path class="cls-4" d="M173,73.64c0-1,0-1.79-.07-2.54h1.3l0,1.6h.07a2.44,2.44,0,0,1,2.25-1.79,1.73,1.73,0,0,1,.42,0v1.4a2.41,2.41,0,0,0-.5,0,2.07,2.07,0,0,0-2,1.9,4.73,4.73,0,0,0-.07.69v4.35H173Z"/><path class="cls-4" d="M185.67,75.11a4,4,0,0,1-4.06,4.33,3.88,3.88,0,0,1-3.91-4.2,4,4,0,0,1,4-4.33A3.87,3.87,0,0,1,185.67,75.11Zm-6.47.08c0,1.79,1,3.13,2.47,3.13s2.48-1.33,2.48-3.16c0-1.38-.69-3.14-2.44-3.14S179.2,73.64,179.2,75.19Zm4.7-7.61L181.84,70h-1.06l1.48-2.4Z"/><path class="cls-4" d="M194.57,67.29v9.85c0,.73,0,1.55.07,2.11h-1.33l-.07-1.42h0a3,3,0,0,1-2.78,1.61c-2,0-3.49-1.67-3.49-4.15,0-2.71,1.67-4.38,3.66-4.38a2.72,2.72,0,0,1,2.46,1.25h0V67.29Zm-1.48,7.13a2.7,2.7,0,0,0-.07-.63,2.18,2.18,0,0,0-2.14-1.72c-1.53,0-2.44,1.35-2.44,3.15s.81,3,2.41,3A2.22,2.22,0,0,0,193,76.47a2.56,2.56,0,0,0,.07-.64Z"/><path class="cls-4" d="M197.86,75.44a2.6,2.6,0,0,0,2.79,2.83,5.33,5.33,0,0,0,2.26-.42l.25,1.06a6.49,6.49,0,0,1-2.71.51,3.79,3.79,0,0,1-4-4.11c0-2.46,1.45-4.4,3.82-4.4,2.67,0,3.37,2.34,3.37,3.84a4.92,4.92,0,0,1,0,.69Zm4.34-1.06a2.11,2.11,0,0,0-2-2.41,2.46,2.46,0,0,0-2.28,2.41Z"/><path class="cls-4" d="M205.53,79.25V74.4l-1.14,1V74.21l1.14-1V67.29H207v4.8l1.19-1v1.18l-1.19,1v6Z"/><path class="cls-4" d="M209,78.37a1,1,0,0,1,1-1.06,1.07,1.07,0,0,1,0,2.13A1,1,0,0,1,209,78.37Z"/><rect class="cls-3" y="113.44" width="219.33" height="37.27" rx="12.91"/><path class="cls-4" d="M41.26,132.48c-.09-1.58-.19-3.48-.17-4.9H41c-.39,1.33-.86,2.75-1.43,4.31l-2,5.51H36.49L34.65,132c-.54-1.6-1-3.06-1.31-4.41h0c0,1.42-.12,3.32-.22,5l-.31,4.87H31.39l.79-11.35h1.87L36,131.61c.48,1.39.86,2.64,1.15,3.82h0c.29-1.14.69-2.39,1.2-3.82l2-5.49h1.87L43,137.47H41.54Z"/><path class="cls-4" d="M47,127a.87.87,0,0,1-.94.91.88.88,0,0,1-.89-.91.89.89,0,0,1,.92-.92A.87.87,0,0,1,47,127Zm-1.65,10.45v-8.15h1.48v8.15Z"/><path class="cls-4" d="M49.32,131.52c0-.84,0-1.53-.07-2.2h1.32l.08,1.34h0a3,3,0,0,1,2.69-1.53c1.13,0,2.88.67,2.88,3.47v4.87H54.78v-4.7c0-1.31-.49-2.41-1.89-2.41a2.12,2.12,0,0,0-2,1.52,2.29,2.29,0,0,0-.1.69v4.9H49.32Z"/><path class="cls-4" d="M58.31,136.59a1,1,0,1,1,2,0,1,1,0,1,1-2,0Z"/><path class="cls-4" d="M71.79,127.77H67.61l-.42,2.81a5.08,5.08,0,0,1,.89-.07,4.67,4.67,0,0,1,2.36.59A3.12,3.12,0,0,1,72,133.91a3.8,3.8,0,0,1-4.08,3.74A5.32,5.32,0,0,1,65.2,137l.37-1.13a4.92,4.92,0,0,0,2.34.61,2.42,2.42,0,0,0,2.6-2.38c0-1.41-1-2.42-3.15-2.42a10,10,0,0,0-1.52.12l.71-5.26h5.24Z"/><path class="cls-4" d="M81.17,131.88c0,3.72-1.38,5.77-3.81,5.77-2.14,0-3.59-2-3.62-5.62s1.58-5.7,3.81-5.7S81.17,128.39,81.17,131.88Zm-6,.16c0,2.85.88,4.47,2.23,4.47,1.51,0,2.24-1.77,2.24-4.57s-.69-4.46-2.23-4.46C76.17,127.48,75.22,129.06,75.22,132Z"/><path class="cls-4" d="M87.47,129.6c0,2.31-1.22,3.45-2.63,3.45s-2.55-1.09-2.56-3.3,1.19-3.42,2.64-3.42S87.47,127.51,87.47,129.6Zm-4,.1c0,1.4.49,2.46,1.41,2.46s1.42-1,1.42-2.49-.39-2.44-1.42-2.44S83.46,128.32,83.46,129.7Zm1.28,8,6.43-11.32h1l-6.44,11.32Zm9.85-3.52c0,2.31-1.21,3.46-2.61,3.46s-2.54-1.1-2.56-3.29,1.2-3.43,2.64-3.43S94.59,132,94.59,134.13Zm-4,.1c0,1.4.52,2.46,1.43,2.46s1.42-1,1.42-2.49S93,131.76,92,131.76,90.58,132.85,90.58,134.23Z"/><path class="cls-4" d="M109.29,137.17a5.48,5.48,0,0,1-2.34.47,3.87,3.87,0,0,1-4.06-4.16,4.14,4.14,0,0,1,4.38-4.33,5,5,0,0,1,2.06.42l-.34,1.14a3.47,3.47,0,0,0-1.72-.38,3.07,3.07,0,0,0,0,6.13,4.14,4.14,0,0,0,1.82-.41Z"/><path class="cls-4" d="M112.68,127a.92.92,0,0,1-1.84,0,.9.9,0,0,1,.93-.92A.88.88,0,0,1,112.68,127ZM111,137.47v-8.15h1.48v8.15Z"/><path class="cls-4" d="M115.79,133.66a2.62,2.62,0,0,0,2.8,2.83,5.33,5.33,0,0,0,2.26-.42l.25,1.06a6.53,6.53,0,0,1-2.71.51,3.79,3.79,0,0,1-4-4.11c0-2.46,1.45-4.4,3.82-4.4,2.66,0,3.37,2.34,3.37,3.84a5.05,5.05,0,0,1,0,.69Zm4.35-1.06a2.12,2.12,0,0,0-2.06-2.41,2.45,2.45,0,0,0-2.27,2.41Z"/><path class="cls-4" d="M123.4,132c0-1,0-1.89-.06-2.66h1.33l.06,1.39h0a3.19,3.19,0,0,1,2.89-1.58c2,0,3.46,1.67,3.46,4.14,0,2.94-1.79,4.38-3.71,4.38a2.86,2.86,0,0,1-2.51-1.28h0v4.43H123.4Zm1.47,2.17a2.92,2.92,0,0,0,.07.61,2.29,2.29,0,0,0,2.22,1.73c1.57,0,2.48-1.28,2.48-3.15,0-1.63-.86-3-2.43-3a2.57,2.57,0,0,0-2.34,2.44Z"/><path class="cls-4" d="M133.05,137.47v-4.85l-1.14,1v-1.16l1.14-1v-5.93h1.48v4.8l1.2-1v1.18l-1.2,1v6Z"/><path class="cls-4" d="M141.57,137.47l-.11-1h-.05a3,3,0,0,1-2.5,1.21,2.32,2.32,0,0,1-2.49-2.34c0-2,1.75-3.05,4.9-3v-.17a1.68,1.68,0,0,0-1.85-1.89,4,4,0,0,0-2.12.61l-.34-1a5.12,5.12,0,0,1,2.68-.72c2.49,0,3.1,1.7,3.1,3.34v3a11.71,11.71,0,0,0,.13,2Zm-.21-4.16c-1.62,0-3.46.25-3.46,1.83a1.32,1.32,0,0,0,1.4,1.42,2,2,0,0,0,2-1.37,1.56,1.56,0,0,0,.09-.47Z"/><path class="cls-4" d="M147.82,136.61l3.69-4.8c.35-.44.69-.83,1.06-1.27v0h-4.41v-1.19h6.21v.92L150.72,135c-.34.45-.68.85-1.05,1.28v0h4.77v1.18h-6.62Z"/><path class="cls-4" d="M169.28,131.67c0,3.91-2.38,6-5.27,6s-5.11-2.32-5.11-5.76c0-3.6,2.24-6,5.28-6S169.28,128.3,169.28,131.67Zm-8.81.19c0,2.43,1.31,4.6,3.62,4.6s3.64-2.14,3.64-4.72c0-2.26-1.18-4.62-3.62-4.62S160.47,129.37,160.47,131.86Z"/><path class="cls-4" d="M170.41,136.61l6.3-9.22v0h-5.77v-1.22h7.67V127l-6.27,9.18v.05h6.35v1.23h-8.28Z"/><path class="cls-4" d="M186.37,132.15H182v4.09h4.92v1.23h-6.39V126.12h6.13v1.22H182v3.59h4.41Z"/><rect class="cls-3" x="275.34" y="55.22" width="219.33" height="37.27" rx="12.91"/><path class="cls-4" d="M297.91,73.38c-.08-1.48-.17-3.26-.16-4.59h0c-.37,1.25-.81,2.57-1.34,4L294.49,78h-1l-1.72-5.06c-.51-1.5-.93-2.88-1.23-4.14h0c0,1.33-.12,3.11-.21,4.7L290,78.05h-1.31l.74-10.63h1.75L293,72.56c.45,1.31.81,2.48,1.08,3.58h0c.27-1.07.65-2.24,1.12-3.58l1.9-5.14h1.75l.66,10.63h-1.34Z"/><path class="cls-4" d="M303.33,68.27a.86.86,0,0,1-1.72,0,.85.85,0,0,1,.87-.87A.82.82,0,0,1,303.33,68.27Zm-1.55,9.78V70.42h1.39v7.63Z"/><path class="cls-4" d="M305.47,72.48c0-.78,0-1.43-.06-2.06h1.23l.08,1.26h0a2.82,2.82,0,0,1,2.53-1.44c1.06,0,2.7.63,2.7,3.25v4.56h-1.39v-4.4c0-1.23-.46-2.25-1.77-2.25A2,2,0,0,0,307,72.82a1.79,1.79,0,0,0-.1.64v4.59h-1.39Z"/><path class="cls-4" d="M313.9,77.23a.94.94,0,0,1,1-1,1,1,0,0,1,0,2A.93.93,0,0,1,313.9,77.23Z"/><path class="cls-4" d="M326.53,69h-3.92l-.39,2.63a5.84,5.84,0,0,1,.84-.06,4.28,4.28,0,0,1,2.2.55,2.91,2.91,0,0,1,1.47,2.63,3.56,3.56,0,0,1-3.82,3.51,5.06,5.06,0,0,1-2.55-.63l.35-1.06a4.59,4.59,0,0,0,2.19.57,2.27,2.27,0,0,0,2.43-2.23c0-1.32-.9-2.27-2.95-2.27a10.13,10.13,0,0,0-1.42.11l.66-4.92h4.91Z"/><path class="cls-4" d="M335.32,72.82c0,3.48-1.3,5.41-3.57,5.41-2,0-3.36-1.88-3.39-5.27s1.48-5.34,3.57-5.34S335.32,69.55,335.32,72.82Zm-5.57.15c0,2.67.82,4.18,2.08,4.18,1.42,0,2.1-1.65,2.1-4.27s-.65-4.18-2.08-4.18C330.63,68.7,329.75,70.18,329.75,73Z"/><path class="cls-4" d="M341.22,70.69c0,2.16-1.13,3.23-2.46,3.23s-2.38-1-2.4-3.09,1.12-3.21,2.48-3.21S341.22,68.73,341.22,70.69Zm-3.75.09c0,1.31.45,2.3,1.32,2.3s1.33-1,1.33-2.33-.37-2.29-1.33-2.29S337.47,69.49,337.47,70.78Zm1.2,7.45,6-10.61h.89l-6,10.61Zm9.23-3.3c0,2.16-1.14,3.23-2.45,3.23s-2.38-1-2.4-3.07,1.12-3.22,2.48-3.22S347.9,73,347.9,74.93Zm-3.76.09c0,1.31.49,2.31,1.34,2.31s1.33-1,1.33-2.34-.37-2.28-1.33-2.28S344.14,73.73,344.14,75Z"/><path class="cls-4" d="M361.68,77.77a5.16,5.16,0,0,1-2.2.44,3.63,3.63,0,0,1-3.8-3.9,3.88,3.88,0,0,1,4.1-4,4.67,4.67,0,0,1,1.93.39l-.32,1.08a3.19,3.19,0,0,0-1.61-.37,2.88,2.88,0,0,0,0,5.75,4,4,0,0,0,1.7-.38Z"/><path class="cls-4" d="M364.85,68.27a.81.81,0,0,1-.88.85.82.82,0,0,1-.84-.85.85.85,0,0,1,.87-.87A.82.82,0,0,1,364.85,68.27Zm-1.55,9.78V70.42h1.39v7.63Z"/><path class="cls-4" d="M367.77,74.49a2.44,2.44,0,0,0,2.62,2.65,5,5,0,0,0,2.11-.4l.24,1a6.19,6.19,0,0,1-2.54.47,3.54,3.54,0,0,1-3.75-3.85c0-2.3,1.35-4.12,3.58-4.12,2.49,0,3.15,2.2,3.15,3.6,0,.28,0,.51,0,.65Zm4.07-1a2,2,0,0,0-1.92-2.25,2.29,2.29,0,0,0-2.13,2.25Z"/><path class="cls-4" d="M374.9,72.91c0-1,0-1.77-.06-2.49h1.25l.06,1.31h0a3,3,0,0,1,2.72-1.49c1.84,0,3.23,1.57,3.23,3.88,0,2.75-1.67,4.11-3.47,4.11a2.67,2.67,0,0,1-2.35-1.2h0v4.15H374.9Zm1.38,2a3.2,3.2,0,0,0,.06.56,2.14,2.14,0,0,0,2.08,1.63c1.47,0,2.32-1.2,2.32-3,0-1.53-.8-2.84-2.27-2.84a2.22,2.22,0,0,0-2.1,1.72,2.12,2.12,0,0,0-.09.57Z"/><path class="cls-4" d="M384,78.05V73.51l-1.07.91V73.34l1.07-.93V66.85h1.39v4.5l1.12-1v1.1l-1.12,1v5.6Z"/><path class="cls-4" d="M391.93,78.05l-.11-1h0a2.86,2.86,0,0,1-2.34,1.14A2.18,2.18,0,0,1,387.1,76c0-1.84,1.65-2.85,4.6-2.84V73A1.58,1.58,0,0,0,390,71.27a3.8,3.8,0,0,0-2,.57l-.31-.92a4.72,4.72,0,0,1,2.51-.68c2.33,0,2.9,1.6,2.9,3.13v2.85a10.15,10.15,0,0,0,.13,1.83Zm-.2-3.89c-1.52,0-3.24.23-3.24,1.72a1.22,1.22,0,0,0,1.31,1.32,1.9,1.9,0,0,0,1.85-1.28,1.36,1.36,0,0,0,.08-.44Z"/><path class="cls-4" d="M405.57,74.17a3.73,3.73,0,0,1-3.8,4.06,3.63,3.63,0,0,1-3.66-3.93,3.73,3.73,0,0,1,3.78-4.06A3.62,3.62,0,0,1,405.57,74.17Zm-6.06.08c0,1.67,1,2.94,2.32,2.94s2.32-1.25,2.32-3c0-1.29-.65-2.93-2.29-2.93S399.51,72.8,399.51,74.25Z"/><path class="cls-4" d="M413.92,66.85v9.23c0,.68,0,1.45.06,2h-1.25l-.06-1.32h0a2.84,2.84,0,0,1-2.6,1.5c-1.85,0-3.27-1.56-3.27-3.88,0-2.54,1.56-4.11,3.42-4.11a2.58,2.58,0,0,1,2.31,1.17h0V66.85Zm-1.39,6.68a3,3,0,0,0-.06-.59,2.06,2.06,0,0,0-2-1.61c-1.43,0-2.28,1.26-2.28,3s.75,2.83,2.25,2.83a2.1,2.1,0,0,0,2-1.66,2.84,2.84,0,0,0,.06-.6Z"/><path class="cls-4" d="M416.22,72.91c0-1,0-1.77-.06-2.49h1.25l.06,1.31h0a3,3,0,0,1,2.72-1.49c1.84,0,3.23,1.57,3.23,3.88,0,2.75-1.67,4.11-3.47,4.11a2.67,2.67,0,0,1-2.35-1.2h0v4.15h-1.38Zm1.38,2a3.2,3.2,0,0,0,.06.56,2.14,2.14,0,0,0,2.08,1.63c1.47,0,2.32-1.2,2.32-3,0-1.53-.8-2.84-2.27-2.84a2.22,2.22,0,0,0-2.1,1.72,2.12,2.12,0,0,0-.09.57Z"/><path class="cls-4" d="M429.43,78.05l-.11-1h0a2.86,2.86,0,0,1-2.34,1.14,2.17,2.17,0,0,1-2.33-2.2c0-1.84,1.64-2.85,4.59-2.84V73a1.58,1.58,0,0,0-1.74-1.77,3.8,3.8,0,0,0-2,.57l-.31-.92a4.72,4.72,0,0,1,2.51-.68c2.33,0,2.9,1.6,2.9,3.13v2.85a10.15,10.15,0,0,0,.13,1.83Zm-.2-3.89c-1.52,0-3.24.23-3.24,1.72a1.22,1.22,0,0,0,1.31,1.32,1.9,1.9,0,0,0,1.85-1.28,1.36,1.36,0,0,0,.08-.44Z"/><path class="cls-4" d="M439.41,66.85v9.23c0,.68,0,1.45.06,2h-1.25l-.06-1.32h0a2.84,2.84,0,0,1-2.6,1.5c-1.85,0-3.27-1.56-3.27-3.88,0-2.54,1.56-4.11,3.42-4.11A2.58,2.58,0,0,1,438,71.41h0V66.85ZM438,73.53a3,3,0,0,0-.06-.59,2.06,2.06,0,0,0-2-1.61c-1.43,0-2.28,1.26-2.28,3s.75,2.83,2.25,2.83a2.1,2.1,0,0,0,2-1.66,2.84,2.84,0,0,0,.06-.6Z"/><path class="cls-4" d="M448.63,74.17a3.74,3.74,0,0,1-3.81,4.06,3.64,3.64,0,0,1-3.66-3.93A3.74,3.74,0,0,1,445,70.24,3.62,3.62,0,0,1,448.63,74.17Zm-6.06.08c0,1.67,1,2.94,2.32,2.94s2.32-1.25,2.32-3c0-1.29-.65-2.93-2.29-2.93S442.57,72.8,442.57,74.25Z"/><path class="cls-4" d="M450.82,70.42l1,3.88c.22.85.43,1.64.57,2.43h.05c.17-.77.42-1.6.68-2.42l1.24-3.89h1.17l1.18,3.82c.29.91.51,1.72.68,2.49h.05a24.75,24.75,0,0,1,.58-2.48l1.09-3.83h1.37L458,78.05h-1.26l-1.17-3.64a25,25,0,0,1-.67-2.51h0a22,22,0,0,1-.69,2.52L453,78.05h-1.26l-2.31-7.63Z"/><path class="cls-4" d="M462.5,74.49a2.44,2.44,0,0,0,2.62,2.65,5,5,0,0,0,2.12-.4l.23,1a6.19,6.19,0,0,1-2.54.47,3.54,3.54,0,0,1-3.75-3.85c0-2.3,1.35-4.12,3.58-4.12,2.49,0,3.15,2.2,3.15,3.6,0,.28,0,.51,0,.65Zm4.07-1a2,2,0,0,0-1.92-2.25,2.29,2.29,0,0,0-2.13,2.25Z"/><path class="cls-4" d="M476.22,70.42c0,.55-.07,1.16-.07,2.1V77c0,1.75-.34,2.82-1.09,3.49a4,4,0,0,1-2.77.91,4.9,4.9,0,0,1-2.54-.63l.34-1.06a4.3,4.3,0,0,0,2.24.6c1.42,0,2.47-.74,2.47-2.66v-.86h0A2.71,2.71,0,0,1,472.33,78c-1.89,0-3.25-1.61-3.25-3.72,0-2.59,1.69-4.06,3.44-4.06a2.56,2.56,0,0,1,2.39,1.33h0l.06-1.15Zm-1.44,3a2,2,0,0,0-.08-.63,2,2,0,0,0-1.94-1.47c-1.33,0-2.27,1.12-2.27,2.89,0,1.5.76,2.74,2.25,2.74a2,2,0,0,0,1.93-1.42,2.33,2.33,0,0,0,.11-.74Z"/><path class="cls-4" d="M485.37,74.17a3.73,3.73,0,0,1-3.8,4.06,3.63,3.63,0,0,1-3.66-3.93,3.73,3.73,0,0,1,3.78-4.06A3.62,3.62,0,0,1,485.37,74.17Zm-6.06.08c0,1.67,1,2.94,2.32,2.94s2.32-1.25,2.32-3c0-1.29-.65-2.93-2.29-2.93S479.31,72.8,479.31,74.25Z"/><rect class="cls-3" x="291.37" y="113.44" width="219.33" height="37.27" rx="12.91"/><path class="cls-4" d="M313.94,131.6c-.08-1.48-.17-3.26-.15-4.59h-.05c-.36,1.25-.81,2.57-1.34,4l-1.88,5.16h-1l-1.72-5.07c-.51-1.49-.93-2.87-1.23-4.13h0c0,1.33-.11,3.11-.21,4.7l-.28,4.56H304.7l.74-10.63h1.75l1.82,5.14c.44,1.31.8,2.48,1.07,3.58h.05a36.13,36.13,0,0,1,1.12-3.58l1.89-5.14h1.75l.66,10.63h-1.34Z"/><path class="cls-4" d="M319.36,126.49a.82.82,0,0,1-.88.85.83.83,0,0,1-.84-.85.85.85,0,0,1,.87-.87A.82.82,0,0,1,319.36,126.49Zm-1.55,9.78v-7.63h1.39v7.63Z"/><path class="cls-4" d="M321.51,130.7c0-.79,0-1.43-.07-2.06h1.23l.08,1.26h0a2.82,2.82,0,0,1,2.53-1.44c1.06,0,2.7.63,2.7,3.25v4.56h-1.39v-4.4c0-1.23-.46-2.26-1.77-2.26A2,2,0,0,0,323,131a2.11,2.11,0,0,0-.1.65v4.59h-1.38Z"/><path class="cls-4" d="M329.93,135.45a.94.94,0,0,1,.95-1,1,1,0,0,1,0,2A.94.94,0,0,1,329.93,135.45Z"/><path class="cls-4" d="M342.56,127.18h-3.91l-.4,2.64a5.84,5.84,0,0,1,.84-.06,4.32,4.32,0,0,1,2.21.55,2.93,2.93,0,0,1,1.46,2.63,3.56,3.56,0,0,1-3.81,3.51,5,5,0,0,1-2.56-.64l.35-1.05a4.59,4.59,0,0,0,2.19.57,2.27,2.27,0,0,0,2.43-2.23c0-1.32-.9-2.27-2.95-2.27a10.26,10.26,0,0,0-1.42.11l.66-4.92h4.91Z"/><path class="cls-4" d="M351.35,131c0,3.49-1.29,5.42-3.57,5.42-2,0-3.36-1.88-3.39-5.27s1.48-5.34,3.57-5.34S351.35,127.77,351.35,131Zm-5.57.16c0,2.67.82,4.18,2.08,4.18,1.42,0,2.1-1.65,2.1-4.27s-.65-4.18-2.08-4.18C346.66,126.92,345.78,128.4,345.78,131.19Z"/><path class="cls-4" d="M357.25,128.9c0,2.17-1.13,3.24-2.46,3.24s-2.38-1-2.4-3.09,1.12-3.21,2.48-3.21S357.25,127,357.25,128.9Zm-3.75.1c0,1.31.46,2.3,1.32,2.3s1.33-1,1.33-2.33-.36-2.29-1.33-2.29S353.5,127.71,353.5,129Zm1.2,7.45,6-10.61h.89l-6,10.61Zm9.23-3.3c0,2.16-1.14,3.23-2.45,3.23s-2.38-1-2.4-3.07,1.12-3.22,2.48-3.22S363.93,131.19,363.93,133.15Zm-3.76.09c0,1.31.49,2.31,1.34,2.31s1.33-1,1.33-2.34-.36-2.29-1.33-2.29S360.17,132,360.17,133.24Z"/><path class="cls-4" d="M377.71,136a5.12,5.12,0,0,1-2.2.44,3.63,3.63,0,0,1-3.8-3.9,3.88,3.88,0,0,1,4.1-4.05,4.64,4.64,0,0,1,1.93.39l-.32,1.08a3.19,3.19,0,0,0-1.61-.37,2.88,2.88,0,0,0,0,5.75,4,4,0,0,0,1.7-.38Z"/><path class="cls-4" d="M380.88,126.49a.82.82,0,0,1-.88.85.83.83,0,0,1-.84-.85.85.85,0,0,1,.87-.87A.82.82,0,0,1,380.88,126.49Zm-1.54,9.78v-7.63h1.38v7.63Z"/><path class="cls-4" d="M383.8,132.71a2.45,2.45,0,0,0,2.62,2.65,5.06,5.06,0,0,0,2.12-.4l.23,1a6.19,6.19,0,0,1-2.54.47,3.54,3.54,0,0,1-3.75-3.85c0-2.3,1.35-4.12,3.58-4.12,2.49,0,3.15,2.2,3.15,3.6,0,.28,0,.5,0,.65Zm4.07-1a2,2,0,0,0-1.92-2.25,2.29,2.29,0,0,0-2.13,2.25Z"/><path class="cls-4" d="M390.94,131.13c0-1,0-1.77-.07-2.49h1.25l.06,1.31h0a3,3,0,0,1,2.72-1.49c1.84,0,3.23,1.56,3.23,3.88,0,2.75-1.67,4.11-3.47,4.11a2.7,2.7,0,0,1-2.35-1.2h0v4.15h-1.37Zm1.37,2a3.22,3.22,0,0,0,.06.57,2.15,2.15,0,0,0,2.08,1.63c1.47,0,2.32-1.2,2.32-3,0-1.53-.8-2.84-2.27-2.84a2.22,2.22,0,0,0-2.1,1.72,2.62,2.62,0,0,0-.09.56Z"/><path class="cls-4" d="M400,136.27v-4.54l-1.07.91v-1.09l1.07-.93v-5.55h1.39v4.5l1.12-1v1.11l-1.12,1v5.6Z"/><path class="cls-4" d="M408,136.27l-.11-1h0a2.86,2.86,0,0,1-2.34,1.14,2.18,2.18,0,0,1-2.33-2.2c0-1.84,1.64-2.85,4.59-2.84v-.16a1.57,1.57,0,0,0-1.74-1.76,3.8,3.8,0,0,0-2,.57l-.31-.92a4.72,4.72,0,0,1,2.51-.68c2.33,0,2.9,1.6,2.9,3.13v2.85a10.22,10.22,0,0,0,.13,1.83Zm-.2-3.9c-1.52,0-3.24.24-3.24,1.72a1.23,1.23,0,0,0,1.31,1.33,1.9,1.9,0,0,0,1.85-1.28,1.36,1.36,0,0,0,.08-.44Z"/><path class="cls-4" d="M413.82,135.47l3.46-4.5c.33-.41.64-.77,1-1.18v0h-4.13v-1.12H420l0,.86-3.4,4.44c-.32.42-.64.8-1,1.2v0H420v1.1h-6.2Z"/><path class="cls-4" d="M426.16,132.14h0c.19-.27.46-.6.68-.87l2.24-2.63h1.68l-3,3.14,3.36,4.49h-1.69l-2.64-3.66-.71.79v2.87h-1.37v-11.2h1.37Z"/><path class="cls-4" d="M439.1,132.39a3.73,3.73,0,0,1-3.8,4.06,3.63,3.63,0,0,1-3.66-3.93,3.73,3.73,0,0,1,3.79-4.06A3.62,3.62,0,0,1,439.1,132.39Zm-6.06.08c0,1.67,1,2.93,2.32,2.93s2.32-1.24,2.32-3c0-1.3-.64-2.94-2.29-2.94S433,131,433,132.47Z"/><path class="cls-4" d="M447.44,128.64c0,.55-.07,1.16-.07,2.09v4.44c0,1.75-.34,2.82-1.09,3.49a4,4,0,0,1-2.77.91,4.9,4.9,0,0,1-2.54-.63l.34-1.06a4.3,4.3,0,0,0,2.24.6c1.42,0,2.47-.74,2.47-2.67V135h0a2.71,2.71,0,0,1-2.43,1.28c-1.89,0-3.25-1.61-3.25-3.72,0-2.59,1.69-4.06,3.44-4.06a2.55,2.55,0,0,1,2.39,1.33h0l.06-1.15Zm-1.44,3a2,2,0,0,0-.08-.63,2,2,0,0,0-1.94-1.47c-1.32,0-2.27,1.12-2.27,2.89,0,1.5.76,2.74,2.26,2.74a2,2,0,0,0,1.92-1.42A2.33,2.33,0,0,0,446,133Z"/><path class="cls-4" d="M450.45,132.71a2.45,2.45,0,0,0,2.62,2.65,5,5,0,0,0,2.12-.4l.23,1a6.19,6.19,0,0,1-2.54.47,3.54,3.54,0,0,1-3.75-3.85c0-2.3,1.35-4.12,3.58-4.12,2.49,0,3.16,2.2,3.16,3.6,0,.28,0,.5-.05.65Zm4.07-1a2,2,0,0,0-1.92-2.25,2.29,2.29,0,0,0-2.13,2.25Z"/><path class="cls-4" d="M457.59,130.7c0-.79,0-1.43-.07-2.06h1.24l.07,1.26h0a2.79,2.79,0,0,1,2.52-1.44c1.06,0,2.7.63,2.7,3.25v4.56H462.7v-4.4c0-1.23-.46-2.26-1.77-2.26a2,2,0,0,0-1.86,1.42,2.13,2.13,0,0,0-.09.65v4.59h-1.39Z"/><path class="cls-4" d="M467.12,132.71a2.45,2.45,0,0,0,2.62,2.65,5,5,0,0,0,2.11-.4l.24,1a6.23,6.23,0,0,1-2.54.47,3.54,3.54,0,0,1-3.75-3.85c0-2.3,1.35-4.12,3.58-4.12,2.49,0,3.15,2.2,3.15,3.6a4.64,4.64,0,0,1,0,.65Zm4.07-1a2,2,0,0,0-1.92-2.25,2.29,2.29,0,0,0-2.13,2.25Z"/><path class="cls-4" d="M474.25,131c0-.9,0-1.67-.06-2.38h1.22l0,1.49h.07a2.28,2.28,0,0,1,2.11-1.67,1.62,1.62,0,0,1,.4,0v1.31a2.28,2.28,0,0,0-.48,0,1.94,1.94,0,0,0-1.86,1.78,4.12,4.12,0,0,0-.06.65v4.07h-1.38Z"/><path class="cls-4" d="M483.56,136.27l-.11-1h0a2.86,2.86,0,0,1-2.34,1.14,2.18,2.18,0,0,1-2.33-2.2c0-1.84,1.64-2.85,4.59-2.84v-.16a1.57,1.57,0,0,0-1.74-1.76,3.8,3.8,0,0,0-2,.57l-.31-.92a4.75,4.75,0,0,1,2.51-.68c2.33,0,2.9,1.6,2.9,3.13v2.85a10.22,10.22,0,0,0,.13,1.83Zm-.2-3.9c-1.51,0-3.23.24-3.23,1.72a1.23,1.23,0,0,0,1.3,1.33,1.9,1.9,0,0,0,1.85-1.28,1.36,1.36,0,0,0,.08-.44Z"/><path class="cls-4" d="M492.39,136a5.16,5.16,0,0,1-2.2.44,3.63,3.63,0,0,1-3.8-3.9,3.88,3.88,0,0,1,4.1-4.05,4.67,4.67,0,0,1,1.93.39L492.1,130a3.19,3.19,0,0,0-1.61-.37,2.88,2.88,0,0,0,0,5.75,4,4,0,0,0,1.7-.38Z"/><path class="cls-4" d="M492.15,138.48a2.29,2.29,0,0,0,1.52-.58c.38-.44.52-1,.52-2.87v-6.39h1.39v6.92a4.17,4.17,0,0,1-.92,3.14,3.48,3.48,0,0,1-2.36.87Zm3.58-12a.8.8,0,0,1-.86.85.83.83,0,0,1-.86-.85.86.86,0,0,1,.89-.87A.82.82,0,0,1,495.73,126.49Z"/><path class="cls-4" d="M499.4,126.49a.83.83,0,0,1-.89.85.82.82,0,0,1-.83-.85.84.84,0,0,1,.86-.87A.83.83,0,0,1,499.4,126.49Zm-1.55,9.78v-7.63h1.39v7.63Z"/></g></g></svg>