<svg xmlns="http://www.w3.org/2000/svg" xmlns:xlink="http://www.w3.org/1999/xlink" viewBox="0 0 380.29 404.57"><defs><style>.cls-1{fill:none;}.cls-2{fill:#b2e2fa;}.cls-3{fill:#ed7333;}.cls-4{fill:#317ec2;}.cls-5{fill:#2b3990;}.cls-6{clip-path:url(#clip-path);}.cls-7{clip-path:url(#clip-path-2);}.cls-8{fill:#fff;}.cls-9{fill:#223e78;}.cls-10{clip-path:url(#clip-path-3);}.cls-11{clip-path:url(#clip-path-4);}.cls-12{clip-path:url(#clip-path-5);}</style><clipPath id="clip-path"><polygon class="cls-1" points="297.44 11.12 297.44 69.25 303.91 56.24 319.8 8.36 297.44 11.12"/></clipPath><clipPath id="clip-path-2"><polygon class="cls-1" points="226.43 104.12 297.44 83.99 297.47 8.36 231.68 31.37 221.55 84.37 226.43 104.12"/></clipPath><clipPath id="clip-path-3"><polygon class="cls-1" points="91.24 8.36 91.24 61.94 117.87 92.59 162.41 109.47 169.9 82.35 165.12 53.63 156.16 36.62 127.99 14.74 103.52 8.36 91.24 8.36"/></clipPath><clipPath id="clip-path-4"><polygon class="cls-1" points="114.21 91.07 159.98 108.55 152.74 127.07 146.84 132.25 109.43 98.69 114.21 91.07"/></clipPath><clipPath id="clip-path-5"><polygon class="cls-1" points="146.84 132.25 112.74 101.66 94.8 111.66 93.68 116.37 95.65 162.49 130.57 146.59 146.84 132.25"/></clipPath></defs><g id="Warstwa_2" data-name="Warstwa 2"><g id="Layer_1" data-name="Layer 1"><circle class="cls-2" cx="92.24" cy="258.76" r="70.62"/><circle class="cls-3" cx="91.68" cy="84.37" r="70.62"/><circle class="cls-4" cx="297.62" cy="84.22" r="70.62"/><path class="cls-5" d="M12.81,38.66H9.62L9.3,40.81a3.79,3.79,0,0,1,.68-.06,3.62,3.62,0,0,1,1.8.45A2.4,2.4,0,0,1,13,43.35a2.9,2.9,0,0,1-3.11,2.86,4.07,4.07,0,0,1-2.09-.52l.28-.86a3.71,3.71,0,0,0,1.79.46,1.84,1.84,0,0,0,2-1.81c0-1.08-.73-1.85-2.4-1.85a8.42,8.42,0,0,0-1.16.09l.54-4h4Z"/><path class="cls-5" d="M20.1,41.8c0,2.84-1.05,4.41-2.91,4.41-1.63,0-2.73-1.53-2.76-4.3s1.21-4.35,2.91-4.35S20.1,39.13,20.1,41.8Zm-4.54.12c0,2.18.67,3.41,1.7,3.41S19,44,19,41.85s-.53-3.41-1.7-3.41C16.28,38.44,15.56,39.65,15.56,41.92Z"/><path class="cls-5" d="M20.9,47.65a18.73,18.73,0,0,0,.77-3.08l1.26-.12a15.86,15.86,0,0,1-1.22,3.12Z"/><path class="cls-5" d="M28.83,38.5a4.41,4.41,0,0,0-.85,0,3.42,3.42,0,0,0-2.91,3h0a2.55,2.55,0,0,1,4.54,1.73,2.8,2.8,0,0,1-2.77,3c-1.79,0-3-1.39-3-3.56a5.26,5.26,0,0,1,1.41-3.77A4.53,4.53,0,0,1,28,37.64a5.42,5.42,0,0,1,.82-.06Zm-.32,4.83a1.7,1.7,0,0,0-1.72-1.92,1.83,1.83,0,0,0-1.62,1,.92.92,0,0,0-.13.5c0,1.38.65,2.39,1.84,2.39C27.85,45.33,28.51,44.52,28.51,43.33Z"/><path class="cls-5" d="M139.76,26.77a3.86,3.86,0,0,0,1.85.52c1.46,0,1.91-.92,1.89-1.62,0-1.17-1.06-1.67-2.16-1.67h-.63v-.85h.63c.83,0,1.87-.42,1.87-1.41,0-.67-.43-1.26-1.47-1.26a3,3,0,0,0-1.67.55l-.3-.82a4,4,0,0,1,2.19-.65c1.65,0,2.39,1,2.39,2a2.08,2.08,0,0,1-1.54,2v0a2.18,2.18,0,0,1,1.86,2.15c0,1.34-1,2.51-3,2.51a4.25,4.25,0,0,1-2.17-.57Z"/><path class="cls-5" d="M151.77,23.8c0,2.84-1.05,4.41-2.91,4.41-1.63,0-2.74-1.53-2.76-4.3s1.21-4.35,2.91-4.35S151.77,21.13,151.77,23.8Zm-4.54.12c0,2.18.67,3.41,1.7,3.41s1.71-1.35,1.71-3.48-.53-3.41-1.7-3.41C148,20.44,147.23,21.65,147.23,23.92Z"/><path class="cls-5" d="M152.57,29.65a18.73,18.73,0,0,0,.77-3.08l1.26-.12a15.86,15.86,0,0,1-1.22,3.12Z"/><path class="cls-5" d="M160.72,20.66h-3.19l-.32,2.15a3.79,3.79,0,0,1,.68-.06,3.62,3.62,0,0,1,1.8.45,2.4,2.4,0,0,1,1.2,2.15,2.9,2.9,0,0,1-3.12,2.86,4.06,4.06,0,0,1-2.08-.52l.28-.86a3.71,3.71,0,0,0,1.79.46,1.84,1.84,0,0,0,2-1.81c0-1.08-.73-1.85-2.4-1.85a8.42,8.42,0,0,0-1.16.09l.54-4h4Z"/><path class="cls-5" d="M161.51,119.5a4.41,4.41,0,0,0-.85,0,3.4,3.4,0,0,0-2.9,3h0a2.55,2.55,0,0,1,4.54,1.73,2.8,2.8,0,0,1-2.77,2.95c-1.79,0-3-1.39-3-3.56a5.26,5.26,0,0,1,1.41-3.77,4.53,4.53,0,0,1,2.68-1.24,5.51,5.51,0,0,1,.82-.06Zm-.32,4.83a1.7,1.7,0,0,0-1.72-1.92,1.86,1.86,0,0,0-1.62,1,.92.92,0,0,0-.13.5c0,1.38.65,2.39,1.84,2.39C160.53,126.33,161.19,125.52,161.19,124.33Z"/><path class="cls-5" d="M163.09,128.65a17.78,17.78,0,0,0,.77-3.08l1.26-.12a15.26,15.26,0,0,1-1.22,3.12Z"/><path class="cls-5" d="M168.71,119.76h0l-1.45.78-.22-.86,1.83-1h1v8.36h-1.09Z"/><path class="cls-5" d="M129.2,150.69h0l-1.45.78-.22-.86,1.83-1h1V158H129.2Z"/><path class="cls-5" d="M133.46,158v-.69l.89-.86c2.14-2,3.1-3.12,3.11-4.38a1.49,1.49,0,0,0-1.65-1.63,2.82,2.82,0,0,0-1.78.71l-.36-.8a3.66,3.66,0,0,1,2.37-.85,2.35,2.35,0,0,1,2.56,2.43c0,1.54-1.12,2.79-2.88,4.49l-.67.62v0h3.75V158Z"/><path class="cls-5" d="M139.82,159.57a18.36,18.36,0,0,0,.77-3.07l1.26-.13a16.24,16.24,0,0,1-1.22,3.13Z"/><path class="cls-5" d="M142.88,155.87a2.39,2.39,0,0,1,1.66-2.24l0,0a2.06,2.06,0,0,1-1.32-1.88,2.34,2.34,0,0,1,2.58-2.22,2.16,2.16,0,0,1,2.43,2.06,2.11,2.11,0,0,1-1.37,1.95v0a2.32,2.32,0,0,1,1.68,2.16,2.57,2.57,0,0,1-2.84,2.43C143.93,158.13,142.88,157.09,142.88,155.87Zm4.5-.05c0-1-.71-1.51-1.84-1.83a1.82,1.82,0,0,0-1.51,1.73,1.55,1.55,0,0,0,1.68,1.59A1.51,1.51,0,0,0,147.38,155.82Zm-3.12-4.18c0,.83.63,1.28,1.6,1.54a1.64,1.64,0,0,0,1.27-1.52,1.3,1.3,0,0,0-1.41-1.36A1.34,1.34,0,0,0,144.26,151.64Z"/><path class="cls-5" d="M207.74,48.12v-.7l.89-.86c2.13-2,3.1-3.11,3.11-4.37a1.5,1.5,0,0,0-1.66-1.64,2.83,2.83,0,0,0-1.77.71l-.36-.8a3.68,3.68,0,0,1,2.36-.84,2.35,2.35,0,0,1,2.56,2.43c0,1.54-1.12,2.79-2.88,4.49l-.67.61v0h3.76v.94Z"/><path class="cls-5" d="M215.12,47.32a4.27,4.27,0,0,0,.91,0,3.13,3.13,0,0,0,1.75-.81,3.6,3.6,0,0,0,1.11-2.22h0a2.47,2.47,0,0,1-2,.9,2.43,2.43,0,0,1-2.47-2.56,2.86,2.86,0,0,1,2.86-3C219,39.62,220,41,220,43.14a5.23,5.23,0,0,1-1.44,3.92,4.15,4.15,0,0,1-2.43,1.12,5.1,5.1,0,0,1-1,.07Zm.41-4.81a1.61,1.61,0,0,0,1.61,1.77,1.88,1.88,0,0,0,1.65-.87.77.77,0,0,0,.1-.41c0-1.43-.53-2.52-1.71-2.52C216.21,40.48,215.53,41.33,215.53,42.51Z"/><path class="cls-5" d="M220.82,49.7a18.86,18.86,0,0,0,.77-3.07l1.26-.13a15.86,15.86,0,0,1-1.22,3.12Z"/><path class="cls-5" d="M229.54,43.85c0,2.84-1.06,4.41-2.91,4.41-1.64,0-2.74-1.53-2.77-4.3s1.21-4.34,2.91-4.34S229.54,41.18,229.54,43.85ZM225,44c0,2.17.67,3.4,1.7,3.4S228.4,46,228.4,43.9s-.52-3.41-1.69-3.41C225.71,40.49,225,41.7,225,44Z"/><path class="cls-5" d="M77.36,182.85v-2.27H73.48v-.75l3.73-5.34h1.22v5.2H79.6v.89H78.43v2.27Zm0-3.16V176.9c0-.44,0-.88,0-1.31h0c-.25.49-.46.85-.69,1.23l-2,2.84v0Z"/><path class="cls-5" d="M80.22,184.44a18.73,18.73,0,0,0,.77-3.08l1.26-.13A16,16,0,0,1,81,184.36Z"/><path class="cls-5" d="M88.94,178.58c0,2.85-1.06,4.42-2.91,4.42-1.63,0-2.74-1.53-2.77-4.3s1.21-4.35,2.91-4.35S88.94,175.92,88.94,178.58Zm-4.54.13c0,2.18.66,3.41,1.69,3.41s1.71-1.35,1.71-3.48-.52-3.41-1.69-3.41C85.12,175.23,84.4,176.44,84.4,178.71Z"/><path class="cls-5" d="M16.73,203v-.7l.89-.86c2.13-2,3.09-3.11,3.11-4.37a1.5,1.5,0,0,0-1.66-1.64,2.88,2.88,0,0,0-1.78.71l-.36-.8a3.66,3.66,0,0,1,2.37-.85,2.36,2.36,0,0,1,2.56,2.43c0,1.55-1.12,2.8-2.88,4.49l-.67.62v0h3.76V203Z"/><path class="cls-5" d="M25.91,195.68h0l-1.45.78-.22-.86,1.83-1h1V203H25.91Z"/><path class="cls-5" d="M29.8,204.57a17.78,17.78,0,0,0,.77-3.08l1.26-.13a15.14,15.14,0,0,1-1.22,3.13Z"/><path class="cls-5" d="M35.42,195.68h0l-1.46.78-.22-.86,1.83-1h1V203h-1.1Z"/><path class="cls-5" d="M1.7,293.93h0l-1.45.78L0,293.85l1.83-1h1v8.36H1.7Z"/><path class="cls-5" d="M6,301.23v-.69l.88-.86c2.14-2,3.1-3.12,3.12-4.37a1.5,1.5,0,0,0-1.66-1.64,2.88,2.88,0,0,0-1.78.71l-.36-.8a3.66,3.66,0,0,1,2.37-.85,2.36,2.36,0,0,1,2.56,2.43c0,1.55-1.12,2.79-2.88,4.49l-.67.62v0H11.3v.93Z"/><path class="cls-5" d="M12.32,302.82a18.73,18.73,0,0,0,.77-3.08l1.26-.13a15.73,15.73,0,0,1-1.22,3.13Z"/><path class="cls-5" d="M19,301.23V299H15.09v-.75l3.73-5.34h1.23v5.2h1.17V299H20.05v2.27Zm0-3.16v-2.79c0-.44,0-.88,0-1.31h0c-.26.49-.47.85-.7,1.23l-2,2.84v0Z"/><path class="cls-5" d="M155.89,302.3a3.73,3.73,0,0,0-.85.05,3.38,3.38,0,0,0-2.91,3h0a2.55,2.55,0,0,1,4.54,1.74,2.79,2.79,0,0,1-2.78,2.94c-1.79,0-3-1.39-3-3.56a5.26,5.26,0,0,1,1.42-3.77,4.49,4.49,0,0,1,2.67-1.23,4.67,4.67,0,0,1,.83-.07Zm-.32,4.82a1.71,1.71,0,0,0-1.73-1.92,1.87,1.87,0,0,0-1.62,1,1,1,0,0,0-.13.5c0,1.38.66,2.4,1.84,2.4C154.91,309.13,155.57,308.32,155.57,307.12Z"/><path class="cls-5" d="M157.84,309.86v-.69l.89-.87c2.13-2,3.1-3.11,3.11-4.37a1.49,1.49,0,0,0-1.66-1.63,2.82,2.82,0,0,0-1.77.7l-.37-.79a3.68,3.68,0,0,1,2.37-.85,2.35,2.35,0,0,1,2.56,2.43c0,1.54-1.12,2.79-2.88,4.49l-.67.62v0h3.76v.94Z"/><path class="cls-5" d="M164.19,311.44a18.61,18.61,0,0,0,.77-3.07l1.26-.13a15.26,15.26,0,0,1-1.22,3.12Z"/><path class="cls-5" d="M172.34,302.45h-3.19l-.32,2.15a4.12,4.12,0,0,1,.68-.05,3.55,3.55,0,0,1,1.81.45,2.38,2.38,0,0,1,1.19,2.15A2.9,2.9,0,0,1,169.4,310a4.21,4.21,0,0,1-2.09-.51l.29-.86a3.83,3.83,0,0,0,1.79.46,1.85,1.85,0,0,0,2-1.82c0-1.08-.74-1.85-2.41-1.85a8.56,8.56,0,0,0-1.16.09l.54-4h4Z"/><path class="cls-5" d="M269.36,175.44h-3.19l-.33,2.15a5.65,5.65,0,0,1,.69-.05,3.54,3.54,0,0,1,1.8.45,2.4,2.4,0,0,1,1.19,2.15,2.91,2.91,0,0,1-3.11,2.86,4.06,4.06,0,0,1-2.08-.52l.28-.86a3.71,3.71,0,0,0,1.79.46,1.84,1.84,0,0,0,2-1.81c0-1.08-.73-1.85-2.41-1.85a8.26,8.26,0,0,0-1.15.09l.54-4h4Z"/><path class="cls-5" d="M270.72,184.44a18.73,18.73,0,0,0,.77-3.08l1.26-.13a16,16,0,0,1-1.22,3.13Z"/><path class="cls-5" d="M279.44,178.58c0,2.85-1.06,4.42-2.91,4.42-1.64,0-2.74-1.53-2.77-4.3s1.21-4.35,2.91-4.35S279.44,175.92,279.44,178.58Zm-4.55.13c0,2.18.67,3.41,1.7,3.41s1.71-1.35,1.71-3.48-.52-3.41-1.69-3.41C275.62,175.23,274.89,176.44,274.89,178.71Z"/><path class="cls-5" d="M304.76,181.56a3.86,3.86,0,0,0,1.85.52c1.46,0,1.91-.92,1.89-1.62,0-1.17-1.06-1.67-2.16-1.67h-.63v-.85h.63c.83,0,1.87-.42,1.87-1.41,0-.67-.43-1.26-1.47-1.26a3,3,0,0,0-1.67.55l-.3-.83a4,4,0,0,1,2.19-.64c1.65,0,2.39,1,2.39,2a2.06,2.06,0,0,1-1.54,2v0a2.18,2.18,0,0,1,1.86,2.15c0,1.34-1,2.51-3.05,2.51a4.25,4.25,0,0,1-2.17-.57Z"/><path class="cls-5" d="M310.84,184.44a18.73,18.73,0,0,0,.77-3.08l1.26-.13a15.37,15.37,0,0,1-1.22,3.13Z"/><path class="cls-5" d="M314.66,182.06a5.08,5.08,0,0,0,.91,0,3.13,3.13,0,0,0,1.75-.81,3.68,3.68,0,0,0,1.11-2.23h0a2.51,2.51,0,0,1-4.44-1.66,2.87,2.87,0,0,1,2.86-3c1.71,0,2.76,1.39,2.76,3.53a5.25,5.25,0,0,1-1.44,3.92,4.15,4.15,0,0,1-2.43,1.12,5,5,0,0,1-1,.06Zm.41-4.81a1.61,1.61,0,0,0,1.61,1.77,1.88,1.88,0,0,0,1.65-.87.84.84,0,0,0,.1-.42c0-1.42-.53-2.52-1.71-2.52C315.75,175.21,315.07,176.06,315.07,177.25Z"/><path class="cls-5" d="M357.2,133.92a4.41,4.41,0,0,0-.85.05,3.42,3.42,0,0,0-2.91,3h0a2.52,2.52,0,0,1,2-1,2.48,2.48,0,0,1,2.52,2.7,2.8,2.8,0,0,1-2.78,2.95c-1.78,0-2.95-1.39-2.95-3.57a5.29,5.29,0,0,1,1.41-3.77,4.58,4.58,0,0,1,2.68-1.23,5.42,5.42,0,0,1,.82-.06Zm-.32,4.83a1.7,1.7,0,0,0-1.73-1.92,1.86,1.86,0,0,0-1.62,1,1,1,0,0,0-.12.5c0,1.38.65,2.39,1.83,2.39C356.22,140.75,356.88,139.94,356.88,138.75Z"/><path class="cls-5" d="M364.14,134.08H361l-.32,2.14a5.31,5.31,0,0,1,.68-.05,3.49,3.49,0,0,1,1.8.45,2.4,2.4,0,0,1,1.2,2.15,2.91,2.91,0,0,1-3.11,2.86,4.07,4.07,0,0,1-2.09-.52l.29-.86a3.67,3.67,0,0,0,1.78.46,1.85,1.85,0,0,0,2-1.81c0-1.08-.74-1.85-2.41-1.85a8.42,8.42,0,0,0-1.16.09l.54-4h4Z"/><path class="cls-5" d="M365.5,143.07a17.78,17.78,0,0,0,.77-3.08l1.27-.13a15.68,15.68,0,0,1-1.23,3.13Z"/><path class="cls-5" d="M374.09,133.12v.75l-3.64,7.62h-1.17l3.63-7.4v0h-4.09v-.94Z"/><path class="cls-5" d="M325.26,7.43h0l-1.45.78-.22-.86,1.83-1h1v8.36h-1.09Z"/><path class="cls-5" d="M329.15,16.32a18.72,18.72,0,0,0,.78-3.08l1.26-.12A15.81,15.81,0,0,1,330,16.24Z"/><path class="cls-5" d="M337.87,10.47c0,2.84-1.05,4.41-2.9,4.41-1.64,0-2.74-1.53-2.77-4.3s1.21-4.35,2.91-4.35S337.87,7.8,337.87,10.47Zm-4.54.12c0,2.18.67,3.41,1.7,3.41s1.71-1.35,1.71-3.48-.53-3.41-1.7-3.41C334.05,7.11,333.33,8.32,333.33,10.59Z"/><path class="cls-5" d="M301.55,8.36V6.08h-3.88V5.34L301.4,0h1.22V5.2h1.17v.88h-1.17V8.36Zm0-3.16V2.41c0-.44,0-.88,0-1.32h0c-.26.49-.46.85-.69,1.24l-2.05,2.84v0Z"/><path class="cls-5" d="M304.4,9.94a18.59,18.59,0,0,0,.78-3.07l1.26-.13a16.19,16.19,0,0,1-1.23,3.13Z"/><path class="cls-5" d="M311.06,8.36V6.08h-3.88V5.34L310.91,0h1.22V5.2h1.17v.88h-1.17V8.36Zm0-3.16V2.41c0-.44,0-.88,0-1.32h0c-.25.49-.46.85-.69,1.24l-2,2.84v0Z"/><path class="cls-5" d="M359.15,309.06a4.31,4.31,0,0,0,.91,0,3.19,3.19,0,0,0,1.75-.81,3.7,3.7,0,0,0,1.11-2.22h0a2.49,2.49,0,0,1-2,.9,2.42,2.42,0,0,1-2.47-2.56,2.86,2.86,0,0,1,2.85-3c1.71,0,2.77,1.39,2.77,3.52a5.32,5.32,0,0,1-1.44,3.93,4.14,4.14,0,0,1-2.43,1.11,5.1,5.1,0,0,1-1,.07Zm.41-4.81a1.61,1.61,0,0,0,1.61,1.78,1.87,1.87,0,0,0,1.64-.88.69.69,0,0,0,.11-.41c0-1.43-.53-2.52-1.72-2.52C360.24,302.22,359.56,303.07,359.56,304.25Z"/><path class="cls-5" d="M367.67,302.55h0l-1.46.79-.22-.86,1.83-1h1v8.36h-1.09Z"/><path class="cls-5" d="M371.57,311.44a18.61,18.61,0,0,0,.77-3.07l1.26-.13a15.86,15.86,0,0,1-1.22,3.12Z"/><path class="cls-5" d="M380.29,305.59c0,2.84-1.06,4.41-2.91,4.41-1.64,0-2.74-1.53-2.77-4.3s1.21-4.34,2.91-4.34S380.29,302.93,380.29,305.59Zm-4.55.13c0,2.17.67,3.41,1.7,3.41s1.71-1.35,1.71-3.49-.52-3.41-1.69-3.41C376.46,302.23,375.74,303.44,375.74,305.72Z"/><g class="cls-6"><circle class="cls-2" cx="297.44" cy="83.99" r="70.64"/></g><g class="cls-7"><circle class="cls-3" cx="297.47" cy="84.37" r="70.64"/></g><circle class="cls-8" cx="297.47" cy="84.37" r="32.01"/><circle class="cls-4" cx="297.47" cy="258.61" r="70.62"/><polygon class="cls-5" points="317.21 16.16 304.91 53.23 306.43 53.63 320.87 17.33 317.21 16.16"/><path class="cls-5" d="M272.81,75.92a19.31,19.31,0,0,1,3.62-.32,6.4,6.4,0,0,1,4.22,1.12,3.23,3.23,0,0,1,1.27,2.71,3.64,3.64,0,0,1-2.6,3.37v0a4,4,0,0,1,3.17,3.85,4.11,4.11,0,0,1-1.3,3.07c-1.07,1-2.8,1.44-5.31,1.44a23.43,23.43,0,0,1-3.07-.18Zm2,6.29h1.8c2.1,0,3.33-1.09,3.33-2.57,0-1.8-1.37-2.51-3.38-2.51a8.27,8.27,0,0,0-1.75.14Zm0,7.36a10.44,10.44,0,0,0,1.66.09c2.05,0,3.94-.75,3.94-3s-1.8-3-4-3h-1.64Z"/><path class="cls-5" d="M298.33,84.33c-.12-2.14-.25-4.72-.23-6.63H298c-.52,1.8-1.16,3.71-1.94,5.83L293.38,91h-1.5l-2.48-7.31c-.73-2.17-1.35-4.15-1.78-6h-.05c0,1.91-.15,4.49-.29,6.79l-.41,6.58H285l1.07-15.35h2.53l2.62,7.43c.63,1.89,1.16,3.57,1.55,5.17h.06c.39-1.55.94-3.24,1.62-5.17l2.74-7.43h2.52l1,15.35h-1.94Z"/><path class="cls-5" d="M307.58,78.13h0L305,79.52,304.58,78l3.23-1.73h1.71v14.8h-1.94Z"/><path class="cls-5" d="M325,83.51c0,5-1.87,7.81-5.15,7.81-2.89,0-4.85-2.71-4.89-7.61s2.14-7.7,5.14-7.7S325,78.79,325,83.51Zm-8,.23c0,3.85,1.18,6,3,6,2.05,0,3-2.39,3-6.17s-.94-6-3-6C318.23,77.56,317,79.71,317,83.74Z"/><path class="cls-3" d="M273.62,192.12l20.59,56.43,2-20.4V188s-1.28-.7-11.92,1.24S273.62,192.12,273.62,192.12Z"/><path class="cls-2" d="M315.63,190.35l-10.08,39.77-9.37-2V188s.89-.44,9.73.5S315.63,190.35,315.63,190.35Z"/><circle class="cls-8" cx="297.33" cy="258.76" r="32.01"/><path class="cls-5" d="M281.9,250.09a21.41,21.41,0,0,1,3.91-.34,6.9,6.9,0,0,1,4.55,1.2,3.5,3.5,0,0,1,1.37,2.93,3.94,3.94,0,0,1-2.8,3.63v.05a4.27,4.27,0,0,1,3.41,4.15,4.44,4.44,0,0,1-1.4,3.32c-1.15,1.06-3,1.55-5.72,1.55a24.76,24.76,0,0,1-3.32-.2Zm2.14,6.78H286c2.26,0,3.59-1.18,3.59-2.77,0-1.94-1.48-2.7-3.64-2.7a9.69,9.69,0,0,0-1.89.14Zm0,7.94a11.84,11.84,0,0,0,1.79.1c2.22,0,4.25-.81,4.25-3.22,0-2.26-1.94-3.19-4.27-3.19H284Z"/><path class="cls-5" d="M302,266.43l-.17-1.5h-.07a4.44,4.44,0,0,1-3.64,1.77,3.39,3.39,0,0,1-3.64-3.41c0-2.88,2.56-4.45,7.15-4.43v-.24a2.45,2.45,0,0,0-2.7-2.75,5.94,5.94,0,0,0-3.1.88l-.49-1.42a7.4,7.4,0,0,1,3.91-1.06c3.64,0,4.52,2.48,4.52,4.86v4.45a16.47,16.47,0,0,0,.2,2.85Zm-.32-6.07c-2.36-.05-5,.37-5,2.68a1.91,1.91,0,0,0,2,2.06,3,3,0,0,0,2.88-2,2.32,2.32,0,0,0,.12-.68Z"/><path class="cls-5" d="M307.54,250.07a25.16,25.16,0,0,1,4.11-.32,6.76,6.76,0,0,1,4.64,1.38,4.44,4.44,0,0,1,1.45,3.46,4.86,4.86,0,0,1-1.28,3.54,6.87,6.87,0,0,1-5.06,1.81,7.53,7.53,0,0,1-1.72-.14v6.63h-2.14Zm2.14,8a6.84,6.84,0,0,0,1.77.18c2.58,0,4.15-1.26,4.15-3.54s-1.55-3.25-3.9-3.25a8.77,8.77,0,0,0-2,.18Z"/><path class="cls-4" d="M83.88,231.26s-10.78,6-15.09,10.84-7,16.15-7,16.15H21.3s.1-24.37,14.67-42.19c6.94-8.48,12.91-13.46,19.32-17.49a67.52,67.52,0,0,1,17-7.82Z"/><path class="cls-9" d="M59.55,260.5H21.3s.75,16.69,6.38,27.37a111.09,111.09,0,0,0,13.69,19.69L68,282.21s-5.91-7.09-7.45-12.15A25.48,25.48,0,0,1,59.55,260.5Z"/><path class="cls-9" d="M62.18,260.5H21.3s.75,16.69,6.38,27.37a111.09,111.09,0,0,0,13.69,19.69L71,280.75s-5.77-6.47-7.31-11.53A33,33,0,0,1,62.18,260.5Z"/><path class="cls-3" d="M73.29,190.19l11,38.25h6.94V188.12a33.69,33.69,0,0,0-9,0A30.8,30.8,0,0,0,73.29,190.19Z"/><circle class="cls-8" cx="92.24" cy="259.25" r="32.01"/><path class="cls-5" d="M79.92,261.83a7.58,7.58,0,0,0,3.83,1.08c2.19,0,3.47-1.16,3.47-2.83s-.89-2.43-3.12-3.29c-2.71-1-4.38-2.36-4.38-4.69,0-2.58,2.14-4.5,5.36-4.5a7.61,7.61,0,0,1,3.66.81l-.59,1.75a6.53,6.53,0,0,0-3.14-.79c-2.26,0-3.12,1.35-3.12,2.48,0,1.55,1,2.31,3.29,3.2,2.8,1.08,4.22,2.43,4.22,4.86s-1.89,4.77-5.79,4.77a8.55,8.55,0,0,1-4.23-1.06Z"/><path class="cls-5" d="M102.42,256.27c0,5.43-2,8.43-5.55,8.43-3.12,0-5.24-2.92-5.28-8.2s2.3-8.31,5.55-8.31S102.42,251.19,102.42,256.27Zm-8.67.25C93.75,260.67,95,263,97,263c2.21,0,3.27-2.58,3.27-6.66s-1-6.51-3.25-6.51C95.12,249.86,93.75,252.17,93.75,256.52Z"/><path class="cls-5" d="M104.19,272.61v-.77l1-1c2.37-2.26,3.45-3.47,3.46-4.87a1.66,1.66,0,0,0-1.84-1.82,3.16,3.16,0,0,0-2,.79l-.4-.89a4.09,4.09,0,0,1,2.63-.94,2.61,2.61,0,0,1,2.85,2.7c0,1.72-1.24,3.11-3.2,5l-.75.69v0h4.18v1.05Z"/><g class="cls-10"><circle class="cls-2" cx="91.24" cy="84.37" r="70.62"/></g><g class="cls-11"><circle class="cls-9" cx="91.24" cy="84.22" r="70.62"/></g><g class="cls-12"><circle class="cls-4" cx="91.24" cy="84.22" r="70.62"/></g><circle class="cls-8" cx="91.24" cy="82.35" r="32.01"/><path class="cls-5" d="M77.18,88.76V72.2h2.34l5.3,8.38a46.86,46.86,0,0,1,3,5.38l0,0c-.2-2.22-.25-4.23-.25-6.81V72.2h2V88.76H87.45l-5.25-8.4a52.62,52.62,0,0,1-3.1-5.53l-.07,0c.12,2.08.17,4.07.17,6.83v7.07Z"/><path class="cls-5" d="M103.44,80.6c0,5.43-2,8.43-5.55,8.43-3.12,0-5.23-2.92-5.28-8.2s2.31-8.31,5.55-8.31S103.44,75.52,103.44,80.6Zm-8.67.25c0,4.15,1.28,6.51,3.24,6.51,2.21,0,3.27-2.58,3.27-6.66s-1-6.51-3.24-6.51C96.14,74.19,94.77,76.5,94.77,80.85Z"/><path class="cls-5" d="M105.21,96.94v-.77l1-1c2.38-2.26,3.45-3.47,3.46-4.87a1.66,1.66,0,0,0-1.84-1.82,3.16,3.16,0,0,0-2,.79l-.4-.89a4.09,4.09,0,0,1,2.63-.94,2.61,2.61,0,0,1,2.85,2.7c0,1.72-1.24,3.11-3.2,5l-.75.69v0h4.18v1Z"/><path class="cls-9" d="M20.5,354.76c0-.68,0-1.22,0-1.72h.86l0,.9h0a2.07,2.07,0,0,1,1.87-1c1.27,0,2.23,1.08,2.23,2.68,0,1.89-1.16,2.82-2.4,2.82a1.86,1.86,0,0,1-1.62-.82h0v2.86H20.5Zm.95,1.4a2.34,2.34,0,0,0,0,.39,1.48,1.48,0,0,0,1.44,1.12c1,0,1.6-.82,1.6-2,0-1.06-.56-2-1.57-2a1.52,1.52,0,0,0-1.44,1.19,1.28,1.28,0,0,0-.07.39Z"/><path class="cls-9" d="M26.8,354.68c0-.62,0-1.15,0-1.64h.84l0,1h0a1.58,1.58,0,0,1,1.46-1.15,1.06,1.06,0,0,1,.27,0v.9a1.45,1.45,0,0,0-.32,0,1.34,1.34,0,0,0-1.29,1.23,2.89,2.89,0,0,0,0,.45v2.8H26.8Z"/><path class="cls-9" d="M30,357.75l2.38-3.1.69-.82v0H30.19V353h4v.6l-2.35,3.05c-.22.3-.43.56-.67.83v0h3.08v.76H30Z"/><path class="cls-9" d="M35.79,355.85a1.68,1.68,0,0,0,1.81,1.82,3.54,3.54,0,0,0,1.46-.27l.16.69a4.32,4.32,0,0,1-1.75.32,2.44,2.44,0,0,1-2.59-2.65,2.55,2.55,0,0,1,2.47-2.84,2.22,2.22,0,0,1,2.17,2.48,4,4,0,0,1,0,.45Zm2.81-.69a1.37,1.37,0,0,0-1.33-1.56,1.6,1.6,0,0,0-1.47,1.56Z"/><path class="cls-9" d="M40.82,354.46c0-.54,0-1,0-1.42h.83l0,.85h0a1.81,1.81,0,0,1,1.65-1A1.54,1.54,0,0,1,44.83,354h0a2.19,2.19,0,0,1,.58-.68,1.82,1.82,0,0,1,1.17-.37c.69,0,1.73.46,1.73,2.28v3.1H47.4v-3c0-1-.37-1.62-1.14-1.62a1.24,1.24,0,0,0-1.13.87,1.42,1.42,0,0,0-.08.48v3.25h-.93v-3.15c0-.84-.37-1.45-1.1-1.45a1.31,1.31,0,0,0-1.19,1,1.4,1.4,0,0,0-.08.47v3.17h-.93Z"/><path class="cls-9" d="M50.21,353l1.15,3.11c.12.35.25.76.34,1.08h0c.1-.32.21-.72.34-1.1l1-3.09h1l-1.44,3.75a7.89,7.89,0,0,1-1.81,3.3,2.54,2.54,0,0,1-1.17.62l-.24-.81a2.44,2.44,0,0,0,.84-.46,3,3,0,0,0,.8-1.07.57.57,0,0,0,.08-.23.73.73,0,0,0-.07-.25L49.17,353Z"/><path class="cls-9" d="M54.9,357.32a2.44,2.44,0,0,0,1.26.39c.7,0,1-.35,1-.79s-.28-.7-1-1c-1-.33-1.4-.85-1.4-1.49a1.62,1.62,0,0,1,1.82-1.54,2.61,2.61,0,0,1,1.3.33l-.24.69a2.08,2.08,0,0,0-1.08-.3c-.57,0-.88.32-.88.71s.31.64,1,.9c.91.35,1.38.8,1.38,1.59s-.72,1.57-2,1.57a3,3,0,0,1-1.48-.36Z"/><path class="cls-9" d="M59.49,358.3v-3.13l-.74.63v-.75l.74-.64v-3.83h1v3.1l.77-.66v.76l-.77.66v3.86Z"/><path class="cls-9" d="M25.05,368.58v6.36c0,.47,0,1,.05,1.36h-.86l0-.91h0a1.93,1.93,0,0,1-1.79,1,2.4,2.4,0,0,1-2.26-2.67,2.52,2.52,0,0,1,2.36-2.83,1.76,1.76,0,0,1,1.59.8h0v-3.14Zm-1,4.6a1.81,1.81,0,0,0,0-.4,1.4,1.4,0,0,0-1.38-1.11c-1,0-1.58.87-1.58,2s.52,1.95,1.56,1.95a1.43,1.43,0,0,0,1.4-1.14,1.78,1.78,0,0,0,0-.41Z"/><path class="cls-9" d="M31.51,373.63a2.56,2.56,0,0,1-2.62,2.79,2.5,2.5,0,0,1-2.52-2.7,2.57,2.57,0,0,1,2.61-2.8A2.49,2.49,0,0,1,31.51,373.63Zm-4.17.05c0,1.16.66,2,1.6,2s1.6-.86,1.6-2c0-.89-.45-2-1.58-2S27.34,372.68,27.34,373.68Z"/><path class="cls-9" d="M32.83,372.46c0-.54,0-1,0-1.42h.84l0,.85h0a1.84,1.84,0,0,1,1.66-1A1.56,1.56,0,0,1,36.85,372h0a2.09,2.09,0,0,1,.59-.68,1.77,1.77,0,0,1,1.16-.37c.7,0,1.73.46,1.73,2.28v3.1h-.94v-3c0-1-.37-1.62-1.14-1.62a1.24,1.24,0,0,0-1.13.87,1.72,1.72,0,0,0-.08.48v3.25h-.93v-3.15c0-.84-.37-1.45-1.1-1.45a1.32,1.32,0,0,0-1.19,1,1.41,1.41,0,0,0-.07.47v3.17h-.94Z"/><path class="cls-9" d="M42.22,371l1.16,3.11c.12.35.25.76.33,1.08h0c.1-.32.21-.72.34-1.1l1-3.09h1l-1.44,3.75a8,8,0,0,1-1.8,3.3,2.61,2.61,0,0,1-1.18.62l-.24-.81a2.36,2.36,0,0,0,.84-.46,2.87,2.87,0,0,0,.8-1.07.57.57,0,0,0,.08-.23.73.73,0,0,0-.07-.25L41.18,371Z"/><path class="cls-9" d="M54.29,373.63a2.57,2.57,0,0,1-2.62,2.79,2.5,2.5,0,0,1-2.53-2.7,2.57,2.57,0,0,1,2.61-2.8A2.49,2.49,0,0,1,54.29,373.63Zm-4.18.05c0,1.16.66,2,1.6,2s1.6-.86,1.6-2c0-.89-.45-2-1.58-2S50.11,372.68,50.11,373.68Z"/><path class="cls-9" d="M60.14,371c0,.38,0,.8,0,1.45v3.05a3,3,0,0,1-.75,2.41,2.79,2.79,0,0,1-1.92.63,3.34,3.34,0,0,1-1.75-.44l.24-.73a3,3,0,0,0,1.55.42c1,0,1.69-.51,1.69-1.84v-.59h0a1.87,1.87,0,0,1-1.67.88,2.35,2.35,0,0,1-2.24-2.56,2.53,2.53,0,0,1,2.37-2.8,1.76,1.76,0,0,1,1.64.91h0l.05-.79Zm-1,2.08a1.48,1.48,0,0,0,0-.44,1.39,1.39,0,0,0-1.34-1c-.91,0-1.57.77-1.57,2,0,1,.53,1.89,1.56,1.89a1.4,1.4,0,0,0,1.33-1,1.75,1.75,0,0,0,.07-.51Z"/><path class="cls-9" d="M61.73,372.68c0-.62,0-1.15,0-1.64h.84l0,1h0a1.58,1.58,0,0,1,1.46-1.15,1.06,1.06,0,0,1,.27,0v.9a1.45,1.45,0,0,0-.32,0,1.34,1.34,0,0,0-1.29,1.23,2.89,2.89,0,0,0,0,.45v2.8h-1Z"/><path class="cls-9" d="M64.9,375.75l2.38-3.1.69-.82v0H65.12V371h4v.6l-2.35,3.05c-.22.3-.43.56-.67.83v0h3.08v.76H64.9Z"/><path class="cls-9" d="M70.72,373.85a1.68,1.68,0,0,0,1.81,1.82A3.54,3.54,0,0,0,74,375.4l.16.69a4.32,4.32,0,0,1-1.75.32,2.44,2.44,0,0,1-2.59-2.65,2.55,2.55,0,0,1,2.47-2.84,2.22,2.22,0,0,1,2.17,2.48,4,4,0,0,1,0,.45Zm2.81-.69a1.37,1.37,0,0,0-1.33-1.56,1.6,1.6,0,0,0-1.47,1.56Z"/><path class="cls-9" d="M76.13,371l.7,2.68c.15.58.29,1.13.39,1.67h0c.12-.53.29-1.1.47-1.66l.86-2.69h.8l.82,2.63c.19.63.35,1.19.47,1.72h0c.09-.53.23-1.09.4-1.71l.75-2.64h1l-1.7,5.26h-.87l-.8-2.51a16.3,16.3,0,0,1-.47-1.73h0a16.26,16.26,0,0,1-.48,1.74l-.85,2.5h-.87L75.15,371Z"/><path class="cls-9" d="M86.74,376.3l-.08-.66h0a2,2,0,0,1-1.61.78,1.5,1.5,0,0,1-1.61-1.51c0-1.27,1.13-2,3.17-2v-.11a1.08,1.08,0,0,0-1.2-1.21A2.61,2.61,0,0,0,84,372l-.22-.63a3.2,3.2,0,0,1,1.73-.47c1.61,0,2,1.1,2,2.15v2a6.91,6.91,0,0,0,.09,1.26Zm-.14-2.68c-1,0-2.23.16-2.23,1.18a.85.85,0,0,0,.9.92,1.31,1.31,0,0,0,1.27-.88.85.85,0,0,0,.06-.31Z"/><path class="cls-9" d="M89.18,372.46c0-.54,0-1-.05-1.42H90l.06.87h0a1.94,1.94,0,0,1,1.74-1c.73,0,1.86.43,1.86,2.24v3.14h-1v-3c0-.85-.31-1.56-1.22-1.56a1.36,1.36,0,0,0-1.28,1,1.52,1.52,0,0,0-.07.45v3.16h-.95Z"/><path class="cls-9" d="M95.86,373.85a1.68,1.68,0,0,0,1.8,1.82,3.5,3.5,0,0,0,1.46-.27l.16.69a4.28,4.28,0,0,1-1.75.32,2.44,2.44,0,0,1-2.59-2.65,2.56,2.56,0,0,1,2.47-2.84,2.23,2.23,0,0,1,2.18,2.48,4,4,0,0,1,0,.45Zm2.8-.69a1.36,1.36,0,0,0-1.32-1.56,1.59,1.59,0,0,0-1.47,1.56Z"/><path class="cls-9" d="M104.37,369.56a.6.6,0,0,1-1.19,0,.58.58,0,0,1,.6-.6A.57.57,0,0,1,104.37,369.56Zm-1.07,6.74V371h1v5.26Z"/><path class="cls-9" d="M106,372.46c0-.54,0-1,0-1.42h.85l0,.87h0a1.94,1.94,0,0,1,1.74-1c.73,0,1.86.43,1.86,2.24v3.14h-1v-3c0-.85-.32-1.56-1.22-1.56a1.36,1.36,0,0,0-1.28,1,1.25,1.25,0,0,0-.07.45v3.16h-1Z"/><path class="cls-9" d="M116.65,368.58v6.36c0,.47,0,1,0,1.36h-.86l0-.91h0a2,2,0,0,1-1.8,1,2.39,2.39,0,0,1-2.25-2.67,2.52,2.52,0,0,1,2.36-2.83,1.76,1.76,0,0,1,1.59.8h0v-3.14Zm-1,4.6a1.81,1.81,0,0,0,0-.4,1.4,1.4,0,0,0-1.38-1.11c-1,0-1.58.87-1.58,2s.52,1.95,1.56,1.95a1.44,1.44,0,0,0,1.4-1.14,1.78,1.78,0,0,0,0-.41Z"/><path class="cls-9" d="M118.7,371l1.15,3.11c.12.35.25.76.34,1.08h0c.1-.32.21-.72.34-1.1l1-3.09h1l-1.43,3.75a8.12,8.12,0,0,1-1.81,3.3,2.61,2.61,0,0,1-1.18.62l-.23-.81a2.41,2.41,0,0,0,.83-.46,3,3,0,0,0,.81-1.07.71.71,0,0,0,.07-.23.93.93,0,0,0-.06-.25L117.65,371Z"/><path class="cls-9" d="M124.09,371l.7,2.68c.15.58.29,1.13.39,1.67h0c.12-.53.3-1.1.47-1.66l.86-2.69h.81l.81,2.63c.2.63.35,1.19.47,1.72h0c.09-.53.23-1.09.4-1.71l.76-2.64h.94l-1.7,5.26h-.87l-.8-2.51a16.3,16.3,0,0,1-.47-1.73h0a14.21,14.21,0,0,1-.48,1.74l-.85,2.5h-.87L123.11,371Z"/><path class="cls-9" d="M132.9,369.56a.6.6,0,0,1-1.19,0,.58.58,0,0,1,.6-.6A.57.57,0,0,1,132.9,369.56Zm-1.07,6.74V371h1v5.26Z"/><path class="cls-9" d="M139,368.58v6.36c0,.47,0,1,.05,1.36h-.86l-.05-.91h0a1.93,1.93,0,0,1-1.79,1,2.4,2.4,0,0,1-2.26-2.67,2.52,2.52,0,0,1,2.36-2.83,1.76,1.76,0,0,1,1.59.8h0v-3.14Zm-.95,4.6a1.83,1.83,0,0,0-.05-.4,1.4,1.4,0,0,0-1.38-1.11c-1,0-1.58.87-1.58,2s.52,1.95,1.56,1.95a1.43,1.43,0,0,0,1.4-1.14,1.77,1.77,0,0,0,.05-.41Z"/><path class="cls-9" d="M145.14,374.87c0,.54,0,1,0,1.43h-.85l-.05-.86h0a2,2,0,0,1-1.74,1c-.82,0-1.81-.45-1.81-2.3V371h1V374c0,1,.31,1.68,1.18,1.68a1.38,1.38,0,0,0,1.26-.87,1.3,1.3,0,0,0,.09-.49V371h1Z"/><path class="cls-9" d="M149.75,376.3l-.08-.66h0a2,2,0,0,1-1.61.78,1.5,1.5,0,0,1-1.61-1.51c0-1.27,1.13-2,3.17-2v-.11a1.08,1.08,0,0,0-1.2-1.21A2.61,2.61,0,0,0,147,372l-.22-.63a3.23,3.23,0,0,1,1.73-.47c1.61,0,2,1.1,2,2.15v2a7.93,7.93,0,0,0,.09,1.26Zm-.14-2.68c-1,0-2.23.16-2.23,1.18a.85.85,0,0,0,.9.92,1.31,1.31,0,0,0,1.27-.88.85.85,0,0,0,.06-.31Z"/><path class="cls-9" d="M152.19,368.58h1v7.72h-1Z"/><path class="cls-9" d="M154.87,372.46c0-.54,0-1-.05-1.42h.85l.06.87h0a1.94,1.94,0,0,1,1.74-1c.73,0,1.86.43,1.86,2.24v3.14h-1v-3c0-.85-.31-1.56-1.22-1.56a1.36,1.36,0,0,0-1.28,1,1.52,1.52,0,0,0-.07.45v3.16h-.95Z"/><path class="cls-9" d="M162.08,369.56a.6.6,0,0,1-1.19,0,.58.58,0,0,1,.6-.6A.57.57,0,0,1,162.08,369.56ZM161,376.3V371h1v5.26Z"/><path class="cls-9" d="M164.2,373.85a1.68,1.68,0,0,0,1.81,1.82,3.54,3.54,0,0,0,1.46-.27l.16.69a4.32,4.32,0,0,1-1.75.32,2.44,2.44,0,0,1-2.59-2.65,2.55,2.55,0,0,1,2.47-2.84,2.22,2.22,0,0,1,2.17,2.48,4,4,0,0,1,0,.45Zm2.81-.69a1.37,1.37,0,0,0-1.33-1.56,1.6,1.6,0,0,0-1.47,1.56Z"/><path class="cls-9" d="M98.44,351.06a10.67,10.67,0,0,1,1.82-.14,3,3,0,0,1,2.06.61,2,2,0,0,1,.64,1.53,2.17,2.17,0,0,1-.57,1.57,3,3,0,0,1-2.24.8,3.55,3.55,0,0,1-.76-.06v2.93h-1Zm1,3.53a2.92,2.92,0,0,0,.78.08c1.15,0,1.84-.55,1.84-1.57s-.68-1.43-1.73-1.43a4.29,4.29,0,0,0-.89.07Z"/><path class="cls-9" d="M109.92,358a6.87,6.87,0,0,1-2.25.4,3.44,3.44,0,0,1-3.76-3.7,3.67,3.67,0,0,1,4-3.78,4.57,4.57,0,0,1,1.82.33l-.22.78a3.78,3.78,0,0,0-1.63-.32,2.74,2.74,0,0,0-2.94,2.95,2.69,2.69,0,0,0,2.83,3,3,3,0,0,0,1.26-.2v-2.19h-1.49v-.76h2.41Z"/><path class="cls-9" d="M111.48,358.3V351h1l2.35,3.71a20.28,20.28,0,0,1,1.32,2.38h0c-.09-1-.11-1.87-.11-3V351H117v7.33h-1l-2.33-3.72a23.26,23.26,0,0,1-1.37-2.44h0c.06.92.08,1.8.08,3v3.13Z"/><path class="cls-9" d="M119.89,351.56a.6.6,0,0,1-1.19,0,.58.58,0,0,1,.6-.6A.57.57,0,0,1,119.89,351.56Zm-1.07,6.74V353h1v5.26Z"/><path class="cls-9" d="M127.09,358a6.87,6.87,0,0,1-2.25.4,3.44,3.44,0,0,1-3.76-3.7,3.67,3.67,0,0,1,4-3.78,4.63,4.63,0,0,1,1.83.33l-.23.78a3.73,3.73,0,0,0-1.62-.32,2.74,2.74,0,0,0-3,2.95,2.69,2.69,0,0,0,2.83,3,3,3,0,0,0,1.26-.2v-2.19h-1.49v-.76h2.41Z"/><path class="cls-9" d="M132,351.78h-2.23V351h5.43v.81H133v6.52h-1Z"/><path class="cls-9" d="M139.93,354.87h-2.85v2.64h3.18v.79h-4.12V351h4v.8h-3v2.31h2.85Z"/><path class="cls-9" d="M141.6,351.07a9.69,9.69,0,0,1,1.82-.15,3,3,0,0,1,2.12.6,1.8,1.8,0,0,1,.57,1.39,1.92,1.92,0,0,1-1.38,1.87v0a1.84,1.84,0,0,1,1.08,1.48,12.08,12.08,0,0,0,.56,2h-1a8.61,8.61,0,0,1-.49-1.75c-.22-1-.61-1.39-1.47-1.42h-.9v3.17h-.94Zm.94,3.34h1c1,0,1.66-.56,1.66-1.39s-.69-1.36-1.69-1.37a4.31,4.31,0,0,0-.94.08Z"/><path class="cls-9" d="M153.74,355.08c-.05-1-.12-2.25-.11-3.16h0c-.25.86-.55,1.77-.92,2.78l-1.3,3.56h-.72l-1.18-3.49c-.35-1-.65-2-.85-2.85h0c0,.91-.08,2.14-.15,3.24l-.19,3.14h-.9l.51-7.33h1.2l1.26,3.55c.3.9.55,1.71.74,2.47h0a24.81,24.81,0,0,1,.77-2.47l1.31-3.55h1.2l.46,7.33h-.92Z"/><path class="cls-9" d="M157.37,351v7.33h-1V351Z"/><path class="cls-9" d="M159.13,351h1v3.54h0c.19-.29.39-.55.58-.79l2.24-2.75h1.17l-2.65,3.11,2.86,4.22h-1.12l-2.42-3.6-.69.81v2.79h-1Z"/><path class="cls-9" d="M166.43,356l-.76,2.3h-1l2.49-7.33h1.14l2.51,7.33h-1L169,356Zm2.4-.74-.71-2.11a12.67,12.67,0,0,1-.38-1.34h0c-.11.43-.22.88-.37,1.33l-.71,2.12Z"/><path class="cls-9" d="M206.33,369.53V371h1.37v.73h-1.37v2.84c0,.65.18,1,.72,1a1.79,1.79,0,0,0,.55-.07l.05.72a2.29,2.29,0,0,1-.85.13,1.34,1.34,0,0,1-1-.4,2,2,0,0,1-.37-1.37v-2.87h-.81V371h.81v-1.26Z"/><path class="cls-9" d="M208.89,372.68c0-.62,0-1.15,0-1.64h.84l0,1h0a1.57,1.57,0,0,1,1.45-1.15,1.2,1.2,0,0,1,.28,0v.9a1.61,1.61,0,0,0-.33,0,1.34,1.34,0,0,0-1.28,1.23,2,2,0,0,0,0,.45v2.8h-.94Z"/><path class="cls-9" d="M215.42,376.3l-.08-.66h0a2,2,0,0,1-1.61.78,1.5,1.5,0,0,1-1.61-1.51c0-1.27,1.13-2,3.16-2v-.11a1.08,1.08,0,0,0-1.2-1.21,2.64,2.64,0,0,0-1.37.39l-.21-.63a3.18,3.18,0,0,1,1.73-.47c1.61,0,2,1.1,2,2.15v2a6.91,6.91,0,0,0,.09,1.26Zm-.15-2.68c-1,0-2.23.16-2.23,1.18a.86.86,0,0,0,.91.92,1.32,1.32,0,0,0,1.27-.88,1.12,1.12,0,0,0,.05-.31Z"/><path class="cls-9" d="M217.85,372.46c0-.54,0-1,0-1.42h.85l.05.87h0a2,2,0,0,1,1.74-1c.73,0,1.86.43,1.86,2.24v3.14h-1v-3c0-.85-.32-1.56-1.22-1.56a1.36,1.36,0,0,0-1.28,1,1.25,1.25,0,0,0-.07.45v3.16h-1Z"/><path class="cls-9" d="M223.87,375.32a2.44,2.44,0,0,0,1.26.39c.7,0,1-.35,1-.79s-.28-.7-1-1c-1-.33-1.4-.85-1.4-1.49a1.62,1.62,0,0,1,1.82-1.54,2.61,2.61,0,0,1,1.3.33l-.24.69a2.08,2.08,0,0,0-1.08-.3c-.57,0-.88.32-.88.71s.31.64,1,.9c.91.35,1.38.8,1.38,1.59s-.72,1.57-2,1.57a3,3,0,0,1-1.48-.36Z"/><path class="cls-9" d="M228.42,372.76c0-.68,0-1.22,0-1.72h.85l.05.9h0a2.07,2.07,0,0,1,1.87-1c1.27,0,2.23,1.08,2.23,2.68,0,1.89-1.15,2.82-2.39,2.82a1.83,1.83,0,0,1-1.62-.82h0v2.86h-.94Zm.94,1.4a2.3,2.3,0,0,0,0,.39,1.46,1.46,0,0,0,1.43,1.12c1,0,1.6-.82,1.6-2,0-1.06-.55-2-1.56-2a1.53,1.53,0,0,0-1.45,1.19,1.68,1.68,0,0,0-.07.39Z"/><path class="cls-9" d="M239.48,373.63a2.57,2.57,0,0,1-2.62,2.79,2.5,2.5,0,0,1-2.52-2.7,2.57,2.57,0,0,1,2.61-2.8A2.49,2.49,0,0,1,239.48,373.63Zm-4.17.05c0,1.16.66,2,1.6,2s1.59-.86,1.59-2c0-.89-.44-2-1.57-2S235.31,372.68,235.31,373.68Z"/><path class="cls-9" d="M240.8,372.68c0-.62,0-1.15,0-1.64h.84l0,1h0a1.58,1.58,0,0,1,1.46-1.15,1.12,1.12,0,0,1,.27,0v.9a1.51,1.51,0,0,0-.32,0,1.34,1.34,0,0,0-1.29,1.23,2.89,2.89,0,0,0,0,.45v2.8h-.95Z"/><path class="cls-9" d="M245.88,369.53V371h1.37v.73h-1.37v2.84c0,.65.19,1,.72,1a1.86,1.86,0,0,0,.56-.07l0,.72a2.29,2.29,0,0,1-.85.13,1.32,1.32,0,0,1-1-.4,1.91,1.91,0,0,1-.37-1.37v-2.87h-.82V371H245v-1.26Z"/><path class="cls-9" d="M10.9,402.48l3-4.39v0H11.16v-.59h3.65v.43l-3,4.37v0h3v.58H10.9Zm3.22-6.22-1,.94h-.57l.74-.94Z"/><path class="cls-9" d="M15.79,397.56a6.6,6.6,0,0,1,1.34-.12,2.2,2.2,0,0,1,1.57.45,1.35,1.35,0,0,1,.42,1,1.41,1.41,0,0,1-1,1.38v0a1.34,1.34,0,0,1,.8,1.09,8.22,8.22,0,0,0,.41,1.48h-.72a6.47,6.47,0,0,1-.36-1.29c-.16-.75-.45-1-1.08-1.05h-.66v2.34h-.7Zm.7,2.46h.71c.75,0,1.22-.41,1.22-1s-.5-1-1.24-1a2.41,2.41,0,0,0-.69.07Z"/><path class="cls-9" d="M24.83,400.13A2.53,2.53,0,0,1,22.32,403a2.48,2.48,0,0,1-2.43-2.74,2.57,2.57,0,0,1,2.51-2.84A2.46,2.46,0,0,1,24.83,400.13Zm-4.19.09c0,1.16.62,2.19,1.72,2.19s1.74-1,1.74-2.24-.57-2.2-1.73-2.2S20.64,399,20.64,400.22Zm2.89-4-1,.93h-.57l.74-.93Z"/><path class="cls-9" d="M25.82,397.56a9.27,9.27,0,0,1,1.49-.12,3.12,3.12,0,0,1,2.19.68,2.5,2.5,0,0,1,.76,1.94,2.83,2.83,0,0,1-.78,2.1,3.3,3.3,0,0,1-2.39.78,11.38,11.38,0,0,1-1.27-.06Zm.7,4.78a4.69,4.69,0,0,0,.71,0,2.08,2.08,0,0,0,2.3-2.3A1.92,1.92,0,0,0,27.34,398a4.07,4.07,0,0,0-.82.07Z"/><path class="cls-9" d="M31.28,402.89v-2.16l-.68.49v-.54l.68-.49v-2.71H32v2.23l1.07-.78v.55l-1.07.77v2.06h2.31v.58Z"/><path class="cls-9" d="M39.46,400.13A2.53,2.53,0,0,1,36.94,403a2.48,2.48,0,0,1-2.43-2.74A2.57,2.57,0,0,1,37,397.4,2.46,2.46,0,0,1,39.46,400.13Zm-4.2.09c0,1.16.62,2.19,1.72,2.19s1.74-1,1.74-2.24S38.16,398,37,398,35.26,399,35.26,400.22Z"/><path class="cls-9" d="M40.25,399.65a.47.47,0,0,1,.48-.5.5.5,0,1,1-.48.5Zm0,2.83a.47.47,0,0,1,.48-.5.48.48,0,0,1,.48.5.48.48,0,1,1-1,0Z"/><path class="cls-9" d="M43.87,402a2.39,2.39,0,0,0,1.25.36c.72,0,1.13-.38,1.13-.93s-.29-.79-1-1.07-1.43-.77-1.43-1.54a1.55,1.55,0,0,1,1.75-1.46,2.42,2.42,0,0,1,1.2.26l-.19.57a2.13,2.13,0,0,0-1-.26c-.74,0-1,.45-1,.81,0,.51.33.76,1.08,1.05.91.35,1.38.79,1.38,1.59s-.62,1.55-1.9,1.55a2.83,2.83,0,0,1-1.38-.34Z"/><path class="cls-9" d="M48.81,397.89V399h1v.54h-1v2.09c0,.48.13.76.53.76a1.81,1.81,0,0,0,.41,0l0,.53a2,2,0,0,1-.63.09,1,1,0,0,1-.76-.29,1.45,1.45,0,0,1-.27-1v-2.12h-.61V399h.61v-.93Z"/><path class="cls-9" d="M52.84,402.89l-.05-.49h0a1.44,1.44,0,0,1-1.19.58,1.1,1.1,0,0,1-1.18-1.11c0-.94.83-1.46,2.33-1.45v-.08a.8.8,0,0,0-.88-.9,2,2,0,0,0-1,.29l-.16-.46a2.37,2.37,0,0,1,1.27-.35c1.19,0,1.48.81,1.48,1.59V402a6.41,6.41,0,0,0,.06.93Zm-.1-2c-.77,0-1.65.12-1.65.88a.63.63,0,0,0,.67.67,1,1,0,0,0,.94-.65.85.85,0,0,0,0-.22Z"/><path class="cls-9" d="M54.64,400.06c0-.4,0-.73,0-1.05h.62l0,.64h0a1.42,1.42,0,0,1,1.28-.73c.54,0,1.38.32,1.38,1.65v2.32h-.71v-2.24c0-.62-.23-1.14-.9-1.14a1,1,0,0,0-1,.72,1.11,1.11,0,0,0,0,.33v2.33h-.71Z"/><path class="cls-9" d="M60.86,402.17a1.83,1.83,0,0,0,.93.28c.51,0,.75-.25.75-.58s-.2-.52-.72-.71c-.7-.25-1-.63-1-1.1a1.2,1.2,0,0,1,1.34-1.14,1.93,1.93,0,0,1,1,.24l-.18.52a1.45,1.45,0,0,0-.79-.23c-.42,0-.65.24-.65.53s.23.47.74.66c.67.26,1,.59,1,1.17S62.7,403,61.77,403a2.25,2.25,0,0,1-1.09-.26Zm2.25-4.84-1,1.15h-.51l.71-1.15Z"/><path class="cls-9" d="M64.21,400.22c0-.46,0-.85,0-1.21h.62l0,.76h0a1.18,1.18,0,0,1,1.08-.85l.2,0v.67l-.24,0a1,1,0,0,0-1,.9,3.11,3.11,0,0,0,0,.33v2.07h-.7Z"/><path class="cls-9" d="M70.35,400.92A1.89,1.89,0,0,1,68.42,403a1.85,1.85,0,0,1-1.86-2,1.89,1.89,0,0,1,1.92-2.06A1.84,1.84,0,0,1,70.35,400.92Zm-3.08,0c0,.85.49,1.49,1.18,1.49s1.18-.63,1.18-1.51c0-.65-.33-1.49-1.16-1.49S67.27,400.22,67.27,401Z"/><path class="cls-9" d="M74.68,397.2v4.69c0,.35,0,.74,0,1h-.63l0-.67h0a1.45,1.45,0,0,1-1.33.76A1.77,1.77,0,0,1,71,401a1.86,1.86,0,0,1,1.74-2.09,1.3,1.3,0,0,1,1.18.6h0V397.2ZM74,400.59a1.53,1.53,0,0,0,0-.3,1,1,0,0,0-1-.81c-.73,0-1.16.64-1.16,1.5s.38,1.43,1.14,1.43a1.06,1.06,0,0,0,1-.84,1.45,1.45,0,0,0,0-.3Z"/><path class="cls-9" d="M79.45,400.92A1.9,1.9,0,0,1,77.51,403a1.85,1.85,0,0,1-1.86-2,1.9,1.9,0,0,1,1.93-2.06A1.84,1.84,0,0,1,79.45,400.92Zm-3.09,0c0,.85.49,1.49,1.18,1.49s1.18-.63,1.18-1.51c0-.65-.33-1.49-1.16-1.49S76.36,400.22,76.36,401Z"/><path class="cls-9" d="M80.64,399l.51,2c.12.44.22.84.29,1.24h0c.08-.39.21-.81.34-1.23l.64-2H83l.6,1.94c.15.47.26.88.35,1.27h0a10.76,10.76,0,0,1,.3-1.26l.55-1.95h.7l-1.25,3.88h-.64l-.6-1.85a10.45,10.45,0,0,1-.34-1.28h0c-.1.47-.22.87-.35,1.29l-.63,1.84h-.64L79.92,399Z"/><path class="cls-9" d="M87.13,397.92a.44.44,0,0,1-.87,0,.43.43,0,0,1,.44-.44A.42.42,0,0,1,87.13,397.92Zm-.79,5V399h.71v3.88Z"/><path class="cls-9" d="M88.21,402.17a1.83,1.83,0,0,0,.93.28c.51,0,.75-.25.75-.58s-.2-.52-.72-.71c-.7-.25-1-.63-1-1.1a1.2,1.2,0,0,1,1.34-1.14,1.93,1.93,0,0,1,1,.24l-.18.52a1.45,1.45,0,0,0-.79-.23c-.42,0-.65.24-.65.53s.23.47.74.66c.67.26,1,.59,1,1.17S90,403,89.12,403a2.22,2.22,0,0,1-1.09-.26Z"/><path class="cls-9" d="M92.26,400.79h0c.09-.14.23-.3.34-.44L93.76,399h.85l-1.5,1.6,1.71,2.28H94L92.62,401l-.36.4v1.46h-.7V397.2h.7Z"/><path class="cls-9" d="M97.7,402.89l-.06-.49h0a1.44,1.44,0,0,1-1.19.58,1.1,1.1,0,0,1-1.18-1.11c0-.94.83-1.46,2.33-1.45v-.08a.8.8,0,0,0-.88-.9,2,2,0,0,0-1,.29l-.16-.46a2.37,2.37,0,0,1,1.27-.35c1.19,0,1.48.81,1.48,1.59V402a5.25,5.25,0,0,0,.06.93Zm-.1-2c-.77,0-1.65.12-1.65.88a.63.63,0,0,0,.67.67,1,1,0,0,0,.94-.65.85.85,0,0,0,0-.22Z"/><path class="cls-9" d="M101.56,399l.51,2c.12.44.22.84.29,1.24h0c.09-.39.21-.81.34-1.23l.64-2H104l.6,1.94c.15.47.26.88.35,1.27h0c.07-.39.17-.8.3-1.26l.55-1.95h.7l-1.25,3.88h-.64L104,401a12.62,12.62,0,0,1-.34-1.28h0c-.1.47-.22.87-.35,1.29l-.63,1.84H102L100.84,399Z"/><path class="cls-9" d="M109.33,399l.51,2c.12.44.22.84.29,1.24h0c.08-.39.21-.81.34-1.23l.63-2h.6l.6,1.94c.14.47.26.88.35,1.27h0A10.76,10.76,0,0,1,113,401l.55-1.95h.7L113,402.89h-.65l-.59-1.85a10.45,10.45,0,0,1-.34-1.28h0c-.1.47-.22.87-.35,1.29l-.63,1.84h-.64L108.61,399Z"/><path class="cls-9" d="M118.47,400.92a1.9,1.9,0,0,1-1.93,2.06,1.85,1.85,0,0,1-1.87-2,1.9,1.9,0,0,1,1.93-2.06A1.84,1.84,0,0,1,118.47,400.92Zm-3.08,0c0,.85.49,1.49,1.18,1.49s1.18-.63,1.18-1.51c0-.65-.33-1.49-1.17-1.49S115.39,400.22,115.39,401Z"/><path class="cls-9" d="M118.49,404a1.15,1.15,0,0,0,.77-.3c.2-.22.27-.53.27-1.46V399h.7v3.52a2.15,2.15,0,0,1-.46,1.6,1.81,1.81,0,0,1-1.21.44Zm1.82-6.1a.41.41,0,0,1-.44.43.42.42,0,0,1-.43-.43.43.43,0,0,1,.45-.44A.41.41,0,0,1,120.31,397.92Z"/><path class="cls-9" d="M121.86,401.08a1.25,1.25,0,0,0,1.34,1.35,2.57,2.57,0,0,0,1.07-.2l.12.5a3,3,0,0,1-1.29.24,1.8,1.8,0,0,1-1.91-2,1.89,1.89,0,0,1,1.82-2.1,1.65,1.65,0,0,1,1.61,1.83,2.06,2.06,0,0,1,0,.33Zm2.07-.51a1,1,0,0,0-1-1.14,1.17,1.17,0,0,0-1.08,1.14Z"/><path class="cls-9" d="M125.85,399l.52,2c.11.44.21.84.28,1.24h0c.09-.39.21-.81.34-1.23l.64-2h.59l.6,1.94c.15.47.26.88.35,1.27h0c.07-.39.17-.8.3-1.26l.55-1.95h.7l-1.25,3.88h-.64l-.6-1.85a12.62,12.62,0,0,1-.34-1.28h0a9.72,9.72,0,0,1-.35,1.29l-.63,1.84h-.64L125.13,399Z"/><path class="cls-9" d="M135,400.92a1.89,1.89,0,0,1-1.93,2.06,1.85,1.85,0,0,1-1.86-2,1.89,1.89,0,0,1,1.92-2.06A1.84,1.84,0,0,1,135,400.92Zm-3.08,0c0,.85.49,1.49,1.18,1.49s1.18-.63,1.18-1.51c0-.65-.33-1.49-1.16-1.49S131.91,400.22,131.91,401Zm2.24-3.63-1,1.15h-.51l.71-1.15Z"/><path class="cls-9" d="M139.32,397.2v4.69c0,.35,0,.74,0,1h-.63l0-.67h0a1.45,1.45,0,0,1-1.33.76,1.77,1.77,0,0,1-1.66-2,1.86,1.86,0,0,1,1.74-2.09,1.3,1.3,0,0,1,1.18.6h0V397.2Zm-.71,3.39a1.53,1.53,0,0,0,0-.3,1,1,0,0,0-1-.81c-.73,0-1.16.64-1.16,1.5s.38,1.43,1.14,1.43a1.06,1.06,0,0,0,1-.84,1.45,1.45,0,0,0,0-.3Z"/><path class="cls-9" d="M140.13,402.48l1.76-2.28c.16-.21.32-.4.5-.6v0h-2.1V399h3v.44l-1.73,2.26c-.16.21-.32.41-.5.61h2.27v.56h-3.15Z"/><path class="cls-9" d="M144.93,397.89V399h1v.54h-1v2.09c0,.48.14.76.53.76a1.66,1.66,0,0,0,.41,0l0,.53a2,2,0,0,1-.63.09,1,1,0,0,1-.76-.29,1.45,1.45,0,0,1-.28-1v-2.12h-.6V399h.6v-.93Z"/><path class="cls-9" d="M147.17,399l.52,2c.11.44.21.84.29,1.24h0c.09-.39.22-.81.35-1.23l.63-2h.59l.6,1.94c.15.47.26.88.35,1.27h0c.07-.39.17-.8.3-1.26l.56-1.95h.69l-1.25,3.88h-.64l-.59-1.85a12.63,12.63,0,0,1-.35-1.28h0a9.72,9.72,0,0,1-.35,1.29l-.63,1.84h-.64L146.45,399Z"/><path class="cls-9" d="M153.67,397.92a.44.44,0,0,1-.88,0,.43.43,0,0,1,.44-.44A.42.42,0,0,1,153.67,397.92Zm-.79,5V399h.7v3.88Z"/><path class="cls-9" d="M155.23,401.08a1.25,1.25,0,0,0,1.33,1.35,2.62,2.62,0,0,0,1.08-.2l.12.5a3,3,0,0,1-1.29.24,1.8,1.8,0,0,1-1.91-2,1.89,1.89,0,0,1,1.82-2.1,1.64,1.64,0,0,1,1.6,1.83,2.38,2.38,0,0,1,0,.33Zm2.07-.51a1,1,0,0,0-1-1.14,1.16,1.16,0,0,0-1.08,1.14Z"/><path class="cls-9" d="M160.72,400.06c0-.4,0-.73,0-1.05h.62l0,.63h0a1.35,1.35,0,0,1,1.22-.72,1.15,1.15,0,0,1,1.1.78h0a1.57,1.57,0,0,1,.43-.51,1.36,1.36,0,0,1,.86-.27c.51,0,1.28.34,1.28,1.69v2.28h-.69v-2.2c0-.74-.28-1.19-.85-1.19a.91.91,0,0,0-.83.64,1.28,1.28,0,0,0-.06.35v2.4h-.69v-2.32c0-.62-.27-1.07-.81-1.07a1,1,0,0,0-.87.71.93.93,0,0,0-.06.34v2.34h-.69Z"/><path class="cls-9" d="M169.64,402.89l0-.49h0a1.42,1.42,0,0,1-1.18.58,1.1,1.1,0,0,1-1.19-1.11c0-.94.83-1.46,2.33-1.45v-.08a.8.8,0,0,0-.88-.9,2,2,0,0,0-1,.29l-.16-.46a2.37,2.37,0,0,1,1.27-.35c1.19,0,1.48.81,1.48,1.59V402a5.18,5.18,0,0,0,.07.93Zm-.1-2c-.77,0-1.65.12-1.65.88a.63.63,0,0,0,.67.67,1,1,0,0,0,.94-.65.85.85,0,0,0,0-.22Z"/><path class="cls-9" d="M171,402.48l1.76-2.28c.16-.21.33-.4.5-.6v0h-2.1V399h3v.44l-1.73,2.26c-.16.21-.32.41-.5.61h2.27v.56H171Z"/><path class="cls-9" d="M178.41,400.92a1.89,1.89,0,0,1-1.93,2.06,1.85,1.85,0,0,1-1.86-2,1.89,1.89,0,0,1,1.92-2.06A1.84,1.84,0,0,1,178.41,400.92Zm-3.08,0c0,.85.49,1.49,1.18,1.49s1.18-.63,1.18-1.51c0-.65-.33-1.49-1.16-1.49S175.33,400.22,175.33,401Z"/><path class="cls-9" d="M179.61,399l.51,2c.12.44.22.84.29,1.24h0c.09-.39.21-.81.34-1.23l.64-2H182l.6,1.94c.15.47.26.88.35,1.27h0a10.76,10.76,0,0,1,.3-1.26l.55-1.95h.7l-1.25,3.88h-.64L182,401a12.62,12.62,0,0,1-.34-1.28h0c-.1.47-.22.87-.35,1.29l-.63,1.84h-.64L178.89,399Z"/><path class="cls-9" d="M186.1,397.92a.44.44,0,0,1-.87,0,.43.43,0,0,1,.44-.44A.42.42,0,0,1,186.1,397.92Zm-.78,5V399h.7v3.88Z"/><path class="cls-9" d="M187.67,401.08a1.24,1.24,0,0,0,1.33,1.35,2.57,2.57,0,0,0,1.07-.2l.13.5a3.06,3.06,0,0,1-1.3.24,1.8,1.8,0,0,1-1.91-2,1.89,1.89,0,0,1,1.82-2.1,1.65,1.65,0,0,1,1.61,1.83c0,.15,0,.26,0,.33Zm2.07-.51a1,1,0,0,0-1-1.14,1.17,1.17,0,0,0-1.09,1.14Z"/><path class="cls-9" d="M194.14,402.75A2.52,2.52,0,0,1,193,403a1.85,1.85,0,0,1-1.94-2,2,2,0,0,1,2.09-2.06,2.29,2.29,0,0,1,1,.2l-.16.55a1.59,1.59,0,0,0-.82-.19,1.34,1.34,0,0,0-1.37,1.47,1.33,1.33,0,0,0,1.35,1.45,2,2,0,0,0,.86-.19Z"/><path class="cls-9" d="M195.75,400.79h0c.1-.14.24-.3.35-.44l1.14-1.34h.85l-1.5,1.6,1.71,2.28h-.86L196.11,401l-.36.4v1.46h-.7V397.2h.7Z"/><path class="cls-9" d="M199.81,397.92a.41.41,0,0,1-.44.43.42.42,0,0,1-.43-.43.43.43,0,0,1,.44-.44A.41.41,0,0,1,199.81,397.92Zm-.78,5V399h.7v3.88Z"/><path class="cls-9" d="M201,400.06c0-.4,0-.73,0-1.05h.61l0,.63h0a1.35,1.35,0,0,1,1.22-.72,1.15,1.15,0,0,1,1.1.78h0a1.59,1.59,0,0,1,.44-.51,1.36,1.36,0,0,1,.86-.27c.51,0,1.27.34,1.27,1.69v2.28h-.69v-2.2c0-.74-.27-1.19-.84-1.19a.91.91,0,0,0-.83.64,1,1,0,0,0-.06.35v2.4h-.69v-2.32c0-.62-.27-1.07-.81-1.07a1,1,0,0,0-.88.71.93.93,0,0,0,0,.34v2.34H201Z"/><path class="cls-9" d="M209.82,399l.52,2c.11.44.21.84.28,1.24h0c.09-.39.22-.81.34-1.23l.64-2h.59l.6,1.94c.15.47.26.88.35,1.27h0c.07-.39.17-.8.3-1.26L214,399h.7l-1.25,3.88h-.64l-.6-1.85a12.62,12.62,0,0,1-.34-1.28h0a9.72,9.72,0,0,1-.35,1.29l-.63,1.84h-.64L209.1,399Z"/><path class="cls-9" d="M217.08,402.89v-.43l.56-.54c1.33-1.27,1.93-1.94,1.94-2.73a.93.93,0,0,0-1-1,1.77,1.77,0,0,0-1.1.45l-.23-.5a2.27,2.27,0,0,1,1.48-.53,1.47,1.47,0,0,1,1.6,1.52c0,1-.7,1.74-1.8,2.8l-.42.38v0h2.35v.58Z"/><path class="cls-9" d="M224.75,400.23c0,1.77-.66,2.75-1.82,2.75s-1.71-1-1.72-2.68.75-2.71,1.81-2.71S224.75,398.57,224.75,400.23Zm-2.84.08c0,1.36.42,2.13,1.06,2.13s1.07-.85,1.07-2.18-.33-2.13-1.06-2.13S221.91,398.89,221.91,400.31Z"/><path class="cls-9" d="M227,398.34h0l-.9.48-.14-.53,1.14-.61h.6v5.21H227Z"/><path class="cls-9" d="M232.79,398.27h-2l-.2,1.34a3.89,3.89,0,0,1,.42,0,2.28,2.28,0,0,1,1.13.28,1.49,1.49,0,0,1,.74,1.34A1.81,1.81,0,0,1,231,403a2.56,2.56,0,0,1-1.3-.32l.18-.54a2.28,2.28,0,0,0,1.11.29,1.15,1.15,0,0,0,1.24-1.13c0-.67-.46-1.15-1.5-1.15a6.22,6.22,0,0,0-.72.05l.33-2.5h2.5Z"/><path class="cls-9" d="M235.88,400.22c0-.46,0-.85,0-1.21h.62l0,.76h0a1.16,1.16,0,0,1,1.07-.85l.2,0v.67l-.24,0a1,1,0,0,0-.94.9,1.66,1.66,0,0,0,0,.33v2.07h-.69Z"/><path class="cls-9" d="M238,402.48a.48.48,0,0,1,.48-.51.47.47,0,0,1,.47.51.48.48,0,1,1-.95,0Z"/><path class="cls-9" d="M242.3,402.89l-1.38-5.41h.74l.64,2.74c.16.68.31,1.35.41,1.87h0c.09-.54.26-1.18.44-1.88l.73-2.73h.73l.65,2.75a18.49,18.49,0,0,1,.38,1.85h0c.11-.59.26-1.19.43-1.87l.72-2.73h.71L246,402.89h-.73l-.69-2.81a17.69,17.69,0,0,1-.35-1.77h0a15.41,15.41,0,0,1-.41,1.77l-.77,2.81Z"/><path class="cls-9" d="M252.91,400.13a2.54,2.54,0,0,1-2.52,2.85,2.48,2.48,0,0,1-2.43-2.74,2.57,2.57,0,0,1,2.51-2.84A2.46,2.46,0,0,1,252.91,400.13Zm-4.2.09c0,1.16.62,2.19,1.72,2.19s1.74-1,1.74-2.24-.56-2.2-1.73-2.2S248.71,399,248.71,400.22Z"/><path class="cls-9" d="M253.8,402a2.39,2.39,0,0,0,1.25.36c.71,0,1.13-.38,1.13-.93s-.29-.79-1-1.07c-.88-.32-1.43-.77-1.43-1.54a1.55,1.55,0,0,1,1.75-1.46,2.42,2.42,0,0,1,1.2.26l-.2.57a2,2,0,0,0-1-.26c-.74,0-1,.45-1,.81,0,.51.33.76,1.07,1.05.92.35,1.38.79,1.38,1.59S256.28,403,255,403a2.83,2.83,0,0,1-1.38-.34Zm2.73-5.8-1,.93h-.57l.73-.93Z"/><path class="cls-9" d="M260.3,402.89l-1.37-5.41h.74l.64,2.74c.16.68.31,1.35.4,1.87h0c.09-.54.26-1.18.44-1.88l.72-2.73h.73l.66,2.75c.15.64.3,1.28.38,1.85h0c.12-.59.27-1.19.44-1.87l.71-2.73h.72L264,402.89h-.73l-.68-2.81a15.24,15.24,0,0,1-.35-1.77h0a18.19,18.19,0,0,1-.42,1.77l-.77,2.81Z"/><path class="cls-9" d="M268.15,402.89l0-.49h0a1.42,1.42,0,0,1-1.19.58,1.1,1.1,0,0,1-1.18-1.11c0-.94.83-1.46,2.33-1.45v-.08a.8.8,0,0,0-.88-.9,2,2,0,0,0-1,.29l-.16-.46a2.37,2.37,0,0,1,1.27-.35c1.19,0,1.48.81,1.48,1.59V402a6.41,6.41,0,0,0,.06.93Zm-.1-2c-.77,0-1.65.12-1.65.88a.63.63,0,0,0,.67.67,1,1,0,0,0,.94-.65.85.85,0,0,0,0-.22Z"/><path class="cls-9" d="M270,400.22c0-.46,0-.85,0-1.21h.62l0,.76h0a1.17,1.17,0,0,1,1.08-.85l.2,0v.67l-.24,0a1,1,0,0,0-.95.9,1.69,1.69,0,0,0,0,.33v2.07H270Z"/><path class="cls-9" d="M272.56,402.17a1.83,1.83,0,0,0,.93.28c.51,0,.75-.25.75-.58s-.2-.52-.72-.71c-.7-.25-1-.63-1-1.1a1.2,1.2,0,0,1,1.34-1.14,1.93,1.93,0,0,1,1,.24l-.18.52a1.45,1.45,0,0,0-.79-.23c-.42,0-.65.24-.65.53s.23.47.74.66c.67.26,1,.59,1,1.17s-.53,1.16-1.46,1.16a2.22,2.22,0,0,1-1.09-.26Z"/><path class="cls-9" d="M275.47,402.48l1.76-2.28.5-.6v0h-2.1V399h3v.44l-1.73,2.26c-.16.21-.32.41-.5.61h2.27v.56h-3.15Z"/><path class="cls-9" d="M281.58,402.89l-.06-.49h0a1.45,1.45,0,0,1-1.19.58,1.1,1.1,0,0,1-1.19-1.11c0-.94.84-1.46,2.34-1.45v-.08a.8.8,0,0,0-.89-.9,2,2,0,0,0-1,.29l-.16-.46a2.41,2.41,0,0,1,1.28-.35c1.19,0,1.48.81,1.48,1.59V402a5.25,5.25,0,0,0,.06.93Zm-.11-2c-.77,0-1.64.12-1.64.88a.62.62,0,0,0,.66.67,1,1,0,0,0,.94-.65.57.57,0,0,0,0-.22Z"/><path class="cls-9" d="M283.59,399l.52,2c.11.44.21.84.28,1.24h0c.09-.39.22-.81.34-1.23l.64-2H286l.6,1.94c.15.47.26.88.35,1.27h0c.07-.39.17-.8.3-1.26l.55-1.95h.7l-1.25,3.88h-.64L286,401c-.13-.43-.24-.82-.34-1.28h0a9.72,9.72,0,0,1-.35,1.29l-.63,1.84H284L282.87,399Z"/><path class="cls-9" d="M291.42,402.89l-.06-.49h0a1.45,1.45,0,0,1-1.19.58,1.1,1.1,0,0,1-1.19-1.11c0-.94.84-1.46,2.34-1.45v-.08a.8.8,0,0,0-.89-.9,2,2,0,0,0-1,.29l-.16-.46a2.41,2.41,0,0,1,1.28-.35c1.19,0,1.48.81,1.48,1.59V402a5.25,5.25,0,0,0,.06.93Zm-.11-2c-.77,0-1.64.12-1.64.88a.62.62,0,0,0,.66.67,1,1,0,0,0,.94-.65.57.57,0,0,0,0-.22Z"/><path class="cls-9" d="M294.77,402.89v-.43l.56-.54c1.33-1.27,1.93-1.94,1.94-2.73a.93.93,0,0,0-1-1,1.82,1.82,0,0,0-1.11.45l-.22-.5a2.25,2.25,0,0,1,1.48-.53,1.46,1.46,0,0,1,1.59,1.52c0,1-.69,1.74-1.79,2.8l-.42.38v0h2.34v.58Z"/><path class="cls-9" d="M302.43,400.23c0,1.77-.65,2.75-1.81,2.75s-1.71-1-1.72-2.68.75-2.71,1.81-2.71S302.43,398.57,302.43,400.23Zm-2.83.08c0,1.36.42,2.13,1.06,2.13s1.07-.85,1.07-2.18-.33-2.13-1.06-2.13S299.6,398.89,299.6,400.31Z"/><path class="cls-9" d="M304.7,398.34h0l-.91.48-.13-.53,1.14-.61h.6v5.21h-.68Z"/><path class="cls-9" d="M310.34,398.17a2.6,2.6,0,0,0-.53,0,2.1,2.1,0,0,0-1.81,1.85h0a1.59,1.59,0,0,1,2.83,1.08,1.74,1.74,0,0,1-1.73,1.84c-1.12,0-1.85-.86-1.85-2.22a3.24,3.24,0,0,1,.89-2.35,2.8,2.8,0,0,1,1.67-.77,2.51,2.51,0,0,1,.51,0Zm-.2,3a1.06,1.06,0,0,0-1.08-1.19,1.16,1.16,0,0,0-1,.64.57.57,0,0,0-.08.31c0,.86.41,1.5,1.15,1.5S310.14,401.93,310.14,401.18Z"/><path class="cls-9" d="M313.56,400.22c0-.46,0-.85,0-1.21h.62l0,.76h0a1.16,1.16,0,0,1,1.07-.85l.2,0v.67l-.24,0a1,1,0,0,0-.95.9,3.11,3.11,0,0,0,0,.33v2.07h-.7Z"/><path class="cls-9" d="M315.67,402.48a.48.48,0,0,1,.48-.51.51.51,0,1,1-.48.51Z"/><rect class="cls-2" x="8.66" y="351.5" width="7.81" height="7.81"/><rect class="cls-4" x="8.66" y="368.5" width="7.81" height="7.81"/><rect class="cls-9" x="86.93" y="350.5" width="7.09" height="7.09"/><rect class="cls-3" x="193.42" y="369.21" width="7.09" height="7.09"/></g></g></svg>